{
customParameters = (
{
name = openTypeOS2Type;
value = (
    2
);
}
);
date = "2016-01-08 04:23:34 +0000";
familyName = "Katibeh-Latin-open";
featurePrefixes = (
{
automatic = 1;
code = "languagesystem DFLT dflt;\012languagesystem latn dflt;\012languagesystem latn CAT;\012languagesystem latn ROM;\012languagesystem latn MOL;\012languagesystem latn KAZ;\012languagesystem latn TAT;\012languagesystem latn TRK;\012languagesystem latn CRT;\012languagesystem latn AZE;\012";
name = Languagesystems;
}
);
features = (
{
automatic = 1;
code = "feature ccmp;\012feature locl;\012feature sups;\012feature numr;\012feature dnom;\012feature frac;\012feature ordn;\012feature lnum;\012feature onum;\012";
name = aalt;
},
{
automatic = 1;
code = "lookup latn_comb1 {\012	script latn;\012@CombiningTopAccents = [acutecomb brevecomb caroncomb circumflexcomb commaturnedabovecomb dieresiscomb dotaccentcomb gravecomb hungarumlautcomb macroncomb ringcomb tildecomb];\012@CombiningNonTopAccents = [cedillacomb commaaccent ogonekcomb slashlongcomb slashshortcomb strokelongcomb strokeshortcomb];\012	sub [i j]' @CombiningTopAccents by [idotless jdotless];\012	sub [i j]' @CombiningNonTopAccents @CombiningTopAccents by [idotless jdotless];\012} latn_comb1;\012";
name = ccmp;
},
{
automatic = 1;
code = "script latn;\012language CAT;\012sub  l' periodcentered' l by ldot;\012sub  L' periodcentered' L by Ldot;\012language ROM;\012sub Scedilla by Scommaaccent;\012sub scedilla by scommaaccent;\012sub Tcedilla by Tcommaaccent;\012sub tcedilla by tcommaaccent;\012language MOL;\012sub Scedilla by Scommaaccent;\012sub scedilla by scommaaccent;\012sub Tcedilla by Tcommaaccent;\012sub tcedilla by tcommaaccent;\012language KAZ;\012sub i by idotaccent;\012language TAT;\012sub i by idotaccent;\012language TRK;\012sub i by idotaccent;\012language CRT;\012sub i by idotaccent;\012language AZE;\012sub i by idotaccent;\012";
name = locl;
},
{
automatic = 1;

glyphs = (
{
glyphname = A;
lastChange = "2016-01-13 12:08:33 +0000";
layers = (
{
anchors = (
{
name = bottom;
position = "{234, 0}";
},
{
name = ogonek;
position = "{459, 0}";
},
{
name = top;
position = "{234, 467}";
}
);
hints = (
{
horizontal = 1;
origin = "{0, 40}";
target = "{0, 1}";
},
{
horizontal = 1;
origin = "{1, 3}";
target = "{1, 2}";
},
{
horizontal = 1;
place = "{145.275000, 6.500000}";
}
);
layerId = "0A9CB6F6-DACD-44D2-9CB9-B84AA124B162";
paths = (
{
closed = 1;
nodes = (
"112 0 LINE",
"121 10 LINE",
"114 22 LINE SMOOTH",
"109 33 OFFCURVE",
"106 45 OFFCURVE",
"106 62 CURVE SMOOTH",
"106 78 OFFCURVE",
"110 97 OFFCURVE",
"121 130 CURVE SMOOTH",
"219 426 LINE",
"192 426 LINE",
"304 96 LINE SMOOTH",
"311 75 OFFCURVE",
"315 62 OFFCURVE",
"315 55 CURVE SMOOTH",
"315 37 OFFCURVE",
"306 28 OFFCURVE",
"287 22 CURVE SMOOTH",
"272 18 LINE",
"278 0 LINE",
"459 0 LINE",
"468 10 LINE",
"434 36 OFFCURVE",
"422 53 OFFCURVE",
"409 90 CURVE SMOOTH",
"278 467 LINE",
"142 467 LINE",
"135 449 LINE",
"146 446 LINE SMOOTH",
"168 440 OFFCURVE",
"178 430 OFFCURVE",
"178 415 CURVE SMOOTH",
"178 406 OFFCURVE",
"176 398 OFFCURVE",
"171 380 CURVE SMOOTH",
"69 86 LINE SMOOTH",
"54 44 OFFCURVE",
"43 31 OFFCURVE",
"10 22 CURVE SMOOTH",
"-5 18 LINE",
"2 0 LINE"
);
},
{
closed = 1;
nodes = (
"321 155 LINE",
"321 183 LINE",
"115 183 LINE",
"115 155 LINE"
);
}
);
width = 468;
}
);
unicode = 0041;
},
{
glyphname = AE;
lastChange = "2016-01-13 12:08:33 +0000";
layers = (
{
anchors = (
{
name = bottom;
position = "{322, 0}";
},
{
name = top;
position = "{411, 467}";
}
);
hints = (
{
origin = "{1, 0}";
target = "{1, 19}";
},
{
horizontal = 1;
origin = "{1, 6}";
target = "{1, 16}";
},
{
horizontal = 1;
origin = "{2, 0}";
target = "{2, 3}";
},
{
horizontal = 1;
origin = "{1, 38}";
target = "{1, 48}";
},
{
horizontal = 1;
origin = "{1, 44}";
target = down;
type = TopGhost;
},
{
horizontal = 1;
origin = "{1, 9}";
target = up;
type = BottomGhost;
}
);
layerId = "0A9CB6F6-DACD-44D2-9CB9-B84AA124B162";
paths = (
{
closed = 1;
nodes = (
"283 467 LINE",
"57 61 LINE SMOOTH",
"45 40 OFFCURVE",
"29 28 OFFCURVE",
"7 22 CURVE SMOOTH",
"-8 18 LINE",
"-1 0 LINE",
"109 0 LINE",
"118 10 LINE",
"111 22 LINE SMOOTH",
"105 33 OFFCURVE",
"103 42 OFFCURVE",
"103 51 CURVE SMOOTH",
"103 68 OFFCURVE",
"107 81 OFFCURVE",
"117 100 CURVE SMOOTH",
"319 467 LINE"
);
},
{
closed = 1;
nodes = (
"313 83 LINE SMOOTH",
"313 44 OFFCURVE",
"304 31 OFFCURVE",
"271 22 CURVE SMOOTH",
"257 18 LINE",
"264 0 LINE",
"522 0 LINE SMOOTH",
"564 0 OFFCURVE",
"580 -4 OFFCURVE",
"598 -17 CURVE",
"608 -8 LINE",
"608 112 LINE",
"588 119 LINE",
"564 48 OFFCURVE",
"545 25 OFFCURVE",
"507 25 CURVE SMOOTH",
"458 25 LINE SMOOTH",
"416 25 OFFCURVE",
"409 33 OFFCURVE",
"409 74 CURVE SMOOTH",
"409 204 LINE",
"458 204 LINE SMOOTH",
"513 204 OFFCURVE",
"533 195 OFFCURVE",
"538 167 CURVE SMOOTH",
"542 146 LINE",
"564 154 LINE",
"564 269 LINE",
"551 276 LINE",
"546 263 LINE SMOOTH",
"537 240 OFFCURVE",
"521 233 OFFCURVE",
"480 233 CURVE SMOOTH",
"409 233 LINE",
"409 392 LINE SMOOTH",
"409 433 OFFCURVE",
"417 442 OFFCURVE",
"450 442 CURVE SMOOTH",
"495 442 LINE SMOOTH",
"538 442 OFFCURVE",
"556 422 OFFCURVE",
"580 348 CURVE",
"601 355 LINE",
"601 480 LINE",
"590 489 LINE",
"578 480 LINE SMOOTH",
"566 471 OFFCURVE",
"545 467 OFFCURVE",
"504 467 CURVE SMOOTH",
"313 467 LINE"
);
},
{
closed = 1;
nodes = (
"166 205 LINE",
"333 205 LINE",
"333 233 LINE",
"166 233 LINE"
);
},
{
closed = 1;
nodes = (
"298 443 LINE",
"323 443 LINE",
"323 460 LINE",
"298 460 LINE"
);
}
);
width = 645;
}
);
unicode = 00C6;
},
{
glyphname = B;
lastChange = "2016-01-13 12:08:33 +0000";
layers = (
{
hints = (
{
horizontal = 1;
origin = "{0, 26}";
target = "{1, 19}";
},
{
horizontal = 1;
origin = "{1, 13}";
target = "{1, 12}";
},
{
horizontal = 1;
origin = "{1, 6}";
target = "{0, 13}";
},
{
origin = "{0, 22}";
target = "{1, 2}";
},
{
origin = "{1, 16}";
target = "{0, 3}";
},
{
origin = "{1, 9}";
target = "{0, 10}";
}
);
layerId = "0A9CB6F6-DACD-44D2-9CB9-B84AA124B162";
paths = (
{
closed = 1;
nodes = (
"242 0 LINE SMOOTH",
"353 0 OFFCURVE",
"423 49 OFFCURVE",
"423 127 CURVE SMOOTH",
"423 194 OFFCURVE",
"366 244 OFFCURVE",
"285 249 CURVE",
"285 237 LINE",
"357 250 OFFCURVE",
"403 294 OFFCURVE",
"403 351 CURVE SMOOTH",
"403 429 OFFCURVE",
"334 476 OFFCURVE",
"216 476 CURVE SMOOTH",
"161 476 OFFCURVE",
"85 466 OFFCURVE",
"42 453 CURVE",
"38 440 LINE",
"50 433 LINE SMOOTH",
"79 416 OFFCURVE",
"81 396 OFFCURVE",
"81 354 CURVE SMOOTH",
"81 83 LINE SMOOTH",
"81 39 OFFCURVE",
"73 31 OFFCURVE",
"26 18 CURVE",
"33 0 LINE"
);
},
{
closed = 1;
nodes = (
"202 22 OFFCURVE",
"177 56 OFFCURVE",
"177 111 CURVE SMOOTH",
"177 397 LINE SMOOTH",
"177 432 OFFCURVE",
"194 452 OFFCURVE",
"223 452 CURVE SMOOTH",
"272 452 OFFCURVE",
"304 413 OFFCURVE",
"304 351 CURVE SMOOTH",
"304 289 OFFCURVE",
"266 251 OFFCURVE",
"205 251 CURVE",
"205 239 LINE",
"281 226 OFFCURVE",
"324 186 OFFCURVE",
"324 125 CURVE SMOOTH",
"324 65 OFFCURVE",
"289 22 OFFCURVE",
"241 22 CURVE SMOOTH"
);
}
);
width = 449;
}
);
unicode = 0042;
},
{
color = 4;
glyphname = C;
lastChange = "2016-01-13 18:49:34 +0000";
layers = (
{
anchors = (
{
name = bottom;
position = "{208, 0}";
},
{
name = top;
position = "{240, 467}";
}
);
hints = (
{
place = "{11.700000, 22.750000}";
},
{
place = "{107.900000, 19.500000}";
},
{
horizontal = 1;
place = "{95.550000, 8.450000}";
},
{
horizontal = 1;
origin = "{0, 12}";
target = "{0, 25}";
}
);
layerId = "0A9CB6F6-DACD-44D2-9CB9-B84AA124B162";
paths = (
{
closed = 1;
nodes = (
"323 -9 OFFCURVE",
"379 38 OFFCURVE",
"411 92 CURVE",
"399 101 LINE",
"369 60 OFFCURVE",
"330 27 OFFCURVE",
"263 27 CURVE SMOOTH",
"178 27 OFFCURVE",
"126 120 OFFCURVE",
"126 233 CURVE SMOOTH",
"126 336 OFFCURVE",
"154 452 OFFCURVE",
"236 452 CURVE SMOOTH",
"279 452 OFFCURVE",
"306 418 OFFCURVE",
"306 377 CURVE SMOOTH",
"306 334 OFFCURVE",
"291 306 OFFCURVE",
"276 290 CURVE",
"344 290 OFFCURVE",
"399 322 OFFCURVE",
"399 380 CURVE SMOOTH",
"399 437 OFFCURVE",
"335 476 OFFCURVE",
"243 476 CURVE SMOOTH",
"92 476 OFFCURVE",
"21 367 OFFCURVE",
"21 233 CURVE SMOOTH",
"21 99 OFFCURVE",
"92 -9 OFFCURVE",
"241 -9 CURVE SMOOTH"
);
}
);
width = 415;
}
);
unicode = 0043;
},
{
glyphname = D;
lastChange = "2016-01-13 12:08:33 +0000";
layers = (
{
anchors = (
{
name = bottom;
position = "{248, 0}";
},
{
name = center;
position = "{160, 234}";
},
{
name = top;
position = "{237, 467}";
}
);
hints = (
{
horizontal = 1;
origin = "{0, 19}";
target = "{1, 12}";
},
{
horizontal = 1;
origin = "{1, 6}";
target = "{0, 6}";
},
{
origin = "{0, 15}";
target = "{1, 2}";
},
{
origin = "{1, 9}";
target = "{0, 3}";
}
);
layerId = "0A9CB6F6-DACD-44D2-9CB9-B84AA124B162";
paths = (
{
closed = 1;
nodes = (
"245 0 LINE SMOOTH",
"386 0 OFFCURVE",
"474 90 OFFCURVE",
"474 233 CURVE SMOOTH",
"474 390 OFFCURVE",
"383 476 OFFCURVE",
"214 476 CURVE SMOOTH",
"159 476 OFFCURVE",
"86 466 OFFCURVE",
"42 453 CURVE",
"38 440 LINE",
"50 433 LINE SMOOTH",
"79 416 OFFCURVE",
"81 396 OFFCURVE",
"81 354 CURVE SMOOTH",
"81 83 LINE SMOOTH",
"81 39 OFFCURVE",
"73 31 OFFCURVE",
"26 18 CURVE",
"33 0 LINE"
);
},
{
closed = 1;
nodes = (
"196 20 OFFCURVE",
"177 50 OFFCURVE",
"177 113 CURVE SMOOTH",
"177 419 LINE SMOOTH",
"177 439 OFFCURVE",
"196 450 OFFCURVE",
"231 450 CURVE SMOOTH",
"315 450 OFFCURVE",
"371 363 OFFCURVE",
"371 233 CURVE SMOOTH",
"371 92 OFFCURVE",
"326 20 OFFCURVE",
"236 20 CURVE SMOOTH"
);
}
);
width = 495;
}
);
unicode = 0044;
},
{
glyphname = E;
lastChange = "2016-01-13 12:08:33 +0000";
layers = (
{
anchors = (
{
name = bottom;
position = "{207, 0}";
},
{
name = ogonek;
position = "{365, -17}";
},
{
name = top;
position = "{207, 467}";
},
{
name = topleft;
position = "{13, 455}";
}
);
hints = (
{
horizontal = 1;
origin = "{0, 4}";
target = "{0, 15}";
},
{
horizontal = 1;
origin = "{0, 19}";
target = "{0, 32}";
},
{
horizontal = 1;
origin = "{0, 36}";
target = "{0, 48}";
},
{
origin = "{0, 0}";
target = "{0, 18}";
},
{
place = "{89.375000, 7.800000}";
},
{
origin = "{0, 43}";
target = "{0, 41}";
},
{
origin = "{0, 8}";
target = "{0, 9}";
}
);
layerId = "0A9CB6F6-DACD-44D2-9CB9-B84AA124B162";
paths = (
{
closed = 1;
nodes = (
"80 83 LINE SMOOTH",
"80 39 OFFCURVE",
"72 31 OFFCURVE",
"25 18 CURVE",
"32 0 LINE",
"283 0 LINE SMOOTH",
"323 0 OFFCURVE",
"346 -3 OFFCURVE",
"365 -17 CURVE",
"376 -8 LINE",
"376 112 LINE",
"355 119 LINE",
"334 51 OFFCURVE",
"314 25 OFFCURVE",
"274 25 CURVE SMOOTH",
"225 25 LINE SMOOTH",
"183 25 OFFCURVE",
"176 34 OFFCURVE",
"176 74 CURVE SMOOTH",
"176 225 LINE",
"226 225 LINE SMOOTH",
"278 225 OFFCURVE",
"301 216 OFFCURVE",
"306 188 CURVE SMOOTH",
"310 166 LINE",
"332 174 LINE",
"332 286 LINE",
"319 294 LINE",
"314 280 LINE SMOOTH",
"304 256 OFFCURVE",
"287 250 OFFCURVE",
"248 250 CURVE SMOOTH",
"176 250 LINE",
"176 392 LINE SMOOTH",
"176 433 OFFCURVE",
"184 442 OFFCURVE",
"218 442 CURVE SMOOTH",
"263 442 LINE SMOOTH",
"307 442 OFFCURVE",
"325 418 OFFCURVE",
"348 348 CURVE",
"368 355 LINE",
"368 480 LINE",
"358 489 LINE",
"346 480 LINE SMOOTH",
"333 471 OFFCURVE",
"311 467 OFFCURVE",
"272 467 CURVE SMOOTH",
"51 467 LINE",
"43 456 LINE",
"51 445 LINE SMOOTH",
"73 415 OFFCURVE",
"80 389 OFFCURVE",
"80 336 CURVE SMOOTH"
);
}
);
width = 413;
}
);
unicode = 0045;
},
{
glyphname = F;
lastChange = "2016-01-13 12:08:33 +0000";
layers = (
{
hints = (
{
horizontal = 1;
place = "{0.000000, 5.850000}";
},
{
horizontal = 1;
origin = "{0, 6}";
target = "{0, 19}";
},
{
horizontal = 1;
origin = "{0, 23}";
target = "{0, 35}";
},
{
origin = "{0, 41}";
},
{
place = "{82.225000, 7.800000}";
},
{
place = "{98.150000, 7.800000}";
}
);
layerId = "0A9CB6F6-DACD-44D2-9CB9-B84AA124B162";
paths = (
{
closed = 1;
nodes = (
"201 0 LINE",
"209 10 LINE",
"201 22 LINE SMOOTH",
"179 52 OFFCURVE",
"171 78 OFFCURVE",
"171 131 CURVE SMOOTH",
"171 217 LINE",
"214 217 LINE SMOOTH",
"265 217 OFFCURVE",
"280 210 OFFCURVE",
"285 180 CURVE SMOOTH",
"289 159 LINE",
"311 167 LINE",
"311 279 LINE",
"298 286 LINE",
"293 272 LINE SMOOTH",
"285 252 OFFCURVE",
"269 242 OFFCURVE",
"242 242 CURVE SMOOTH",
"171 242 LINE",
"171 392 LINE SMOOTH",
"171 433 OFFCURVE",
"179 442 OFFCURVE",
"213 442 CURVE SMOOTH",
"246 442 LINE SMOOTH",
"291 442 OFFCURVE",
"309 418 OFFCURVE",
"332 348 CURVE",
"352 355 LINE",
"352 480 LINE",
"342 489 LINE",
"330 480 LINE SMOOTH",
"317 471 OFFCURVE",
"295 467 OFFCURVE",
"256 467 CURVE SMOOTH",
"46 467 LINE",
"38 456 LINE",
"46 445 LINE SMOOTH",
"68 415 OFFCURVE",
"75 389 OFFCURVE",
"75 336 CURVE SMOOTH",
"75 83 LINE SMOOTH",
"75 39 OFFCURVE",
"67 31 OFFCURVE",
"20 18 CURVE",
"27 0 LINE"
);
}
);
width = 371;
}
);
unicode = 0046;
},
{
color = 4;
glyphname = G;
lastChange = "2016-01-13 18:52:36 +0000";
layers = (
{
anchors = (
{
name = bottom;
position = "{232, 0}";
},
{
name = top;
position = "{247, 467}";
}
);
hints = (
{
horizontal = 1;
origin = "{0, 30}";
target = "{0, 6}";
},
{
horizontal = 1;
origin = "{1, 5}";
target = "{1, 7}";
},
{
horizontal = 1;
origin = "{0, 24}";
target = "{0, 12}";
},
{
horizontal = 1;
origin = "{1, 13}";
target = up;
type = BottomGhost;
},
{
origin = "{0, 27}";
target = "{0, 9}";
},
{
origin = "{1, 12}";
target = "{1, 0}";
}
);
layerId = "0A9CB6F6-DACD-44D2-9CB9-B84AA124B162";
paths = (
{
closed = 1;
nodes = (
"297 -9 OFFCURVE",
"348 13 OFFCURVE",
"387 57 CURVE",
"372 71 LINE",
"342 42 OFFCURVE",
"306 27 OFFCURVE",
"263 27 CURVE SMOOTH",
"182 27 OFFCURVE",
"126 112 OFFCURVE",
"126 231 CURVE SMOOTH",
"126 365 OFFCURVE",
"175 452 OFFCURVE",
"249 452 CURVE SMOOTH",
"288 452 OFFCURVE",
"319 423 OFFCURVE",
"319 377 CURVE SMOOTH",
"319 331 OFFCURVE",
"304 308 OFFCURVE",
"289 290 CURVE",
"356 290 OFFCURVE",
"412 322 OFFCURVE",
"412 380 CURVE SMOOTH",
"412 437 OFFCURVE",
"348 476 OFFCURVE",
"256 476 CURVE SMOOTH",
"112 476 OFFCURVE",
"21 381 OFFCURVE",
"21 231 CURVE SMOOTH",
"21 84 OFFCURVE",
"105 -9 OFFCURVE",
"238 -9 CURVE SMOOTH"
);
},
{
closed = 1;
nodes = (
"410 0 LINE",
"410 86 LINE SMOOTH",
"410 144 OFFCURVE",
"415 165 OFFCURVE",
"433 189 CURVE SMOOTH",
"441 200 LINE",
"433 211 LINE",
"272 211 LINE",
"266 192 LINE",
"314 179 OFFCURVE",
"321 171 OFFCURVE",
"321 128 CURVE SMOOTH",
"321 37 LINE",
"400 -4 LINE"
);
}
);
width = 463;
}
);
unicode = 0047;
},
{
glyphname = H;
lastChange = "2016-01-13 12:08:33 +0000";
layers = (
{
anchors = (
{
name = bottom;
position = "{265, 0}";
},
{
name = center;
position = "{265, 325}";
},
{
name = top;
position = "{265, 467}";
},
{
name = topleft;
position = "{13, 455}";
}
);
hints = (
{
horizontal = 1;
origin = "{1, 19}";
target = "{1, 1}";
},
{
horizontal = 1;
origin = "{2, 3}";
target = "{2, 2}";
},
{
horizontal = 1;
origin = "{1, 8}";
target = "{1, 10}";
},
{
origin = "{1, 15}";
target = "{1, 4}";
},
{
origin = "{0, 15}";
target = "{0, 4}";
}
);
layerId = "0A9CB6F6-DACD-44D2-9CB9-B84AA124B162";
paths = (
{
closed = 1;
nodes = (
"485 0 LINE",
"493 12 LINE",
"456 44 OFFCURVE",
"450 59 OFFCURVE",
"450 126 CURVE SMOOTH",
"450 368 LINE SMOOTH",
"450 417 OFFCURVE",
"457 429 OFFCURVE",
"496 451 CURVE",
"488 467 LINE",
"318 467 LINE",
"310 454 LINE",
"348 422 OFFCURVE",
"354 407 OFFCURVE",
"354 343 CURVE SMOOTH",
"354 83 LINE SMOOTH",
"354 38 OFFCURVE",
"347 30 OFFCURVE",
"303 18 CURVE",
"309 0 LINE"
);
},
{
closed = 1;
nodes = (
"212 0 LINE",
"219 12 LINE",
"182 44 OFFCURVE",
"177 59 OFFCURVE",
"177 126 CURVE SMOOTH",
"177 368 LINE SMOOTH",
"177 417 OFFCURVE",
"184 429 OFFCURVE",
"222 451 CURVE",
"215 467 LINE",
"45 467 LINE",
"37 454 LINE",
"75 422 OFFCURVE",
"81 407 OFFCURVE",
"81 343 CURVE SMOOTH",
"81 83 LINE SMOOTH",
"81 38 OFFCURVE",
"73 30 OFFCURVE",
"30 18 CURVE",
"36 0 LINE"
);
},
{
closed = 1;
nodes = (
"395 223 LINE",
"395 251 LINE",
"135 251 LINE",
"135 223 LINE"
);
}
);
width = 530;
}
);
unicode = 0048;
},
{
glyphname = I;
lastChange = "2016-01-13 12:08:33 +0000";
layers = (
{
anchors = (
{
name = bottom;
position = "{127, 0}";
},
{
name = ogonek;
position = "{209, 0}";
},
{
name = top;
position = "{127, 467}";
},
{
name = topleft;
position = "{13, 455}";
}
);
hints = (
{
horizontal = 1;
origin = "{0, 19}";
target = "{0, 1}";
},
{
horizontal = 1;
origin = "{0, 8}";
target = "{0, 10}";
},
{
origin = "{0, 15}";
target = "{0, 4}";
}
);
layerId = "0A9CB6F6-DACD-44D2-9CB9-B84AA124B162";
paths = (
{
closed = 1;
nodes = (
"209 0 LINE",
"217 12 LINE",
"180 44 OFFCURVE",
"174 60 OFFCURVE",
"174 122 CURVE SMOOTH",
"174 368 LINE SMOOTH",
"174 417 OFFCURVE",
"181 429 OFFCURVE",
"219 451 CURVE",
"212 467 LINE",
"43 467 LINE",
"34 454 LINE",
"72 422 OFFCURVE",
"78 407 OFFCURVE",
"78 343 CURVE SMOOTH",
"78 83 LINE SMOOTH",
"78 39 OFFCURVE",
"72 30 OFFCURVE",
"27 18 CURVE",
"34 0 LINE"
);
}
);
width = 252;
}
);
unicode = 0049;
},
{
glyphname = J;
lastChange = "2016-01-13 12:08:33 +0000";
layers = (
{
anchors = (
{
name = bottom;
position = "{167, 0}";
},
{
name = top;
position = "{216, 467}";
}
);
hints = (
{
horizontal = 1;
origin = "{0, 30}";
target = "{0, 17}";
},
{
horizontal = 1;
origin = "{0, 7}";
target = "{0, 9}";
},
{
origin = "{0, 27}";
target = "{0, 20}";
},
{
origin = "{0, 14}";
target = "{0, 2}";
}
);
layerId = "0A9CB6F6-DACD-44D2-9CB9-B84AA124B162";
paths = (
{
closed = 1;
nodes = (
"215 -9 OFFCURVE",
"269 50 OFFCURVE",
"269 173 CURVE SMOOTH",
"269 336 LINE SMOOTH",
"269 389 OFFCURVE",
"277 416 OFFCURVE",
"298 445 CURVE SMOOTH",
"306 456 LINE",
"298 467 LINE",
"124 467 LINE",
"117 449 LINE",
"163 434 OFFCURVE",
"173 427 OFFCURVE",
"173 374 CURVE SMOOTH",
"173 112 LINE SMOOTH",
"173 53 OFFCURVE",
"158 17 OFFCURVE",
"125 17 CURVE SMOOTH",
"97 17 OFFCURVE",
"85 45 OFFCURVE",
"85 75 CURVE SMOOTH",
"85 109 OFFCURVE",
"97 139 OFFCURVE",
"114 154 CURVE",
"111 161 LINE",
"51 155 OFFCURVE",
"1 123 OFFCURVE",
"1 70 CURVE SMOOTH",
"1 25 OFFCURVE",
"44 -9 OFFCURVE",
"112 -9 CURVE"
);
}
);
width = 332;
}
);
unicode = 004A;
},
{
glyphname = K;
lastChange = "2016-01-13 12:08:33 +0000";
layers = (
{
anchors = (
{
name = bottom;
position = "{239, 0}";
},
{
name = top;
position = "{226, 467}";
}
);
hints = (
{
horizontal = 1;
origin = "{1, 21}";
target = "{1, 6}";
},
{
horizontal = 1;
origin = "{1, 14}";
target = "{1, 13}";
},
{
horizontal = 1;
origin = "{0, 8}";
target = "{0, 10}";
},
{
horizontal = 1;
origin = "{0, 19}";
target = "{0, 1}";
},
{
origin = "{0, 15}";
target = "{0, 4}";
}
);
layerId = "0A9CB6F6-DACD-44D2-9CB9-B84AA124B162";
paths = (
{
closed = 1;
nodes = (
"212 0 LINE",
"219 12 LINE",
"182 45 OFFCURVE",
"176 60 OFFCURVE",
"176 122 CURVE SMOOTH",
"176 368 LINE SMOOTH",
"176 416 OFFCURVE",
"184 428 OFFCURVE",
"226 451 CURVE",
"219 467 LINE",
"45 467 LINE",
"37 454 LINE",
"75 422 OFFCURVE",
"80 407 OFFCURVE",
"80 343 CURVE SMOOTH",
"80 83 LINE SMOOTH",
"80 39 OFFCURVE",
"72 31 OFFCURVE",
"25 18 CURVE",
"32 0 LINE"
);
},
{
closed = 1;
nodes = (
"411 -9 OFFCURVE",
"440 4 OFFCURVE",
"469 34 CURVE",
"461 45 LINE",
"448 35 OFFCURVE",
"435 29 OFFCURVE",
"424 29 CURVE SMOOTH",
"409 29 OFFCURVE",
"401 36 OFFCURVE",
"394 53 CURVE SMOOTH",
"348 169 LINE SMOOTH",
"325 223 OFFCURVE",
"277 244 OFFCURVE",
"176 244 CURVE",
"176 230 LINE",
"213 230 OFFCURVE",
"223 206 OFFCURVE",
"235 178 CURVE SMOOTH",
"273 80 LINE SMOOTH",
"297 16 OFFCURVE",
"319 -9 OFFCURVE",
"373 -9 CURVE SMOOTH"
);
},
{
closed = 1;
nodes = (
"362 402 LINE SMOOTH",
"382 424 OFFCURVE",
"397 434 OFFCURVE",
"415 442 CURVE SMOOTH",
"438 449 LINE",
"432 467 LINE",
"314 467 LINE",
"301 456 LINE",
"307 445 LINE SMOOTH",
"313 430 OFFCURVE",
"315 425 OFFCURVE",
"315 418 CURVE SMOOTH",
"314 403 OFFCURVE",
"309 393 OFFCURVE",
"298 379 CURVE SMOOTH",
"175 240 LINE",
"210 229 LINE"
);
}
);
width = 454;
}
);
unicode = 004B;
},
{
glyphname = L;
lastChange = "2016-01-13 12:08:33 +0000";
layers = (
{
anchors = (
{
name = bottom;
position = "{188, 0}";
},
{
name = center;
position = "{130, 228}";
},
{
name = top;
position = "{130, 467}";
},
{
name = topright;
position = "{224, 325}";
}
);
hints = (
{
horizontal = 1;
origin = "{0, 4}";
target = "{0, 15}";
},
{
horizontal = 1;
origin = "{0, 22}";
target = "{0, 24}";
},
{
origin = "{0, 0}";
target = "{0, 18}";
},
{
origin = "{0, 8}";
target = "{0, 9}";
}
);
layerId = "0A9CB6F6-DACD-44D2-9CB9-B84AA124B162";
paths = (
{
closed = 1;
nodes = (
"78 83 LINE SMOOTH",
"78 39 OFFCURVE",
"70 31 OFFCURVE",
"23 18 CURVE",
"29 0 LINE",
"275 0 LINE SMOOTH",
"318 0 OFFCURVE",
"335 -4 OFFCURVE",
"352 -17 CURVE",
"362 -8 LINE",
"362 112 LINE",
"342 119 LINE",
"318 46 OFFCURVE",
"300 25 OFFCURVE",
"261 25 CURVE SMOOTH",
"223 25 LINE SMOOTH",
"182 25 OFFCURVE",
"174 34 OFFCURVE",
"174 77 CURVE SMOOTH",
"174 356 LINE SMOOTH",
"174 416 OFFCURVE",
"180 427 OFFCURVE",
"224 451 CURVE",
"217 467 LINE",
"43 467 LINE",
"34 454 LINE",
"72 422 OFFCURVE",
"78 407 OFFCURVE",
"78 338 CURVE SMOOTH"
);
}
);
width = 376;
}
);
unicode = 004C;
},
{
glyphname = M;
lastChange = "2016-01-13 12:08:33 +0000";
layers = (
{
hints = (
{
horizontal = 1;
origin = "{0, 14}";
target = "{0, 16}";
},
{
horizontal = 1;
origin = "{0, 2}";
target = "{0, 47}";
},
{
place = "{87.000000, 29.000000}";
},
{
place = "{76.000000, 29.000000}";
}
);
layerId = "0A9CB6F6-DACD-44D2-9CB9-B84AA124B162";
paths = (
{
closed = 1;
nodes = (
"311 130 LINE",
"199 467 LINE",
"53 467 LINE",
"46 454 LINE",
"81 421 OFFCURVE",
"87 408 OFFCURVE",
"87 363 CURVE SMOOTH",
"87 348 OFFCURVE",
"85 315 OFFCURVE",
"82 275 CURVE SMOOTH",
"70 83 LINE SMOOTH",
"67 38 OFFCURVE",
"59 32 OFFCURVE",
"10 18 CURVE",
"16 0 LINE",
"127 0 LINE",
"136 10 LINE",
"112 45 OFFCURVE",
"105 66 OFFCURVE",
"105 101 CURVE SMOOTH",
"105 118 OFFCURVE",
"107 144 OFFCURVE",
"109 168 CURVE SMOOTH",
"125 423 LINE",
"114 423 LINE",
"257 15 LINE",
"285 15 LINE",
"428 423 LINE",
"418 423 LINE",
"439 122 OFFCURVE",
"442 77 OFFCURVE",
"442 69 CURVE SMOOTH",
"442 36 OFFCURVE",
"432 30 OFFCURVE",
"390 18 CURVE",
"397 0 LINE",
"571 0 LINE",
"579 10 LINE",
"550 40 OFFCURVE",
"538 73 OFFCURVE",
"535 126 CURVE SMOOTH",
"522 304 LINE SMOOTH",
"521 314 OFFCURVE",
"518 355 OFFCURVE",
"518 363 CURVE SMOOTH",
"518 401 OFFCURVE",
"524 419 OFFCURVE",
"550 456 CURVE",
"540 467 LINE",
"411 467 LINE",
"293 130 LINE"
);
}
);
width = 600;
}
);
unicode = 004D;
},
{
glyphname = N;
lastChange = "2016-01-13 12:08:33 +0000";
layers = (
{
anchors = (
{
name = bottom;
position = "{245, 0}";
},
{
name = top;
position = "{245, 467}";
}
);
hints = (
{
horizontal = 1;
origin = "{0, 11}";
target = "{0, 13}";
},
{
horizontal = 1;
origin = "{0, 31}";
target = "{0, 2}";
},
{
origin = "{0, 7}";
target = "{0, 17}";
},
{
origin = "{0, 38}";
target = "{0, 26}";
}
);
layerId = "0A9CB6F6-DACD-44D2-9CB9-B84AA124B162";
paths = (
{
closed = 1;
nodes = (
"402 57 LINE",
"165 467 LINE",
"35 467 LINE",
"27 454 LINE",
"63 423 OFFCURVE",
"70 406 OFFCURVE",
"70 347 CURVE SMOOTH",
"70 83 LINE SMOOTH",
"70 38 OFFCURVE",
"63 31 OFFCURVE",
"15 18 CURVE",
"22 0 LINE",
"132 0 LINE",
"141 10 LINE",
"132 22 LINE SMOOTH",
"111 51 OFFCURVE",
"103 77 OFFCURVE",
"103 131 CURVE SMOOTH",
"103 416 LINE",
"84 416 LINE",
"325 0 LINE",
"429 0 LINE",
"438 10 LINE",
"429 22 LINE SMOOTH",
"423 31 OFFCURVE",
"420 40 OFFCURVE",
"420 57 CURVE SMOOTH",
"420 336 LINE SMOOTH",
"420 388 OFFCURVE",
"428 415 OFFCURVE",
"449 445 CURVE SMOOTH",
"458 456 LINE",
"449 467 LINE",
"330 467 LINE",
"324 449 LINE",
"373 435 OFFCURVE",
"388 426 OFFCURVE",
"388 384 CURVE SMOOTH",
"388 57 LINE"
);
}
);
width = 490;
}
);
unicode = 004E;
},
{
glyphname = Eng;
lastChange = "2016-01-13 12:08:33 +0000";
layers = (
{
hints = (
{
horizontal = 1;
origin = "{0, 16}";
target = "{0, 3}";
},
{
horizontal = 1;
origin = "{0, 9}";
target = "{0, 10}";
},
{
horizontal = 1;
origin = "{0, 45}";
target = "{0, 47}";
},
{
horizontal = 1;
origin = "{0, 24}";
target = "{0, 34}";
},
{
origin = "{0, 40}";
target = "{0, 51}";
},
{
origin = "{0, 13}";
target = "{0, 6}";
},
{
origin = "{0, 32}";
target = "{0, 19}";
}
);
layerId = "0A9CB6F6-DACD-44D2-9CB9-B84AA124B162";
paths = (
{
closed = 1;
nodes = (
"330 -77 LINE SMOOTH",
"330 -122 OFFCURVE",
"316 -143 OFFCURVE",
"293 -143 CURVE SMOOTH",
"272 -143 OFFCURVE",
"261 -122 OFFCURVE",
"261 -91 CURVE SMOOTH",
"261 -66 OFFCURVE",
"270 -44 OFFCURVE",
"285 -31 CURVE",
"283 -24 LINE",
"231 -28 OFFCURVE",
"191 -59 OFFCURVE",
"191 -98 CURVE SMOOTH",
"191 -139 OFFCURVE",
"231 -166 OFFCURVE",
"286 -166 CURVE SMOOTH",
"374 -166 OFFCURVE",
"420 -106 OFFCURVE",
"420 0 CURVE SMOOTH",
"420 336 LINE SMOOTH",
"420 389 OFFCURVE",
"427 415 OFFCURVE",
"449 445 CURVE SMOOTH",
"458 456 LINE",
"449 467 LINE",
"330 467 LINE",
"324 449 LINE",
"337 445 LINE SMOOTH",
"375 435 OFFCURVE",
"388 420 OFFCURVE",
"388 384 CURVE SMOOTH",
"388 94 LINE",
"165 467 LINE",
"35 467 LINE",
"27 454 LINE",
"37 445 LINE SMOOTH",
"63 422 OFFCURVE",
"70 400 OFFCURVE",
"70 352 CURVE SMOOTH",
"70 83 LINE SMOOTH",
"70 43 OFFCURVE",
"62 31 OFFCURVE",
"29 22 CURVE SMOOTH",
"15 18 LINE",
"22 0 LINE",
"132 0 LINE",
"141 10 LINE",
"132 22 LINE SMOOTH",
"110 51 OFFCURVE",
"103 78 OFFCURVE",
"103 131 CURVE SMOOTH",
"103 382 LINE",
"330 2 LINE"
);
}
);
width = 490;
}
);
unicode = 014A;
},
{
glyphname = O;
lastChange = "2016-01-13 12:08:33 +0000";
layers = (
{
anchors = (
{
name = bottom;
position = "{248, 0}";
},
{
name = center;
position = "{248, 228}";
},
{
name = ogonek;
position = "{445, 7}";
},
{
name = top;
position = "{248, 467}";
},
{
name = topleft;
position = "{13, 455}";
},
{
name = topright;
position = "{481, 455}";
}
);
hints = (
{
horizontal = 1;
origin = "{0, 11}";
target = "{1, 11}";
},
{
horizontal = 1;
origin = "{1, 5}";
target = "{0, 5}";
},
{
origin = "{0, 8}";
target = "{1, 2}";
},
{
origin = "{1, 8}";
target = "{0, 2}";
}
);
layerId = "0A9CB6F6-DACD-44D2-9CB9-B84AA124B162";
paths = (
{
closed = 1;
nodes = (
"386 -9 OFFCURVE",
"474 85 OFFCURVE",
"474 233 CURVE SMOOTH",
"474 382 OFFCURVE",
"386 476 OFFCURVE",
"247 476 CURVE SMOOTH",
"108 476 OFFCURVE",
"21 382 OFFCURVE",
"21 233 CURVE SMOOTH",
"21 84 OFFCURVE",
"108 -9 OFFCURVE",
"247 -9 CURVE SMOOTH"
);
},
{
closed = 1;
nodes = (
"170 14 OFFCURVE",
"122 98 OFFCURVE",
"122 228 CURVE SMOOTH",
"122 361 OFFCURVE",
"174 454 OFFCURVE",
"249 454 CURVE SMOOTH",
"320 454 OFFCURVE",
"370 361 OFFCURVE",
"370 231 CURVE SMOOTH",
"370 102 OFFCURVE",
"319 14 OFFCURVE",
"244 14 CURVE SMOOTH"
);
}
);
width = 494;
}
);
unicode = 004F;
},
{
glyphname = OE;
lastChange = "2016-01-13 12:08:33 +0000";
layers = (
{
anchors = (
{
name = bottom;
position = "{322, 0}";
},
{
name = top;
position = "{322, 467}";
}
);
hints = (
{
horizontal = 1;
origin = "{0, 45}";
target = "{0, 6}";
},
{
horizontal = 1;
origin = "{0, 10}";
target = "{0, 23}";
},
{
horizontal = 1;
origin = "{0, 39}";
target = "{0, 27}";
},
{
horizontal = 1;
origin = "{0, 34}";
target = down;
type = TopGhost;
},
{
horizontal = 1;
origin = "{0, 45}";
target = "{1, 12}";
},
{
horizontal = 1;
origin = "{0, 39}";
target = "{1, 5}";
},
{
origin = "{0, 42}";
target = "{1, 2}";
},
{
origin = "{1, 9}";
target = "{0, 9}";
},
{
place = "{539.000000, 24.000000}";
},
{
origin = "{0, 49}";
target = "{0, 0}";
},
{
origin = "{0, 34}";
target = "{0, 32}";
}
);
layerId = "0A9CB6F6-DACD-44D2-9CB9-B84AA124B162";
paths = (
{
closed = 1;
nodes = (
"606 -8 LINE",
"606 112 LINE",
"587 119 LINE",
"565 51 OFFCURVE",
"545 25 OFFCURVE",
"506 25 CURVE SMOOTH",
"457 25 LINE SMOOTH",
"415 25 OFFCURVE",
"408 34 OFFCURVE",
"408 74 CURVE SMOOTH",
"408 225 LINE",
"458 225 LINE SMOOTH",
"510 225 OFFCURVE",
"532 216 OFFCURVE",
"537 188 CURVE SMOOTH",
"541 166 LINE",
"563 174 LINE",
"563 286 LINE",
"550 294 LINE",
"545 280 LINE SMOOTH",
"536 256 OFFCURVE",
"519 250 OFFCURVE",
"479 250 CURVE SMOOTH",
"408 250 LINE",
"408 392 LINE SMOOTH",
"408 433 OFFCURVE",
"416 442 OFFCURVE",
"450 442 CURVE SMOOTH",
"494 442 LINE SMOOTH",
"538 442 OFFCURVE",
"557 418 OFFCURVE",
"579 348 CURVE",
"599 355 LINE",
"599 480 LINE",
"589 489 LINE",
"577 480 LINE SMOOTH",
"565 471 OFFCURVE",
"543 467 OFFCURVE",
"503 467 CURVE SMOOTH",
"254 467 LINE",
"110 467 OFFCURVE",
"21 376 OFFCURVE",
"21 233 CURVE SMOOTH",
"21 90 OFFCURVE",
"110 0 OFFCURVE",
"254 0 CURVE",
"515 0 LINE SMOOTH",
"554 0 OFFCURVE",
"578 -3 OFFCURVE",
"597 -17 CURVE"
);
},
{
closed = 1;
nodes = (
"174 21 OFFCURVE",
"122 104 OFFCURVE",
"122 230 CURVE SMOOTH",
"122 360 OFFCURVE",
"173 447 OFFCURVE",
"250 447 CURVE SMOOTH",
"273 447 OFFCURVE",
"294 441 OFFCURVE",
"311 430 CURVE",
"311 35 LINE",
"293 25 OFFCURVE",
"275 21 OFFCURVE",
"251 21 CURVE SMOOTH"
);
}
);
width = 643;
}
);
leftMetricsKey = O;
rightMetricsKey = E;
unicode = 0152;
},
{
glyphname = P;
lastChange = "2016-01-13 12:08:33 +0000";
layers = (
{
hints = (
{
horizontal = 1;
origin = "{0, 15}";
target = "{0, 17}";
},
{
horizontal = 1;
origin = "{0, 38}";
target = "{0, 31}";
},
{
horizontal = 1;
origin = "{0, 25}";
target = "{0, 2}";
},
{
origin = "{0, 11}";
target = "{0, 21}";
},
{
origin = "{0, 28}";
target = "{0, 41}";
}
);
layerId = "0A9CB6F6-DACD-44D2-9CB9-B84AA124B162";
paths = (
{
closed = 1;
nodes = (
"412 410 OFFCURVE",
"347 476 OFFCURVE",
"205 476 CURVE SMOOTH",
"145 476 OFFCURVE",
"76 464 OFFCURVE",
"41 453 CURVE",
"37 440 LINE",
"49 433 LINE SMOOTH",
"78 416 OFFCURVE",
"80 388 OFFCURVE",
"80 349 CURVE SMOOTH",
"80 83 LINE SMOOTH",
"80 38 OFFCURVE",
"73 31 OFFCURVE",
"25 18 CURVE",
"32 0 LINE",
"206 0 LINE",
"214 10 LINE",
"206 22 LINE SMOOTH",
"184 52 OFFCURVE",
"176 77 OFFCURVE",
"176 131 CURVE SMOOTH",
"176 410 LINE SMOOTH",
"176 428 OFFCURVE",
"186 452 OFFCURVE",
"220 452 CURVE SMOOTH",
"280 452 OFFCURVE",
"312 392 OFFCURVE",
"312 322 CURVE SMOOTH",
"312 256 OFFCURVE",
"280 216 OFFCURVE",
"229 208 CURVE SMOOTH",
"218 207 OFFCURVE",
"206 207 OFFCURVE",
"195 208 CURVE",
"193 199 LINE",
"214 187 OFFCURVE",
"241 179 OFFCURVE",
"267 179 CURVE SMOOTH",
"339 179 OFFCURVE",
"412 231 OFFCURVE",
"412 321 CURVE SMOOTH"
);
}
);
width = 422;
}
);
unicode = 0050;
},
{
glyphname = Thorn;
lastChange = "2016-01-13 12:08:33 +0000";
layers = (
{
hints = (
{
origin = "{0, 15}";
target = "{0, 26}";
},
{
origin = "{0, 32}";
target = "{0, 0}";
},
{
horizontal = 1;
origin = "{0, 41}";
target = "{0, 38}";
},
{
horizontal = 1;
origin = "{0, 29}";
target = "{0, 3}";
},
{
horizontal = 1;
origin = "{0, 10}";
target = down;
type = TopGhost;
},
{
horizontal = 1;
origin = "{0, 20}";
target = up;
type = BottomGhost;
}
);
layerId = "0A9CB6F6-DACD-44D2-9CB9-B84AA124B162";
paths = (
{
closed = 1;
nodes = (
"412 321 OFFCURVE",
"343 382 OFFCURVE",
"235 382 CURVE SMOOTH",
"214 382 OFFCURVE",
"196 379 OFFCURVE",
"178 373 CURVE",
"180 423 OFFCURVE",
"186 432 OFFCURVE",
"222 451 CURVE",
"215 467 LINE",
"32 467 LINE",
"24 454 LINE",
"72 418 OFFCURVE",
"81 404 OFFCURVE",
"81 342 CURVE SMOOTH",
"81 83 LINE SMOOTH",
"81 39 OFFCURVE",
"72 31 OFFCURVE",
"25 18 CURVE",
"32 0 LINE",
"206 0 LINE",
"214 10 LINE",
"184 51 OFFCURVE",
"177 72 OFFCURVE",
"177 131 CURVE SMOOTH",
"177 320 LINE SMOOTH",
"177 343 OFFCURVE",
"194 358 OFFCURVE",
"220 358 CURVE SMOOTH",
"276 358 OFFCURVE",
"312 307 OFFCURVE",
"312 229 CURVE SMOOTH",
"312 165 OFFCURVE",
"282 123 OFFCURVE",
"230 115 CURVE SMOOTH",
"218 113 OFFCURVE",
"207 114 OFFCURVE",
"195 116 CURVE",
"193 106 LINE",
"212 95 OFFCURVE",
"243 86 OFFCURVE",
"268 86 CURVE SMOOTH",
"350 86 OFFCURVE",
"412 147 OFFCURVE",
"412 228 CURVE SMOOTH"
);
}
);
width = 418;
}
);
unicode = 00DE;
},
{
glyphname = Q;
lastChange = "2016-01-13 12:08:33 +0000";
layers = (
{
components = (
{
name = O;
}
);
hints = (
{
horizontal = 1;
origin = "{0, 3}";
target = "{0, 10}";
},
{
horizontal = 1;
origin = "{0, 0}";
target = down;
type = TopGhost;
}
);
layerId = "0A9CB6F6-DACD-44D2-9CB9-B84AA124B162";
paths = (
{
closed = 1;
nodes = (
"216 -2 LINE",
"266 -115 OFFCURVE",
"292 -166 OFFCURVE",
"373 -166 CURVE SMOOTH",
"421 -166 OFFCURVE",
"449 -144 OFFCURVE",
"474 -105 CURVE",
"462 -96 LINE",
"444 -119 OFFCURVE",
"425 -132 OFFCURVE",
"397 -132 CURVE SMOOTH",
"337 -132 OFFCURVE",
"324 -52 OFFCURVE",
"288 15 CURVE"
);
}
);
width = 494;
}
);
unicode = 0051;
},
{
glyphname = R;
lastChange = "2016-01-13 12:08:33 +0000";
layers = (
{
anchors = (
{
name = bottom;
position = "{237, 0}";
},
{
name = top;
position = "{226, 467}";
}
);
hints = (
{
horizontal = 1;
origin = "{1, 21}";
target = "{1, 6}";
},
{
horizontal = 1;
origin = "{0, 9}";
target = "{0, 28}";
},
{
horizontal = 1;
origin = "{0, 41}";
target = "{0, 1}";
},
{
origin = "{0, 37}";
target = "{0, 5}";
},
{
origin = "{0, 12}";
target = "{0, 25}";
}
);
layerId = "0A9CB6F6-DACD-44D2-9CB9-B84AA124B162";
paths = (
{
closed = 1;
nodes = (
"202 0 LINE",
"210 10 LINE",
"202 22 LINE SMOOTH",
"180 52 OFFCURVE",
"172 78 OFFCURVE",
"172 131 CURVE SMOOTH",
"172 410 LINE SMOOTH",
"172 438 OFFCURVE",
"188 452 OFFCURVE",
"217 452 CURVE SMOOTH",
"272 452 OFFCURVE",
"308 406 OFFCURVE",
"308 336 CURVE SMOOTH",
"308 277 OFFCURVE",
"279 238 OFFCURVE",
"229 230 CURVE SMOOTH",
"219 228 OFFCURVE",
"206 228 OFFCURVE",
"191 230 CURVE",
"189 220 LINE",
"209 208 OFFCURVE",
"237 200 OFFCURVE",
"263 200 CURVE SMOOTH",
"344 200 OFFCURVE",
"408 259 OFFCURVE",
"408 334 CURVE SMOOTH",
"408 422 OFFCURVE",
"330 476 OFFCURVE",
"203 476 CURVE SMOOTH",
"152 476 OFFCURVE",
"79 466 OFFCURVE",
"37 453 CURVE",
"33 440 LINE",
"45 433 LINE SMOOTH",
"74 416 OFFCURVE",
"76 388 OFFCURVE",
"76 349 CURVE SMOOTH",
"76 83 LINE SMOOTH",
"76 39 OFFCURVE",
"68 31 OFFCURVE",
"21 18 CURVE",
"28 0 LINE"
);
},
{
closed = 1;
nodes = (
"408 -9 OFFCURVE",
"439 4 OFFCURVE",
"464 34 CURVE",
"456 45 LINE",
"444 35 OFFCURVE",
"431 29 OFFCURVE",
"419 29 CURVE SMOOTH",
"404 29 OFFCURVE",
"394 36 OFFCURVE",
"388 53 CURVE SMOOTH",
"353 151 LINE SMOOTH",
"336 199 OFFCURVE",
"293 220 OFFCURVE",
"208 220 CURVE",
"206 211 LINE",
"232 200 OFFCURVE",
"239 178 OFFCURVE",
"249 152 CURVE SMOOTH",
"278 64 LINE SMOOTH",
"298 10 OFFCURVE",
"322 -9 OFFCURVE",
"370 -9 CURVE SMOOTH"
);
}
);
width = 450;
}
);
unicode = 0052;
},
{
color = 4;
glyphname = S;
lastChange = "2016-01-13 18:48:16 +0000";
layers = (
{
anchors = (
{
name = bottom;
position = "{194, 0}";
},
{
name = top;
position = "{200, 467}";
}
);
background = {
paths = (
{
closed = 1;
nodes = (
"289 -9 OFFCURVE",
"362 40 OFFCURVE",
"362 124 CURVE SMOOTH",
"362 267 OFFCURVE",
"127 265 OFFCURVE",
"127 390 CURVE SMOOTH",
"127 422 OFFCURVE",
"151 452 OFFCURVE",
"198 452 CURVE SMOOTH",
"241 452 OFFCURVE",
"265 423 OFFCURVE",
"265 389 CURVE SMOOTH",
"265 360 OFFCURVE",
"251 334 OFFCURVE",
"226 323 CURVE",
"226 316 LINE",
"243 311 OFFCURVE",
"258 309 OFFCURVE",
"270 309 CURVE SMOOTH",
"325 309 OFFCURVE",
"355 345 OFFCURVE",
"355 383 CURVE SMOOTH",
"355 440 OFFCURVE",
"293 476 OFFCURVE",
"204 476 CURVE SMOOTH",
"99 476 OFFCURVE",
"29 423 OFFCURVE",
"29 348 CURVE SMOOTH",
"29 196 OFFCURVE",
"262 196 OFFCURVE",
"262 84 CURVE SMOOTH",
"262 45 OFFCURVE",
"234 14 OFFCURVE",
"185 14 CURVE SMOOTH",
"137 14 OFFCURVE",
"113 47 OFFCURVE",
"113 86 CURVE SMOOTH",
"113 113 OFFCURVE",
"127 141 OFFCURVE",
"151 152 CURVE",
"151 159 LINE",
"135 164 OFFCURVE",
"119 166 OFFCURVE",
"107 166 CURVE SMOOTH",
"52 166 OFFCURVE",
"22 130 OFFCURVE",
"22 91 CURVE SMOOTH",
"22 29 OFFCURVE",
"86 -9 OFFCURVE",
"180 -9 CURVE SMOOTH"
);
}
);
};
hints = (
{
horizontal = 1;
origin = "{0, 41}";
target = "{0, 26}";
},
{
horizontal = 1;
origin = "{0, 17}";
target = "{0, 2}";
},
{
origin = "{0, 20}";
target = "{0, 47}";
},
{
origin = "{0, 23}";
target = "{0, 44}";
},
{
origin = "{0, 5}";
target = "{0, 14}";
},
{
origin = "{0, 38}";
target = "{0, 29}";
}
);
layerId = "0A9CB6F6-DACD-44D2-9CB9-B84AA124B162";
paths = (
{
closed = 1;
nodes = (
"127 422 OFFCURVE",
"151 452 OFFCURVE",
"198 452 CURVE SMOOTH",
"248 452 OFFCURVE",
"269 423 OFFCURVE",
"269 392 CURVE SMOOTH",
"269 371 OFFCURVE",
"259 350 OFFCURVE",
"242 336 CURVE",
"257 329 OFFCURVE",
"273 325 OFFCURVE",
"288 325 CURVE SMOOTH",
"329 325 OFFCURVE",
"355 347 OFFCURVE",
"355 383 CURVE SMOOTH",
"355 440 OFFCURVE",
"293 476 OFFCURVE",
"204 476 CURVE SMOOTH",
"99 476 OFFCURVE",
"29 423 OFFCURVE",
"29 348 CURVE SMOOTH",
"29 196 OFFCURVE",
"262 196 OFFCURVE",
"262 84 CURVE SMOOTH",
"262 45 OFFCURVE",
"234 14 OFFCURVE",
"185 14 CURVE SMOOTH",
"137 14 OFFCURVE",
"109 45 OFFCURVE",
"109 81 CURVE SMOOTH",
"109 107 OFFCURVE",
"117 132 OFFCURVE",
"140 144 CURVE",
"125 152 OFFCURVE",
"109 156 OFFCURVE",
"94 156 CURVE SMOOTH",
"54 156 OFFCURVE",
"22 132 OFFCURVE",
"22 91 CURVE SMOOTH",
"22 29 OFFCURVE",
"86 -9 OFFCURVE",
"180 -9 CURVE SMOOTH",
"289 -9 OFFCURVE",
"362 40 OFFCURVE",
"362 124 CURVE SMOOTH",
"362 267 OFFCURVE",
"127 265 OFFCURVE",
"127 390 CURVE SMOOTH"
);
}
);
width = 388;
}
);
unicode = 0053;
},
{
glyphname = T;
lastChange = "2016-01-13 12:10:18 +0000";
layers = (
{
anchors = (
{
name = bottom;
position = "{201, 0}";
},
{
name = center;
position = "{201, 228}";
},
{
name = top;
position = "{201, 467}";
}
);
hints = (
{
horizontal = 1;
origin = "{0, 35}";
target = "{0, 34}";
},
{
horizontal = 1;
origin = "{0, 15}";
target = "{0, 25}";
},
{
horizontal = 1;
origin = "{0, 19}";
target = down;
type = TopGhost;
},
{
origin = "{0, 21}";
target = "{0, 19}";
},
{
origin = "{0, 30}";
target = "{0, 40}";
},
{
origin = "{0, 10}";
target = "{0, 8}";
}
);
layerId = "0A9CB6F6-DACD-44D2-9CB9-B84AA124B162";
paths = (
{
closed = 1;
nodes = (
"248 400 LINE SMOOTH",
"248 433 OFFCURVE",
"252 442 OFFCURVE",
"270 442 CURVE SMOOTH",
"283 442 LINE SMOOTH",
"329 442 OFFCURVE",
"344 417 OFFCURVE",
"368 348 CURVE",
"389 355 LINE",
"389 480 LINE",
"378 489 LINE",
"366 480 LINE SMOOTH",
"353 471 OFFCURVE",
"330 467 OFFCURVE",
"292 467 CURVE SMOOTH",
"109 467 LINE SMOOTH",
"71 467 OFFCURVE",
"48 471 OFFCURVE",
"35 480 CURVE SMOOTH",
"23 489 LINE",
"13 480 LINE",
"13 355 LINE",
"33 348 LINE",
"55 413 OFFCURVE",
"71 442 OFFCURVE",
"119 442 CURVE SMOOTH",
"130 442 LINE SMOOTH",
"148 442 OFFCURVE",
"152 432 OFFCURVE",
"152 400 CURVE SMOOTH",
"152 131 LINE",
"153 78 OFFCURVE",
"145 52 OFFCURVE",
"123 22 CURVE SMOOTH",
"115 10 LINE",
"123 0 LINE",
"297 0 LINE",
"304 18 LINE",
"258 31 OFFCURVE",
"248 37 OFFCURVE",
"248 83 CURVE SMOOTH"
);
}
);
width = 402;
}
);
unicode = 0054;
},
{
glyphname = U;
lastChange = "2016-01-13 12:08:33 +0000";
layers = (
{
anchors = (
{
name = bottom;
position = "{241, 0}";
},
{
name = ogonek;
position = "{302, 0}";
},
{
name = top;
position = "{272, 467}";
},
{
name = topright;
position = "{468, 455}";
}
);
hints = (
{
horizontal = 1;
origin = "{0, 31}";
target = "{0, 14}";
},
{
horizontal = 1;
origin = "{0, 21}";
target = "{0, 23}";
},
{
origin = "{0, 28}";
target = "{0, 17}";
},
{
origin = "{0, 11}";
target = "{0, 34}";
}
);
layerId = "0A9CB6F6-DACD-44D2-9CB9-B84AA124B162";
paths = (
{
closed = 1;
nodes = (
"418 336 LINE",
"417 388 OFFCURVE",
"424 414 OFFCURVE",
"447 445 CURVE SMOOTH",
"456 456 LINE",
"447 467 LINE",
"331 467 LINE",
"324 449 LINE",
"372 435 OFFCURVE",
"385 427 OFFCURVE",
"385 384 CURVE SMOOTH",
"385 157 LINE SMOOTH",
"385 71 OFFCURVE",
"342 21 OFFCURVE",
"266 21 CURVE SMOOTH",
"200 21 OFFCURVE",
"164 68 OFFCURVE",
"164 157 CURVE SMOOTH",
"164 360 LINE SMOOTH",
"164 417 OFFCURVE",
"170 428 OFFCURVE",
"214 451 CURVE",
"207 467 LINE",
"32 467 LINE",
"25 454 LINE",
"61 423 OFFCURVE",
"68 406 OFFCURVE",
"68 345 CURVE SMOOTH",
"68 166 LINE SMOOTH",
"68 55 OFFCURVE",
"134 -9 OFFCURVE",
"245 -9 CURVE SMOOTH",
"358 -9 OFFCURVE",
"418 51 OFFCURVE",
"418 166 CURVE SMOOTH"
);
}
);
width = 481;
}
);
unicode = 0055;
},
{
glyphname = V;
lastChange = "2016-01-13 12:08:33 +0000";
layers = (
{
hints = (
{
horizontal = 1;
place = "{0.000000, 13.650000}";
},
{
horizontal = 1;
origin = "{0, 12}";
target = "{0, 11}";
}
);
layerId = "0A9CB6F6-DACD-44D2-9CB9-B84AA124B162";
paths = (
{
closed = 1;
nodes = (
"242 41 LINE",
"267 41 LINE",
"154 380 LINE SMOOTH",
"149 396 OFFCURVE",
"147 404 OFFCURVE",
"147 412 CURVE SMOOTH",
"147 430 OFFCURVE",
"154 439 OFFCURVE",
"175 445 CURVE SMOOTH",
"189 449 LINE",
"183 467 LINE",
"1 467 LINE",
"-7 456 LINE",
"26 431 OFFCURVE",
"38 414 OFFCURVE",
"51 377 CURVE SMOOTH",
"179 0 LINE",
"266 0 LINE",
"392 377 LINE SMOOTH",
"404 413 OFFCURVE",
"417 430 OFFCURVE",
"450 456 CURVE",
"442 467 LINE",
"322 467 LINE",
"315 449 LINE",
"333 442 LINE SMOOTH",
"354 436 OFFCURVE",
"361 427 OFFCURVE",
"361 411 CURVE SMOOTH",
"361 404 OFFCURVE",
"359 394 OFFCURVE",
"354 378 CURVE SMOOTH"
);
}
);
width = 452;
}
);
unicode = 0056;
},
{
glyphname = W;
lastChange = "2016-01-13 12:08:33 +0000";
layers = (
{
anchors = (
{
name = bottom;
position = "{351, 0}";
},
{
name = top;
position = "{351, 467}";
}
);
hints = (
{
horizontal = 1;
origin = "{0, 46}";
target = down;
type = TopGhost;
}
);
layerId = "0A9CB6F6-DACD-44D2-9CB9-B84AA124B162";
paths = (
{
closed = 1;
nodes = (
"266 0 LINE",
"361 319 LINE",
"338 319 LINE",
"435 0 LINE",
"521 0 LINE",
"647 377 LINE SMOOTH",
"660 413 OFFCURVE",
"672 430 OFFCURVE",
"706 456 CURVE",
"698 467 LINE",
"577 467 LINE",
"571 449 LINE",
"589 442 LINE SMOOTH",
"610 436 OFFCURVE",
"617 427 OFFCURVE",
"617 411 CURVE SMOOTH",
"617 404 OFFCURVE",
"615 394 OFFCURVE",
"610 378 CURVE SMOOTH",
"498 43 LINE",
"522 42 LINE",
"423 380 LINE SMOOTH",
"418 396 OFFCURVE",
"416 404 OFFCURVE",
"416 412 CURVE SMOOTH",
"416 430 OFFCURVE",
"423 439 OFFCURVE",
"444 445 CURVE SMOOTH",
"459 449 LINE",
"452 467 LINE",
"270 467 LINE",
"262 456 LINE",
"295 430 OFFCURVE",
"307 414 OFFCURVE",
"320 377 CURVE SMOOTH",
"331 342 LINE",
"242 42 LINE",
"267 43 LINE",
"154 380 LINE SMOOTH",
"149 396 OFFCURVE",
"147 404 OFFCURVE",
"147 412 CURVE SMOOTH",
"147 430 OFFCURVE",
"155 439 OFFCURVE",
"175 445 CURVE SMOOTH",
"189 449 LINE",
"183 467 LINE",
"1 467 LINE",
"-7 456 LINE",
"26 430 OFFCURVE",
"38 414 OFFCURVE",
"51 377 CURVE SMOOTH",
"179 0 LINE"
);
}
);
width = 701;
}
);
unicode = 0057;
},
{
glyphname = X;
lastChange = "2016-01-13 12:08:33 +0000";
layers = (
{
hints = (
{
horizontal = 1;
origin = "{2, 6}";
target = "{2, 8}";
},
{
horizontal = 1;
origin = "{0, 16}";
target = "{0, 15}";
}
);
layerId = "0A9CB6F6-DACD-44D2-9CB9-B84AA124B162";
paths = (
{
closed = 1;
nodes = (
"240 0 LINE",
"438 0 LINE",
"446 10 LINE",
"421 30 OFFCURVE",
"406 48 OFFCURVE",
"387 75 CURVE SMOOTH",
"191 374 LINE SMOOTH",
"179 393 OFFCURVE",
"172 410 OFFCURVE",
"172 420 CURVE SMOOTH",
"172 432 OFFCURVE",
"181 440 OFFCURVE",
"200 445 CURVE SMOOTH",
"215 449 LINE",
"210 467 LINE",
"12 467 LINE",
"4 456 LINE",
"25 439 OFFCURVE",
"46 415 OFFCURVE",
"65 387 CURVE SMOOTH",
"259 92 LINE SMOOTH",
"271 74 OFFCURVE",
"278 57 OFFCURVE",
"278 47 CURVE SMOOTH",
"278 35 OFFCURVE",
"268 27 OFFCURVE",
"250 22 CURVE SMOOTH",
"235 18 LINE"
);
},
{
closed = 1;
nodes = (
"241 221 LINE",
"373 410 LINE SMOOTH",
"387 430 OFFCURVE",
"398 439 OFFCURVE",
"419 445 CURVE SMOOTH",
"434 449 LINE",
"428 467 LINE",
"321 467 LINE",
"309 456 LINE",
"315 445 LINE SMOOTH",
"320 433 OFFCURVE",
"323 423 OFFCURVE",
"323 415 CURVE SMOOTH",
"323 403 OFFCURVE",
"320 395 OFFCURVE",
"309 379 CURVE SMOOTH",
"209 231 LINE"
);
},
{
closed = 1;
nodes = (
"200 246 LINE",
"68 57 LINE SMOOTH",
"54 37 OFFCURVE",
"43 28 OFFCURVE",
"22 22 CURVE SMOOTH",
"7 18 LINE",
"13 0 LINE",
"120 0 LINE",
"132 10 LINE",
"127 22 LINE SMOOTH",
"121 34 OFFCURVE",
"118 44 OFFCURVE",
"118 51 CURVE SMOOTH",
"118 64 OFFCURVE",
"121 72 OFFCURVE",
"132 88 CURVE SMOOTH",
"232 235 LINE"
);
}
);
width = 447;
}
);
unicode = 0058;
},
{
glyphname = Y;
lastChange = "2016-01-13 12:08:33 +0000";
layers = (
{
anchors = (
{
name = bottom;
position = "{202, 0}";
},
{
name = top;
position = "{220, 467}";
},
{
name = topleft;
position = "{13, 467}";
}
);
hints = (
{
horizontal = 1;
origin = "{0, 6}";
target = up;
type = BottomGhost;
},
{
horizontal = 1;
origin = "{1, 9}";
target = down;
type = TopGhost;
}
);
layerId = "0A9CB6F6-DACD-44D2-9CB9-B84AA124B162";
paths = (
{
closed = 1;
nodes = (
"152 220 LINE",
"152 131 LINE SMOOTH",
"152 78 OFFCURVE",
"145 52 OFFCURVE",
"122 22 CURVE SMOOTH",
"114 10 LINE",
"122 0 LINE",
"297 0 LINE",
"303 18 LINE",
"258 31 OFFCURVE",
"248 38 OFFCURVE",
"248 83 CURVE SMOOTH",
"248 220 LINE"
);
},
{
closed = 1;
nodes = (
"248 220 LINE",
"165 375 LINE SMOOTH",
"149 405 OFFCURVE",
"145 414 OFFCURVE",
"145 422 CURVE SMOOTH",
"145 433 OFFCURVE",
"155 441 OFFCURVE",
"174 445 CURVE SMOOTH",
"189 449 LINE",
"184 467 LINE",
"1 467 LINE",
"-8 456 LINE",
"19 436 OFFCURVE",
"35 417 OFFCURVE",
"57 374 CURVE SMOOTH",
"161 183 LINE",
"238 183 LINE",
"339 376 LINE SMOOTH",
"352 400 OFFCURVE",
"369 425 OFFCURVE",
"385 445 CURVE SMOOTH",
"395 456 LINE",
"387 467 LINE",
"272 467 LINE",
"266 449 LINE",
"285 445 LINE SMOOTH",
"301 441 OFFCURVE",
"313 427 OFFCURVE",
"313 410 CURVE SMOOTH",
"313 401 OFFCURVE",
"310 392 OFFCURVE",
"305 384 CURVE SMOOTH",
"219 220 LINE"
);
}
);
width = 405;
}
);
unicode = 0059;
},
{
glyphname = Z;
lastChange = "2016-01-13 12:08:33 +0000";
layers = (
{
anchors = (
{
name = bottom;
position = "{194, 0}";
},
{
name = top;
position = "{204, 467}";
}
);
hints = (
{
horizontal = 1;
origin = "{0, 23}";
target = "{0, 9}";
},
{
horizontal = 1;
place = "{143.975000, 7.800000}";
},
{
place = "{12.025000, 7.800000}";
},
{
place = "{108.225000, 7.800000}";
}
);
layerId = "0A9CB6F6-DACD-44D2-9CB9-B84AA124B162";
paths = (
{
closed = 1;
nodes = (
"314 0 OFFCURVE",
"337 -3 OFFCURVE",
"357 -17 CURVE",
"367 -8 LINE",
"367 112 LINE",
"347 119 LINE",
"324 51 OFFCURVE",
"305 25 OFFCURVE",
"265 25 CURVE SMOOTH",
"131 25 LINE",
"380 467 LINE",
"129 467 LINE SMOOTH",
"90 467 OFFCURVE",
"67 471 OFFCURVE",
"55 480 CURVE SMOOTH",
"43 489 LINE",
"33 480 LINE",
"33 355 LINE",
"52 348 LINE",
"75 418 OFFCURVE",
"94 442 OFFCURVE",
"138 442 CURVE SMOOTH",
"259 442 LINE",
"9 0 LINE",
"274 0 LINE SMOOTH"
);
}
);
width = 388;
}
);
unicode = 005A;
},
{
color = 4;
glyphname = a;
lastChange = "2016-01-13 17:58:12 +0000";
layers = (
{
anchors = (
{
name = bottom;
position = "{183, 0}";
},
{
name = ogonek;
position = "{324, 0}";
},
{
name = top;
position = "{168, 325}";
}
);
background = {
paths = (
{
closed = 1;
nodes = (
"198 309 OFFCURVE",
"213 282 OFFCURVE",
"213 217 CURVE SMOOTH",
"213 172 LINE",
"202 173 OFFCURVE",
"190 174 OFFCURVE",
"176 174 CURVE SMOOTH",
"82 174 OFFCURVE",
"24 136 OFFCURVE",
"24 76 CURVE SMOOTH",
"24 25 OFFCURVE",
"58 -9 OFFCURVE",
"108 -9 CURVE SMOOTH",
"153 -9 OFFCURVE",
"190 14 OFFCURVE",
"211 53 CURVE",
"215 53 LINE",
"219 10 OFFCURVE",
"239 -9 OFFCURVE",
"279 -9 CURVE SMOOTH",
"313 -9 OFFCURVE",
"342 4 OFFCURVE",
"367 32 CURVE",
"359 42 LINE",
"348 33 OFFCURVE",
"334 27 OFFCURVE",
"322 27 CURVE SMOOTH",
"309 27 OFFCURVE",
"302 37 OFFCURVE",
"302 57 CURVE SMOOTH",
"302 228 LINE SMOOTH",
"302 292 OFFCURVE",
"250 332 OFFCURVE",
"165 332 CURVE SMOOTH",
"94 332 OFFCURVE",
"44 301 OFFCURVE",
"44 256 CURVE SMOOTH",
"44 211 OFFCURVE",
"85 195 OFFCURVE",
"144 205 CURVE",
"146 212 LINE",
"130 223 OFFCURVE",
"121 243 OFFCURVE",
"121 266 CURVE SMOOTH",
"121 292 OFFCURVE",
"138 309 OFFCURVE",
"164 309 CURVE SMOOTH"
);
},
{
closed = 1;
nodes = (
"128 41 OFFCURVE",
"113 59 OFFCURVE",
"113 89 CURVE SMOOTH",
"113 141 OFFCURVE",
"157 153 OFFCURVE",
"213 153 CURVE",
"212 75 OFFCURVE",
"193 41 OFFCURVE",
"154 41 CURVE SMOOTH"
);
}
);
};
hints = (
{
horizontal = 1;
origin = "{1, 18}";
target = "{0, 8}";
},
{
horizontal = 1;
origin = "{0, 5}";
target = "{1, 12}";
},
{
horizontal = 1;
origin = "{1, 39}";
target = "{1, 5}";
},
{
origin = "{1, 15}";
target = "{0, 2}";
},
{
origin = "{1, 22}";
target = "{1, 35}";
},
{
origin = "{1, 42}";
target = "{1, 2}";
}
);
layerId = "0A9CB6F6-DACD-44D2-9CB9-B84AA124B162";
paths = (
{
closed = 1;
nodes = (
"128 41 OFFCURVE",
"113 58 OFFCURVE",
"113 85 CURVE SMOOTH",
"113 123 OFFCURVE",
"144 148 OFFCURVE",
"213 148 CURVE",
"213 74 OFFCURVE",
"191 41 OFFCURVE",
"154 41 CURVE SMOOTH"
);
},
{
closed = 1;
nodes = (
"125 233 OFFCURVE",
"121 249 OFFCURVE",
"121 266 CURVE SMOOTH",
"121 291 OFFCURVE",
"137 309 OFFCURVE",
"162 309 CURVE SMOOTH",
"198 309 OFFCURVE",
"213 282 OFFCURVE",
"213 217 CURVE SMOOTH",
"213 167 LINE",
"201 168 OFFCURVE",
"187 169 OFFCURVE",
"176 169 CURVE SMOOTH",
"82 169 OFFCURVE",
"24 133 OFFCURVE",
"24 76 CURVE SMOOTH",
"24 25 OFFCURVE",
"58 -9 OFFCURVE",
"108 -9 CURVE SMOOTH",
"153 -9 OFFCURVE",
"190 14 OFFCURVE",
"211 53 CURVE",
"215 53 LINE",
"219 10 OFFCURVE",
"239 -9 OFFCURVE",
"279 -9 CURVE SMOOTH",
"314 -9 OFFCURVE",
"342 4 OFFCURVE",
"367 32 CURVE",
"359 42 LINE",
"348 33 OFFCURVE",
"334 27 OFFCURVE",
"322 27 CURVE SMOOTH",
"308 27 OFFCURVE",
"302 36 OFFCURVE",
"302 55 CURVE SMOOTH",
"302 228 LINE SMOOTH",
"302 292 OFFCURVE",
"250 332 OFFCURVE",
"165 332 CURVE SMOOTH",
"93 332 OFFCURVE",
"44 302 OFFCURVE",
"44 257 CURVE SMOOTH",
"44 225 OFFCURVE",
"62 209 OFFCURVE",
"89 209 CURVE SMOOTH",
"113 209 OFFCURVE",
"127 214 OFFCURVE",
"139 221 CURVE"
);
}
);
width = 365;
},
{
anchors = (
{
name = bottom;
position = "{183, 0}";
},
{
name = ogonek;
position = "{324, 0}";
},
{
name = top;
position = "{168, 325}";
}
);
associatedMasterId = "0A9CB6F6-DACD-44D2-9CB9-B84AA124B162";
hints = (
{
horizontal = 1;
origin = "{0, 12}";
target = "{1, 8}";
},
{
horizontal = 1;
origin = "{1, 5}";
target = "{0, 6}";
},
{
horizontal = 1;
origin = "{0, 33}";
target = "{0, 49}";
},
{
origin = "{0, 9}";
target = "{1, 2}";
},
{
origin = "{0, 16}";
target = "{0, 29}";
},
{
origin = "{0, 36}";
target = "{0, 46}";
}
);
layerId = "D3B3D818-69E4-4C7B-943B-F8128DA01C8F";
name = "Bold Jan 13 16, 14:25";
paths = (
{
closed = 1;
nodes = (
"198 309 OFFCURVE",
"213 282 OFFCURVE",
"213 217 CURVE SMOOTH",
"213 172 LINE",
"202 173 OFFCURVE",
"190 174 OFFCURVE",
"176 174 CURVE SMOOTH",
"82 174 OFFCURVE",
"24 136 OFFCURVE",
"24 76 CURVE SMOOTH",
"24 25 OFFCURVE",
"58 -9 OFFCURVE",
"108 -9 CURVE SMOOTH",
"153 -9 OFFCURVE",
"190 14 OFFCURVE",
"211 53 CURVE",
"215 53 LINE",
"219 10 OFFCURVE",
"239 -9 OFFCURVE",
"279 -9 CURVE SMOOTH",
"313 -9 OFFCURVE",
"342 4 OFFCURVE",
"367 32 CURVE",
"359 42 LINE",
"348 33 OFFCURVE",
"334 27 OFFCURVE",
"322 27 CURVE SMOOTH",
"309 27 OFFCURVE",
"302 37 OFFCURVE",
"302 57 CURVE SMOOTH",
"302 228 LINE SMOOTH",
"302 292 OFFCURVE",
"250 332 OFFCURVE",
"165 332 CURVE SMOOTH",
"94 332 OFFCURVE",
"44 301 OFFCURVE",
"44 256 CURVE SMOOTH",
"44 225 OFFCURVE",
"66 205 OFFCURVE",
"102 202 CURVE SMOOTH",
"114 201 OFFCURVE",
"127 202 OFFCURVE",
"144 205 CURVE",
"146 212 LINE",
"130 223 OFFCURVE",
"121 243 OFFCURVE",
"121 266 CURVE SMOOTH",
"121 292 OFFCURVE",
"138 309 OFFCURVE",
"164 309 CURVE SMOOTH"
);
},
{
closed = 1;
nodes = (
"128 41 OFFCURVE",
"113 59 OFFCURVE",
"113 89 CURVE SMOOTH",
"113 141 OFFCURVE",
"157 153 OFFCURVE",
"213 153 CURVE",
"212 75 OFFCURVE",
"193 41 OFFCURVE",
"154 41 CURVE SMOOTH"
);
}
);
width = 365;
}
);
unicode = 0061;
},
{
color = 4;
glyphname = ae;
lastChange = "2016-01-13 17:48:41 +0000";
layers = (
{
anchors = (
{
name = bottom;
position = "{268, 0}";
},
{
name = top;
position = "{268, 325}";
}
);
hints = (
{
horizontal = 1;
origin = "{1, 40}";
target = "{0, 15}";
},
{
horizontal = 1;
origin = "{1, 18}";
target = "{1, 34}";
},
{
horizontal = 1;
origin = "{1, 48}";
target = "{0, 21}";
},
{
horizontal = 1;
origin = "{0, 34}";
target = "{0, 30}";
},
{
origin = "{1, 37}";
target = "{1, 27}";
},
{
origin = "{1, 18}";
target = "{0, 18}";
},
{
origin = "{0, 24}";
target = "{0, 37}";
},
{
origin = "{1, 37}";
target = "{1, 27}";
}
);
layerId = "0A9CB6F6-DACD-44D2-9CB9-B84AA124B162";
paths = (
{
closed = 1;
nodes = (
"514 290 OFFCURVE",
"464 332 OFFCURVE",
"386 332 CURVE SMOOTH",
"283 332 OFFCURVE",
"217 264 OFFCURVE",
"217 161 CURVE SMOOTH",
"217 62 OFFCURVE",
"283 -9 OFFCURVE",
"375 -9 CURVE SMOOTH",
"440 -9 OFFCURVE",
"485 24 OFFCURVE",
"510 61 CURVE",
"498 70 LINE",
"476 45 OFFCURVE",
"450 24 OFFCURVE",
"405 24 CURVE SMOOTH",
"344 24 OFFCURVE",
"310 83 OFFCURVE",
"310 166 CURVE SMOOTH",
"310 253 OFFCURVE",
"335 308 OFFCURVE",
"375 308 CURVE SMOOTH",
"409 308 OFFCURVE",
"427 275 OFFCURVE",
"427 239 CURVE SMOOTH",
"427 203 OFFCURVE",
"406 169 OFFCURVE",
"338 162 CURVE SMOOTH",
"323 160 OFFCURVE",
"306 160 OFFCURVE",
"287 160 CURVE",
"287 150 LINE",
"316 145 OFFCURVE",
"341 142 OFFCURVE",
"363 142 CURVE SMOOTH",
"474 142 OFFCURVE",
"514 189 OFFCURVE",
"514 237 CURVE SMOOTH"
);
},
{
closed = 1;
nodes = (
"93 332 OFFCURVE",
"44 302 OFFCURVE",
"44 257 CURVE SMOOTH",
"44 225 OFFCURVE",
"62 209 OFFCURVE",
"89 209 CURVE SMOOTH",
"113 209 OFFCURVE",
"127 214 OFFCURVE",
"139 221 CURVE",
"125 233 OFFCURVE",
"121 249 OFFCURVE",
"121 266 CURVE SMOOTH",
"121 291 OFFCURVE",
"137 309 OFFCURVE",
"162 309 CURVE SMOOTH",
"198 309 OFFCURVE",
"213 282 OFFCURVE",
"213 217 CURVE SMOOTH",
"213 151 LINE SMOOTH",
"213 77 OFFCURVE",
"192 53 OFFCURVE",
"167 45 CURVE SMOOTH",
"159 42 OFFCURVE",
"151 42 OFFCURVE",
"144 43 CURVE SMOOTH",
"126 45 OFFCURVE",
"113 60 OFFCURVE",
"113 89 CURVE SMOOTH",
"113 146 OFFCURVE",
"179 158 OFFCURVE",
"258 147 CURVE",
"257 158 LINE",
"229 167 OFFCURVE",
"201 169 OFFCURVE",
"176 169 CURVE SMOOTH",
"76 169 OFFCURVE",
"24 130 OFFCURVE",
"24 76 CURVE SMOOTH",
"24 20 OFFCURVE",
"61 -9 OFFCURVE",
"111 -9 CURVE SMOOTH",
"158 -9 OFFCURVE",
"213 17 OFFCURVE",
"232 105 CURVE",
"302 69 LINE",
"302 228 LINE SMOOTH",
"302 296 OFFCURVE",
"244 332 OFFCURVE",
"165 332 CURVE SMOOTH"
);
}
);
width = 535;
}
);
leftMetricsKey = a;
rightMetricsKey = e;
unicode = 00E6;
},
{
glyphname = b;
lastChange = "2016-01-13 12:08:33 +0000";
layers = (
{
hints = (
{
horizontal = 1;
origin = "{0, 24}";
target = "{0, 5}";
},
{
horizontal = 1;
origin = "{0, 30}";
target = "{0, 37}";
},
{
horizontal = 1;
origin = "{0, 16}";
target = "{0, 12}";
},
{
origin = "{0, 21}";
target = "{0, 8}";
},
{
origin = "{0, 2}";
target = "{0, 27}";
}
);
layerId = "0A9CB6F6-DACD-44D2-9CB9-B84AA124B162";
paths = (
{
closed = 1;
nodes = (
"243 303 OFFCURVE",
"271 252 OFFCURVE",
"271 157 CURVE SMOOTH",
"271 61 OFFCURVE",
"244 14 OFFCURVE",
"188 14 CURVE SMOOTH",
"171 14 OFFCURVE",
"156 18 OFFCURVE",
"143 24 CURVE",
"143 469 LINE SMOOTH",
"143 482 OFFCURVE",
"132 490 OFFCURVE",
"115 490 CURVE SMOOTH",
"75 490 OFFCURVE",
"31 475 OFFCURVE",
"5 451 CURVE",
"8 441 LINE",
"39 441 LINE SMOOTH",
"49 441 OFFCURVE",
"52 437 OFFCURVE",
"52 427 CURVE SMOOTH",
"52 32 LINE",
"83 7 OFFCURVE",
"135 -9 OFFCURVE",
"183 -9 CURVE SMOOTH",
"291 -9 OFFCURVE",
"371 69 OFFCURVE",
"371 174 CURVE SMOOTH",
"371 265 OFFCURVE",
"311 332 OFFCURVE",
"229 332 CURVE SMOOTH",
"191 332 OFFCURVE",
"157 319 OFFCURVE",
"137 294 CURVE",
"142 287 LINE",
"155 297 OFFCURVE",
"173 303 OFFCURVE",
"190 303 CURVE SMOOTH"
);
}
);
width = 395;
}
);
unicode = 0062;
},
{
color = 4;
glyphname = c;
lastChange = "2016-01-13 17:48:41 +0000";
layers = (
{
anchors = (
{
name = bottom;
position = "{169, 0}";
},
{
name = top;
position = "{185, 325}";
}
);
background = {
paths = (
{
closed = 1;
nodes = (
"229 241 LINE",
"229 220 OFFCURVE",
"224 200 OFFCURVE",
"207 185 CURVE",
"221 177 OFFCURVE",
"235 171 OFFCURVE",
"263 171 CURVE SMOOTH",
"296 171 OFFCURVE",
"318 190 OFFCURVE",
"318 230 CURVE"
);
}
);
};
hints = (
{
origin = "{0, 6}";
target = "{0, 19}";
},
{
origin = "{0, 25}";
target = "{0, 0}";
},
{
horizontal = 1;
origin = "{0, 9}";
target = "{0, 16}";
},
{
horizontal = 1;
origin = "{0, 22}";
target = "{0, 3}";
}
);
layerId = "0A9CB6F6-DACD-44D2-9CB9-B84AA124B162";
paths = (
{
closed = 1;
nodes = (
"318 296 OFFCURVE",
"268 332 OFFCURVE",
"195 332 CURVE SMOOTH",
"91 332 OFFCURVE",
"23 264 OFFCURVE",
"23 159 CURVE SMOOTH",
"23 61 OFFCURVE",
"89 -9 OFFCURVE",
"183 -9 CURVE SMOOTH",
"247 -9 OFFCURVE",
"292 23 OFFCURVE",
"317 59 CURVE",
"305 67 LINE",
"283 43 OFFCURVE",
"257 24 OFFCURVE",
"213 24 CURVE SMOOTH",
"155 24 OFFCURVE",
"123 80 OFFCURVE",
"123 161 CURVE SMOOTH",
"123 248 OFFCURVE",
"147 307 OFFCURVE",
"182 307 CURVE SMOOTH",
"214 307 OFFCURVE",
"229 277 OFFCURVE",
"229 241 CURVE SMOOTH",
"229 212 OFFCURVE",
"218 195 OFFCURVE",
"207 185 CURVE",
"220 177 OFFCURVE",
"235 173 OFFCURVE",
"249 173 CURVE SMOOTH",
"285 173 OFFCURVE",
"318 198 OFFCURVE",
"318 244 CURVE SMOOTH"
);
}
);
width = 336;
}
);
unicode = 0063;
},
{
glyphname = d;
lastChange = "2016-01-13 12:08:33 +0000";
layers = (
{
anchors = (
{
name = bottom;
position = "{204, 0}";
},
{
name = center;
position = "{270, 382}";
},
{
name = top;
position = "{204, 325}";
},
{
name = topright;
position = "{354, 325}";
}
);
hints = (
{
horizontal = 1;
origin = "{0, 9}";
target = "{0, 41}";
},
{
horizontal = 1;
origin = "{0, 3}";
target = "{0, 47}";
},
{
horizontal = 1;
origin = "{0, 33}";
target = "{0, 29}";
},
{
origin = "{0, 6}";
target = "{0, 44}";
},
{
origin = "{0, 12}";
target = "{0, 25}";
}
);
layerId = "0A9CB6F6-DACD-44D2-9CB9-B84AA124B162";
paths = (
{
closed = 1;
nodes = (
"272 301 LINE",
"253 319 OFFCURVE",
"219 332 OFFCURVE",
"187 332 CURVE SMOOTH",
"86 332 OFFCURVE",
"23 261 OFFCURVE",
"23 149 CURVE SMOOTH",
"23 55 OFFCURVE",
"69 -9 OFFCURVE",
"136 -9 CURVE SMOOTH",
"181 -9 OFFCURVE",
"217 9 OFFCURVE",
"252 49 CURVE",
"258 8 OFFCURVE",
"277 -9 OFFCURVE",
"318 -9 CURVE SMOOTH",
"352 -9 OFFCURVE",
"380 4 OFFCURVE",
"405 32 CURVE",
"397 42 LINE",
"386 33 OFFCURVE",
"372 27 OFFCURVE",
"360 27 CURVE SMOOTH",
"347 27 OFFCURVE",
"341 38 OFFCURVE",
"341 57 CURVE SMOOTH",
"341 469 LINE SMOOTH",
"341 482 OFFCURVE",
"329 490 OFFCURVE",
"312 490 CURVE SMOOTH",
"273 490 OFFCURVE",
"227 475 OFFCURVE",
"200 451 CURVE",
"204 441 LINE",
"238 441 LINE SMOOTH",
"247 441 OFFCURVE",
"251 437 OFFCURVE",
"251 427 CURVE SMOOTH",
"251 81 LINE",
"235 54 OFFCURVE",
"213 39 OFFCURVE",
"188 39 CURVE SMOOTH",
"146 39 OFFCURVE",
"123 82 OFFCURVE",
"123 161 CURVE SMOOTH",
"123 258 OFFCURVE",
"152 306 OFFCURVE",
"207 306 CURVE SMOOTH",
"229 306 OFFCURVE",
"251 299 OFFCURVE",
"269 285 CURVE"
);
}
);
width = 408;
}
);
unicode = 0064;
},
{
glyphname = eth;
lastChange = "2016-01-13 12:08:33 +0000";
layers = (
{
components = (
{
name = eslash;
transform = "{0.9, 0, 0, 0.9, 160, 211}";
}
);
hints = (
{
horizontal = 1;
origin = "{0, 15}";
target = "{1, 8}";
},
{
horizontal = 1;
origin = "{1, 2}";
target = "{0, 9}";
},
{
horizontal = 1;
origin = "{0, 27}";
target = "{0, 28}";
},
{
horizontal = 1;
origin = "{0, 2}";
target = "{0, 21}";
},
{
origin = "{0, 24}";
target = "{0, 31}";
},
{
origin = "{1, 5}";
target = "{0, 18}";
},
{
origin = "{0, 12}";
target = "{1, 11}";
}
);
layerId = "0A9CB6F6-DACD-44D2-9CB9-B84AA124B162";
paths = (
{
closed = 1;
nodes = (
"109 466 OFFCURVE",
"127 489 OFFCURVE",
"154 489 CURVE SMOOTH",
"198 489 OFFCURVE",
"241 430 OFFCURVE",
"261 287 CURVE",
"257 285 LINE",
"234 308 OFFCURVE",
"207 319 OFFCURVE",
"171 319 CURVE SMOOTH",
"80 319 OFFCURVE",
"23 254 OFFCURVE",
"23 155 CURVE SMOOTH",
"23 55 OFFCURVE",
"89 -9 OFFCURVE",
"196 -9 CURVE SMOOTH",
"306 -9 OFFCURVE",
"369 58 OFFCURVE",
"369 175 CURVE SMOOTH",
"369 355 OFFCURVE",
"271 514 OFFCURVE",
"160 514 CURVE SMOOTH",
"84 514 OFFCURVE",
"31 478 OFFCURVE",
"31 426 CURVE SMOOTH",
"31 379 OFFCURVE",
"69 349 OFFCURVE",
"130 349 CURVE",
"133 358 LINE",
"118 372 OFFCURVE",
"109 400 OFFCURVE",
"109 430 CURVE SMOOTH"
);
},
{
closed = 1;
nodes = (
"122 233 OFFCURVE",
"152 287 OFFCURVE",
"198 287 CURVE SMOOTH",
"243 287 OFFCURVE",
"274 230 OFFCURVE",
"274 146 CURVE SMOOTH",
"274 67 OFFCURVE",
"244 13 OFFCURVE",
"199 13 CURVE SMOOTH",
"153 13 OFFCURVE",
"122 67 OFFCURVE",
"122 149 CURVE SMOOTH"
);
}
);
width = 394;
}
);
unicode = 00F0;
},
{
glyphname = e;
lastChange = "2016-01-13 12:08:33 +0000";
layers = (
{
anchors = (
{
name = bottom;
position = "{173, 0}";
},
{
name = ogonek;
position = "{254, 7}";
},
{
name = top;
position = "{187, 325}";
}
);
hints = (
{
horizontal = 1;
origin = "{0, 8}";
target = "{0, 15}";
},
{
horizontal = 1;
origin = "{0, 34}";
target = "{0, 27}";
},
{
horizontal = 1;
origin = "{0, 2}";
target = "{0, 21}";
},
{
origin = "{0, 5}";
target = "{0, 18}";
},
{
origin = "{0, 24}";
target = "{0, 37}";
}
);
layerId = "0A9CB6F6-DACD-44D2-9CB9-B84AA124B162";
paths = (
{
closed = 1;
nodes = (
"324 293 OFFCURVE",
"271 332 OFFCURVE",
"197 332 CURVE SMOOTH",
"91 332 OFFCURVE",
"23 265 OFFCURVE",
"23 161 CURVE SMOOTH",
"23 62 OFFCURVE",
"91 -9 OFFCURVE",
"184 -9 CURVE SMOOTH",
"240 -9 OFFCURVE",
"289 17 OFFCURVE",
"320 61 CURVE",
"308 70 LINE",
"280 37 OFFCURVE",
"252 24 OFFCURVE",
"214 24 CURVE SMOOTH",
"157 24 OFFCURVE",
"120 79 OFFCURVE",
"120 166 CURVE SMOOTH",
"120 255 OFFCURVE",
"145 308 OFFCURVE",
"186 308 CURVE SMOOTH",
"214 308 OFFCURVE",
"234 279 OFFCURVE",
"234 239 CURVE SMOOTH",
"234 190 OFFCURVE",
"203 159 OFFCURVE",
"147 152 CURVE SMOOTH",
"134 150 OFFCURVE",
"118 150 OFFCURVE",
"98 150 CURVE",
"98 140 LINE",
"123 135 OFFCURVE",
"149 132 OFFCURVE",
"173 132 CURVE SMOOTH",
"266 132 OFFCURVE",
"324 173 OFFCURVE",
"324 237 CURVE SMOOTH"
);
}
);
width = 345;
}
);
unicode = 0065;
},
{
color = 4;
glyphname = f;
lastChange = "2016-01-13 17:48:41 +0000";
layers = (
{
background = {
paths = (
{
closed = 1;
nodes = (
"151 282 LINE",
"209 282 LINE",
"219 289 OFFCURVE",
"224 304 OFFCURVE",
"224 321 CURVE",
"151 321 LINE",
"151 395 LINE SMOOTH",
"151 446 OFFCURVE",
"166 475 OFFCURVE",
"193 475 CURVE SMOOTH",
"214 475 OFFCURVE",
"227 455 OFFCURVE",
"227 423 CURVE SMOOTH",
"227 395 OFFCURVE",
"218 371 OFFCURVE",
"202 357 CURVE",
"204 351 LINE",
"261 355 OFFCURVE",
"304 388 OFFCURVE",
"304 430 CURVE SMOOTH",
"304 471 OFFCURVE",
"264 499 OFFCURVE",
"205 499 CURVE SMOOTH",
"112 499 OFFCURVE",
"60 436 OFFCURVE",
"60 321 CURVE",
"23 312 LINE SMOOTH",
"10 308 OFFCURVE",
"9 305 OFFCURVE",
"9 282 CURVE",
"60 282 LINE",
"60 105 LINE SMOOTH",
"60 62 OFFCURVE",
"54 41 OFFCURVE",
"39 20 CURVE SMOOTH",
"31 10 LINE",
"39 0 LINE",
"195 0 LINE",
"201 17 LINE",
"188 20 LINE SMOOTH",
"156 27 OFFCURVE",
"151 34 OFFCURVE",
"151 66 CURVE SMOOTH"
);
},
{
closed = 1;
nodes = (
"227 406 OFFCURVE",
"223 390 OFFCURVE",
"209 378 CURVE",
"221 371 OFFCURVE",
"235 366 OFFCURVE",
"259 366 CURVE SMOOTH",
"286 366 OFFCURVE",
"304 382 OFFCURVE",
"304 414 CURVE",
"227 423 LINE"
);
}
);
};
hints = (
{
horizontal = 1;
origin = "{0, 31}";
target = "{0, 27}";
},
{
horizontal = 1;
origin = "{0, 9}";
target = "{0, 24}";
},
{
origin = "{0, 33}";
target = "{0, 44}";
},
{
origin = "{0, 12}";
target = "{0, 21}";
}
);
layerId = "0A9CB6F6-DACD-44D2-9CB9-B84AA124B162";
paths = (
{
closed = 1;
nodes = (
"151 282 LINE",
"209 282 LINE",
"219 289 OFFCURVE",
"224 304 OFFCURVE",
"224 321 CURVE",
"151 321 LINE",
"151 395 LINE SMOOTH",
"151 446 OFFCURVE",
"166 475 OFFCURVE",
"193 475 CURVE SMOOTH",
"214 475 OFFCURVE",
"227 455 OFFCURVE",
"227 423 CURVE SMOOTH",
"227 395 OFFCURVE",
"216 384 OFFCURVE",
"209 378 CURVE",
"222 372 OFFCURVE",
"235 370 OFFCURVE",
"246 370 CURVE SMOOTH",
"280 370 OFFCURVE",
"304 393 OFFCURVE",
"304 430 CURVE SMOOTH",
"304 471 OFFCURVE",
"264 499 OFFCURVE",
"205 499 CURVE SMOOTH",
"112 499 OFFCURVE",
"60 436 OFFCURVE",
"60 321 CURVE",
"23 312 LINE SMOOTH",
"10 308 OFFCURVE",
"9 305 OFFCURVE",
"9 282 CURVE",
"60 282 LINE",
"60 105 LINE SMOOTH",
"60 62 OFFCURVE",
"54 41 OFFCURVE",
"39 20 CURVE SMOOTH",
"31 10 LINE",
"39 0 LINE",
"195 0 LINE",
"201 17 LINE",
"188 20 LINE SMOOTH",
"156 27 OFFCURVE",
"151 34 OFFCURVE",
"151 66 CURVE SMOOTH"
);
}
);
width = 226;
}
);
unicode = 0066;
},
{
color = 4;
glyphname = g;
lastChange = "2016-01-13 17:48:41 +0000";
layers = (
{
anchors = (
{
name = bottom;
position = "{199, 0}";
},
{
name = top;
position = "{205, 325}";
}
);
hints = (
{
horizontal = 1;
origin = "{0, 11}";
target = "{0, 36}";
},
{
horizontal = 1;
origin = "{0, 23}";
target = "{1, 5}";
},
{
horizontal = 1;
origin = "{0, 29}";
target = "{1, 12}";
},
{
origin = "{0, 8}";
target = "{0, 39}";
},
{
origin = "{1, 9}";
target = "{0, 14}";
},
{
origin = "{0, 26}";
target = "{1, 2}";
}
);
layerId = "0A9CB6F6-DACD-44D2-9CB9-B84AA124B162";
paths = (
{
closed = 1;
nodes = (
"134 -73 OFFCURVE",
"140 -57 OFFCURVE",
"152 -45 CURVE",
"141 -40 OFFCURVE",
"128 -37 OFFCURVE",
"115 -37 CURVE SMOOTH",
"80 -37 OFFCURVE",
"57 -61 OFFCURVE",
"57 -97 CURVE SMOOTH",
"57 -138 OFFCURVE",
"103 -166 OFFCURVE",
"169 -166 CURVE SMOOTH",
"277 -166 OFFCURVE",
"341 -105 OFFCURVE",
"341 0 CURVE SMOOTH",
"341 270 LINE SMOOTH",
"341 280 OFFCURVE",
"343 286 OFFCURVE",
"350 295 CURVE SMOOTH",
"358 307 LINE",
"350 315 LINE",
"304 319 OFFCURVE",
"255 332 OFFCURVE",
"211 332 CURVE SMOOTH",
"100 332 OFFCURVE",
"30 265 OFFCURVE",
"30 159 CURVE SMOOTH",
"30 70 OFFCURVE",
"74 10 OFFCURVE",
"140 10 CURVE SMOOTH",
"184 10 OFFCURVE",
"219 28 OFFCURVE",
"252 67 CURVE",
"252 -30 LINE SMOOTH",
"252 -106 OFFCURVE",
"229 -144 OFFCURVE",
"182 -144 CURVE SMOOTH",
"154 -144 OFFCURVE",
"134 -123 OFFCURVE",
"134 -94 CURVE SMOOTH"
);
},
{
closed = 1;
nodes = (
"151 58 OFFCURVE",
"130 101 OFFCURVE",
"130 178 CURVE SMOOTH",
"130 264 OFFCURVE",
"157 309 OFFCURVE",
"207 309 CURVE SMOOTH",
"221 309 OFFCURVE",
"237 305 OFFCURVE",
"251 299 CURVE",
"251 100 LINE",
"236 73 OFFCURVE",
"214 58 OFFCURVE",
"188 58 CURVE SMOOTH"
);
}
);
width = 397;
}
);
unicode = 0067;
},
{
glyphname = h;
lastChange = "2016-01-13 12:08:33 +0000";
layers = (
{
anchors = (
{
name = bottom;
position = "{217, 0}";
},
{
name = center;
position = "{130, 382}";
},
{
name = top;
position = "{104, 467}";
}
);
hints = (
{
horizontal = 1;
origin = "{0, 40}";
target = "{0, 47}";
},
{
horizontal = 1;
origin = "{0, 3}";
target = "{0, 33}";
},
{
horizontal = 1;
origin = "{0, 14}";
target = "{0, 10}";
},
{
origin = "{0, 19}";
target = "{0, 30}";
},
{
origin = "{0, 37}";
target = "{0, 50}";
}
);
layerId = "0A9CB6F6-DACD-44D2-9CB9-B84AA124B162";
paths = (
{
closed = 1;
nodes = (
"364 215 LINE SMOOTH",
"364 296 OFFCURVE",
"339 332 OFFCURVE",
"282 332 CURVE SMOOTH",
"229 332 OFFCURVE",
"175 284 OFFCURVE",
"157 222 CURVE",
"157 469 LINE SMOOTH",
"157 482 OFFCURVE",
"145 490 OFFCURVE",
"128 490 CURVE SMOOTH",
"88 490 OFFCURVE",
"44 475 OFFCURVE",
"18 451 CURVE",
"22 441 LINE",
"53 441 LINE SMOOTH",
"61 441 OFFCURVE",
"66 434 OFFCURVE",
"66 423 CURVE SMOOTH",
"66 66 LINE SMOOTH",
"66 33 OFFCURVE",
"62 25 OFFCURVE",
"40 20 CURVE SMOOTH",
"26 17 LINE",
"32 0 LINE",
"177 0 LINE",
"185 10 LINE",
"177 20 LINE SMOOTH",
"162 42 OFFCURVE",
"157 63 OFFCURVE",
"157 104 CURVE SMOOTH",
"157 209 OFFCURVE",
"189 281 OFFCURVE",
"237 281 CURVE SMOOTH",
"261 281 OFFCURVE",
"274 261 OFFCURVE",
"274 223 CURVE SMOOTH",
"274 70 LINE SMOOTH",
"274 14 OFFCURVE",
"293 -9 OFFCURVE",
"341 -9 CURVE SMOOTH",
"375 -9 OFFCURVE",
"403 4 OFFCURVE",
"428 32 CURVE",
"420 42 LINE",
"409 33 OFFCURVE",
"395 27 OFFCURVE",
"383 27 CURVE SMOOTH",
"371 27 OFFCURVE",
"364 37 OFFCURVE",
"364 57 CURVE SMOOTH"
);
}
);
width = 435;
}
);
unicode = 0068;
},
{
glyphname = idotless;
lastChange = "2016-01-13 12:08:33 +0000";
layers = (
{
anchors = (
{
name = bottom;
position = "{106, 0}";
},
{
name = ogonek;
position = "{183, 7}";
},
{
name = top;
position = "{106, 325}";
}
);
hints = (
{
horizontal = 1;
place = "{158.925000, -20.000000}";
target = down;
type = TopGhost;
},
{
horizontal = 1;
origin = "{0, 15}";
target = "{0, 22}";
},
{
horizontal = 1;
origin = "{0, 3}";
target = down;
type = TopGhost;
}
);
layerId = "0A9CB6F6-DACD-44D2-9CB9-B84AA124B162";
paths = (
{
closed = 1;
nodes = (
"149 310 LINE SMOOTH",
"149 323 OFFCURVE",
"137 332 OFFCURVE",
"121 332 CURVE SMOOTH",
"81 332 OFFCURVE",
"37 316 OFFCURVE",
"11 293 CURVE",
"14 282 LINE",
"45 282 LINE SMOOTH",
"54 282 OFFCURVE",
"58 278 OFFCURVE",
"58 268 CURVE SMOOTH",
"58 70 LINE SMOOTH",
"58 14 OFFCURVE",
"78 -9 OFFCURVE",
"126 -9 CURVE SMOOTH",
"159 -9 OFFCURVE",
"188 4 OFFCURVE",
"213 32 CURVE",
"205 42 LINE",
"194 33 OFFCURVE",
"180 27 OFFCURVE",
"168 27 CURVE SMOOTH",
"155 27 OFFCURVE",
"149 37 OFFCURVE",
"149 57 CURVE SMOOTH"
);
}
);
width = 212;
}
);
unicode = 0131;
},
{
color = 4;
glyphname = jdotless;
lastChange = "2016-01-13 17:48:41 +0000";
layers = (
{
anchors = (
{
name = bottom;
position = "{104, 0}";
},
{
name = top;
position = "{104, 325}";
}
);
background = {
paths = (
{
closed = 1;
nodes = (
"97 -166 OFFCURVE",
"150 -109 OFFCURVE",
"150 0 CURVE SMOOTH",
"150 310 LINE SMOOTH",
"150 324 OFFCURVE",
"138 332 OFFCURVE",
"121 332 CURVE SMOOTH",
"81 332 OFFCURVE",
"35 314 OFFCURVE",
"11 293 CURVE",
"14 282 LINE",
"45 282 LINE SMOOTH",
"54 282 OFFCURVE",
"58 278 OFFCURVE",
"58 268 CURVE SMOOTH",
"58 -77 LINE SMOOTH",
"58 -122 OFFCURVE",
"45 -143 OFFCURVE",
"22 -143 CURVE SMOOTH",
"-2 -143 OFFCURVE",
"-11 -118 OFFCURVE",
"-11 -91 CURVE SMOOTH",
"-11 -68 OFFCURVE",
"-3 -44 OFFCURVE",
"14 -31 CURVE",
"12 -24 LINE",
"-29 -28 OFFCURVE",
"-80 -51 OFFCURVE",
"-80 -98 CURVE SMOOTH",
"-80 -139 OFFCURVE",
"-40 -166 OFFCURVE",
"16 -166 CURVE SMOOTH"
);
},
{
closed = 0;
nodes = (
"-11 -94 LINE",
"-11 -73 OFFCURVE",
"-5 -57 OFFCURVE",
"7 -45 CURVE",
"-4 -40 OFFCURVE",
"-17 -37 OFFCURVE",
"-30 -37 CURVE SMOOTH",
"-65 -37 OFFCURVE",
"-88 -61 OFFCURVE",
"-88 -97 CURVE"
);
}
);
};
hints = (
{
horizontal = 1;
origin = "{0, 2}";
target = "{0, 21}";
},
{
horizontal = 1;
origin = "{0, 9}";
target = down;
type = TopGhost;
},
{
horizontal = 1;
origin = "{0, 9}";
target = "{0, 13}";
},
{
origin = "{0, 33}";
target = "{0, 24}";
},
{
origin = "{0, 18}";
target = "{0, 5}";
}
);
layerId = "0A9CB6F6-DACD-44D2-9CB9-B84AA124B162";
paths = (
{
closed = 1;
nodes = (
"-88 -139 OFFCURVE",
"-45 -166 OFFCURVE",
"16 -166 CURVE SMOOTH",
"97 -166 OFFCURVE",
"150 -109 OFFCURVE",
"150 0 CURVE SMOOTH",
"150 310 LINE SMOOTH",
"150 324 OFFCURVE",
"138 332 OFFCURVE",
"121 332 CURVE SMOOTH",
"81 332 OFFCURVE",
"35 314 OFFCURVE",
"11 293 CURVE",
"14 282 LINE",
"45 282 LINE SMOOTH",
"54 282 OFFCURVE",
"58 278 OFFCURVE",
"58 268 CURVE SMOOTH",
"58 -77 LINE SMOOTH",
"58 -122 OFFCURVE",
"45 -143 OFFCURVE",
"22 -143 CURVE SMOOTH",
"-2 -143 OFFCURVE",
"-11 -120 OFFCURVE",
"-11 -95 CURVE SMOOTH",
"-11 -76 OFFCURVE",
"-5 -56 OFFCURVE",
"7 -45 CURVE",
"-4 -40 OFFCURVE",
"-17 -37 OFFCURVE",
"-30 -37 CURVE SMOOTH",
"-65 -37 OFFCURVE",
"-88 -61 OFFCURVE",
"-88 -97 CURVE SMOOTH"
);
}
);
width = 197;
}
);
unicode = 0237;
},
{
glyphname = k;
lastChange = "2016-01-13 12:08:33 +0000";
layers = (
{
anchors = (
{
name = bottom;
position = "{192, 0}";
},
{
name = top;
position = "{192, 325}";
}
);
hints = (
{
horizontal = 1;
origin = "{1, 21}";
target = "{1, 6}";
},
{
horizontal = 1;
place = "{55.250000, 5.200000}";
},
{
horizontal = 1;
origin = "{2, 6}";
target = "{2, 5}";
},
{
horizontal = 1;
origin = "{0, 13}";
target = "{0, 9}";
},
{
origin = "{0, 18}";
target = "{0, 5}";
}
);
layerId = "0A9CB6F6-DACD-44D2-9CB9-B84AA124B162";
paths = (
{
closed = 1;
nodes = (
"177 0 LINE",
"185 10 LINE",
"177 20 LINE SMOOTH",
"162 42 OFFCURVE",
"157 62 OFFCURVE",
"157 104 CURVE SMOOTH",
"157 469 LINE SMOOTH",
"157 482 OFFCURVE",
"145 490 OFFCURVE",
"128 490 CURVE SMOOTH",
"88 490 OFFCURVE",
"44 475 OFFCURVE",
"18 451 CURVE",
"22 441 LINE",
"53 441 LINE SMOOTH",
"62 441 OFFCURVE",
"66 437 OFFCURVE",
"66 427 CURVE SMOOTH",
"66 66 LINE SMOOTH",
"66 33 OFFCURVE",
"62 25 OFFCURVE",
"40 20 CURVE SMOOTH",
"26 17 LINE",
"32 0 LINE"
);
},
{
closed = 1;
nodes = (
"343 -9 OFFCURVE",
"371 3 OFFCURVE",
"395 30 CURVE",
"387 40 LINE",
"376 31 OFFCURVE",
"364 25 OFFCURVE",
"354 25 CURVE SMOOTH",
"339 25 OFFCURVE",
"331 32 OFFCURVE",
"326 47 CURVE SMOOTH",
"298 127 LINE SMOOTH",
"280 178 OFFCURVE",
"235 197 OFFCURVE",
"136 197 CURVE",
"135 181 LINE",
"169 181 OFFCURVE",
"188 169 OFFCURVE",
"198 140 CURVE SMOOTH",
"229 52 LINE SMOOTH",
"243 8 OFFCURVE",
"266 -9 OFFCURVE",
"308 -9 CURVE SMOOTH"
);
},
{
closed = 1;
nodes = (
"313 280 LINE SMOOTH",
"337 297 OFFCURVE",
"352 304 OFFCURVE",
"369 308 CURVE",
"363 325 LINE",
"242 325 LINE",
"234 315 LINE",
"242 309 LINE SMOOTH",
"250 302 OFFCURVE",
"254 296 OFFCURVE",
"254 285 CURVE SMOOTH",
"254 272 OFFCURVE",
"245 262 OFFCURVE",
"217 242 CURVE SMOOTH",
"151 194 LINE",
"190 190 LINE"
);
}
);
width = 382;
}
);
unicode = 006B;
},
{
glyphname = kgreenlandic;
lastChange = "2016-01-13 12:08:33 +0000";
layers = (
{
hints = (
{
horizontal = 1;
origin = "{1, 21}";
target = "{1, 6}";
},
{
horizontal = 1;
origin = "{2, 6}";
target = "{2, 5}";
},
{
horizontal = 1;
origin = "{0, 3}";
target = "{0, 7}";
},
{
origin = "{0, 12}";
target = "{0, 23}";
}
);
layerId = "0A9CB6F6-DACD-44D2-9CB9-B84AA124B162";
paths = (
{
closed = 1;
nodes = (
"163 310 LINE SMOOTH",
"163 323 OFFCURVE",
"152 332 OFFCURVE",
"135 332 CURVE SMOOTH",
"95 332 OFFCURVE",
"50 315 OFFCURVE",
"25 293 CURVE",
"28 282 LINE",
"60 282 LINE SMOOTH",
"69 282 OFFCURVE",
"73 278 OFFCURVE",
"73 268 CURVE SMOOTH",
"73 66 LINE SMOOTH",
"73 33 OFFCURVE",
"69 25 OFFCURVE",
"47 20 CURVE SMOOTH",
"33 17 LINE",
"39 0 LINE",
"184 0 LINE",
"192 10 LINE",
"184 20 LINE SMOOTH",
"169 42 OFFCURVE",
"163 63 OFFCURVE",
"163 104 CURVE"
);
},
{
closed = 1;
nodes = (
"349 -9 OFFCURVE",
"377 3 OFFCURVE",
"402 30 CURVE",
"394 40 LINE",
"383 31 OFFCURVE",
"371 25 OFFCURVE",
"360 25 CURVE SMOOTH",
"346 25 OFFCURVE",
"338 32 OFFCURVE",
"332 47 CURVE SMOOTH",
"304 108 LINE SMOOTH",
"281 156 OFFCURVE",
"242 177 OFFCURVE",
"143 177 CURVE",
"142 161 LINE",
"176 161 OFFCURVE",
"193 148 OFFCURVE",
"205 120 CURVE SMOOTH",
"235 52 LINE SMOOTH",
"254 9 OFFCURVE",
"272 -9 OFFCURVE",
"315 -9 CURVE SMOOTH"
);
},
{
closed = 1;
nodes = (
"319 280 LINE SMOOTH",
"343 298 OFFCURVE",
"358 304 OFFCURVE",
"374 308 CURVE",
"369 325 LINE",
"248 325 LINE",
"240 315 LINE",
"248 309 LINE SMOOTH",
"256 302 OFFCURVE",
"259 296 OFFCURVE",
"259 285 CURVE SMOOTH",
"259 272 OFFCURVE",
"250 263 OFFCURVE",
"222 242 CURVE SMOOTH",
"116 162 LINE",
"155 158 LINE"
);
}
);
width = 389;
}
);
leftMetricsKey = n;
rightMetricsKey = k;
unicode = 0138;
},
{
glyphname = l;
lastChange = "2016-01-13 12:08:33 +0000";
layers = (
{
anchors = (
{
name = bottom;
position = "{103, 0}";
},
{
name = center;
position = "{103, 247}";
},
{
name = top;
position = "{93, 467}";
},
{
name = topright;
position = "{158, 325}";
}
);
hints = (
{
horizontal = 1;
origin = "{0, 15}";
target = "{0, 22}";
},
{
horizontal = 1;
origin = "{0, 7}";
target = "{0, 3}";
},
{
origin = "{0, 12}";
target = "{0, 25}";
}
);
layerId = "0A9CB6F6-DACD-44D2-9CB9-B84AA124B162";
paths = (
{
closed = 1;
nodes = (
"142 469 LINE SMOOTH",
"142 482 OFFCURVE",
"131 490 OFFCURVE",
"114 490 CURVE SMOOTH",
"74 490 OFFCURVE",
"30 475 OFFCURVE",
"4 451 CURVE",
"7 441 LINE",
"39 441 LINE SMOOTH",
"48 441 OFFCURVE",
"52 437 OFFCURVE",
"52 427 CURVE SMOOTH",
"52 60 LINE SMOOTH",
"52 12 OFFCURVE",
"72 -9 OFFCURVE",
"119 -9 CURVE SMOOTH",
"153 -9 OFFCURVE",
"182 4 OFFCURVE",
"206 32 CURVE",
"198 42 LINE",
"187 33 OFFCURVE",
"174 27 OFFCURVE",
"161 27 CURVE SMOOTH",
"149 27 OFFCURVE",
"142 37 OFFCURVE",
"142 57 CURVE SMOOTH"
);
}
);
width = 205;
}
);
unicode = 006C;
},
{
glyphname = m;
lastChange = "2016-01-13 12:08:33 +0000";
layers = (
{
hints = (
{
horizontal = 1;
origin = "{0, 46}";
target = up;
type = BottomGhost;
},
{
horizontal = 1;
origin = "{0, 17}";
target = up;
type = BottomGhost;
},
{
origin = "{0, 51}";
target = "{0, 40}";
},
{
origin = "{0, 34}";
target = "{0, 27}";
},
{
origin = "{0, 20}";
target = "{0, 6}";
},
{
horizontal = 1;
origin = "{0, 67}";
target = "{0, 37}";
},
{
horizontal = 1;
origin = "{0, 17}";
target = "{0, 10}";
}
);
layerId = "0A9CB6F6-DACD-44D2-9CB9-B84AA124B162";
paths = (
{
closed = 1;
nodes = (
"359 222 LINE",
"377 285 OFFCURVE",
"424 332 OFFCURVE",
"473 332 CURVE SMOOTH",
"530 332 OFFCURVE",
"555 295 OFFCURVE",
"555 215 CURVE SMOOTH",
"555 57 LINE SMOOTH",
"555 37 OFFCURVE",
"562 27 OFFCURVE",
"574 27 CURVE SMOOTH",
"587 27 OFFCURVE",
"600 33 OFFCURVE",
"611 42 CURVE",
"619 32 LINE",
"594 4 OFFCURVE",
"566 -9 OFFCURVE",
"532 -9 CURVE SMOOTH",
"483 -9 OFFCURVE",
"465 14 OFFCURVE",
"465 79 CURVE SMOOTH",
"465 223 LINE SMOOTH",
"465 261 OFFCURVE",
"452 281 OFFCURVE",
"427 281 CURVE SMOOTH",
"382 281 OFFCURVE",
"359 189 OFFCURVE",
"359 104 CURVE SMOOTH",
"360 62 OFFCURVE",
"365 42 OFFCURVE",
"380 20 CURVE SMOOTH",
"388 10 LINE",
"380 0 LINE",
"269 0 LINE",
"269 223 LINE SMOOTH",
"269 261 OFFCURVE",
"256 281 OFFCURVE",
"231 281 CURVE SMOOTH",
"185 281 OFFCURVE",
"163 189 OFFCURVE",
"163 104 CURVE SMOOTH",
"163 62 OFFCURVE",
"169 42 OFFCURVE",
"184 20 CURVE SMOOTH",
"192 10 LINE",
"184 0 LINE",
"39 0 LINE",
"33 17 LINE",
"47 20 LINE SMOOTH",
"69 25 OFFCURVE",
"73 33 OFFCURVE",
"73 66 CURVE SMOOTH",
"73 261 LINE SMOOTH",
"73 272 OFFCURVE",
"69 276 OFFCURVE",
"60 276 CURVE SMOOTH",
"28 276 LINE",
"25 286 LINE",
"51 309 OFFCURVE",
"95 325 OFFCURVE",
"135 325 CURVE SMOOTH",
"152 325 OFFCURVE",
"163 317 OFFCURVE",
"163 304 CURVE SMOOTH",
"163 222 LINE",
"179 280 OFFCURVE",
"223 332 OFFCURVE",
"277 332 CURVE SMOOTH",
"332 332 OFFCURVE",
"356 298 OFFCURVE",
"357 222 CURVE"
);
}
);
width = 625;
}
);
leftMetricsKey = n;
rightMetricsKey = n;
unicode = 006D;
},
{
glyphname = n;
lastChange = "2016-01-13 12:08:33 +0000";
layers = (
{
anchors = (
{
name = bottom;
position = "{233, 0}";
},
{
name = top;
position = "{220, 325}";
}
);
hints = (
{
horizontal = 1;
origin = "{0, 40}";
target = "{0, 47}";
},
{
horizontal = 1;
origin = "{0, 3}";
target = "{0, 33}";
},
{
horizontal = 1;
origin = "{0, 14}";
target = "{0, 10}";
},
{
origin = "{0, 19}";
target = "{0, 30}";
},
{
origin = "{0, 37}";
target = "{0, 50}";
}
);
layerId = "0A9CB6F6-DACD-44D2-9CB9-B84AA124B162";
paths = (
{
closed = 1;
nodes = (
"371 215 LINE",
"371 296 OFFCURVE",
"346 332 OFFCURVE",
"289 332 CURVE SMOOTH",
"236 332 OFFCURVE",
"182 284 OFFCURVE",
"163 222 CURVE",
"163 308 LINE SMOOTH",
"163 321 OFFCURVE",
"152 330 OFFCURVE",
"135 330 CURVE SMOOTH",
"95 330 OFFCURVE",
"51 314 OFFCURVE",
"25 291 CURVE",
"28 280 LINE",
"60 280 LINE SMOOTH",
"68 280 OFFCURVE",
"73 273 OFFCURVE",
"73 261 CURVE SMOOTH",
"73 66 LINE SMOOTH",
"73 33 OFFCURVE",
"69 25 OFFCURVE",
"47 20 CURVE SMOOTH",
"33 17 LINE",
"39 0 LINE",
"184 0 LINE",
"192 10 LINE",
"184 20 LINE SMOOTH",
"169 42 OFFCURVE",
"163 63 OFFCURVE",
"163 104 CURVE SMOOTH",
"163 209 OFFCURVE",
"196 281 OFFCURVE",
"244 281 CURVE SMOOTH",
"268 281 OFFCURVE",
"281 261 OFFCURVE",
"281 223 CURVE SMOOTH",
"281 70 LINE SMOOTH",
"281 14 OFFCURVE",
"300 -9 OFFCURVE",
"348 -9 CURVE SMOOTH",
"382 -9 OFFCURVE",
"410 4 OFFCURVE",
"435 32 CURVE",
"427 42 LINE",
"416 33 OFFCURVE",
"402 27 OFFCURVE",
"390 27 CURVE SMOOTH",
"377 27 OFFCURVE",
"371 37 OFFCURVE",
"371 57 CURVE SMOOTH"
);
}
);
width = 441;
}
);
unicode = 006E;
},
{
color = 4;
glyphname = eng;
lastChange = "2016-01-13 17:48:41 +0000";
layers = (
{
hints = (
{
horizontal = 1;
origin = "{0, 51}";
target = "{0, 36}";
},
{
horizontal = 1;
origin = "{0, 58}";
target = "{0, 29}";
},
{
horizontal = 1;
origin = "{0, 6}";
target = "{0, 10}";
},
{
origin = "{0, 15}";
target = "{0, 26}";
},
{
origin = "{0, 33}";
target = "{0, 54}";
},
{
origin = "{0, 48}";
target = "{0, 39}";
}
);
layerId = "0A9CB6F6-DACD-44D2-9CB9-B84AA124B162";
paths = (
{
closed = 1;
nodes = (
"240 332 OFFCURVE",
"184 289 OFFCURVE",
"163 222 CURVE",
"163 308 LINE SMOOTH",
"163 321 OFFCURVE",
"152 330 OFFCURVE",
"135 330 CURVE SMOOTH",
"95 330 OFFCURVE",
"50 313 OFFCURVE",
"25 291 CURVE",
"28 280 LINE",
"60 280 LINE SMOOTH",
"69 280 OFFCURVE",
"73 272 OFFCURVE",
"73 261 CURVE SMOOTH",
"73 66 LINE SMOOTH",
"73 33 OFFCURVE",
"69 25 OFFCURVE",
"47 20 CURVE SMOOTH",
"33 17 LINE",
"39 0 LINE",
"184 0 LINE",
"192 10 LINE",
"184 20 LINE",
"169 42 OFFCURVE",
"163 63 OFFCURVE",
"163 104 CURVE SMOOTH",
"163 209 OFFCURVE",
"196 281 OFFCURVE",
"244 281 CURVE SMOOTH",
"267 281 OFFCURVE",
"279 261 OFFCURVE",
"279 223 CURVE SMOOTH",
"279 -77 LINE SMOOTH",
"279 -122 OFFCURVE",
"266 -143 OFFCURVE",
"243 -143 CURVE SMOOTH",
"219 -143 OFFCURVE",
"210 -120 OFFCURVE",
"210 -95 CURVE SMOOTH",
"210 -76 OFFCURVE",
"216 -56 OFFCURVE",
"228 -45 CURVE",
"217 -40 OFFCURVE",
"204 -37 OFFCURVE",
"191 -37 CURVE SMOOTH",
"156 -37 OFFCURVE",
"133 -61 OFFCURVE",
"133 -97 CURVE SMOOTH",
"133 -139 OFFCURVE",
"176 -166 OFFCURVE",
"237 -166 CURVE SMOOTH",
"318 -166 OFFCURVE",
"371 -109 OFFCURVE",
"371 0 CURVE SMOOTH",
"371 215 LINE SMOOTH",
"371 296 OFFCURVE",
"346 332 OFFCURVE",
"289 332 CURVE SMOOTH"
);
}
);
width = 406;
}
);
leftMetricsKey = n;
rightMetricsKey = j;
unicode = 014B;
},
{
glyphname = o;
lastChange = "2016-01-13 12:08:33 +0000";
layers = (
{
anchors = (
{
name = bottom;
position = "{192, 0}";
},
{
name = center;
position = "{192, 163}";
},
{
name = ogonek;
position = "{346, 7}";
},
{
name = top;
position = "{192, 325}";
},
{
name = topright;
position = "{372, 325}";
}
);
hints = (
{
horizontal = 1;
origin = "{1, 2}";
target = "{0, 2}";
},
{
horizontal = 1;
origin = "{1, 8}";
target = "{0, 8}";
},
{
origin = "{1, 11}";
target = "{0, 5}";
},
{
origin = "{0, 11}";
target = "{1, 5}";
}
);
layerId = "0A9CB6F6-DACD-44D2-9CB9-B84AA124B162";
paths = (
{
closed = 1;
nodes = (
"261 73 OFFCURVE",
"232 13 OFFCURVE",
"190 13 CURVE SMOOTH",
"148 13 OFFCURVE",
"122 70 OFFCURVE",
"122 161 CURVE SMOOTH",
"122 250 OFFCURVE",
"151 311 OFFCURVE",
"194 311 CURVE SMOOTH",
"233 311 OFFCURVE",
"261 248 OFFCURVE",
"261 159 CURVE SMOOTH"
);
},
{
closed = 1;
nodes = (
"23 57 OFFCURVE",
"88 -9 OFFCURVE",
"192 -9 CURVE SMOOTH",
"296 -9 OFFCURVE",
"362 57 OFFCURVE",
"362 161 CURVE SMOOTH",
"362 265 OFFCURVE",
"297 332 OFFCURVE",
"192 332 CURVE SMOOTH",
"88 332 OFFCURVE",
"23 266 OFFCURVE",
"23 161 CURVE SMOOTH"
);
}
);
width = 385;
}
);
unicode = 006F;
},
{
glyphname = oe;
lastChange = "2016-01-13 12:08:33 +0000";
layers = (
{
anchors = (
{
name = bottom;
position = "{292, 0}";
},
{
name = top;
position = "{292, 325}";
}
);
hints = (
{
horizontal = 1;
origin = "{0, 23}";
target = "{1, 11}";
},
{
horizontal = 1;
origin = "{0, 17}";
target = "{1, 5}";
},
{
origin = "{0, 20}";
target = "{1, 2}";
},
{
origin = "{1, 8}";
target = "{2, 9}";
},
{
horizontal = 1;
origin = "{0, 29}";
target = "{0, 36}";
},
{
horizontal = 1;
origin = "{0, 5}";
target = "{2, 5}";
},
{
horizontal = 1;
origin = "{0, 11}";
target = "{2, 12}";
},
{
origin = "{1, 8}";
target = "{2, 9}";
},
{
origin = "{2, 2}";
target = "{0, 8}";
}
);
layerId = "0A9CB6F6-DACD-44D2-9CB9-B84AA124B162";
paths = (
{
closed = 1;
nodes = (
"402 24 OFFCURVE",
"367 67 OFFCURVE",
"360 136 CURVE",
"377 133 OFFCURVE",
"394 132 OFFCURVE",
"411 132 CURVE SMOOTH",
"504 132 OFFCURVE",
"562 173 OFFCURVE",
"562 237 CURVE SMOOTH",
"562 293 OFFCURVE",
"509 332 OFFCURVE",
"435 332 CURVE SMOOTH",
"382 332 OFFCURVE",
"339 315 OFFCURVE",
"309 286 CURVE",
"281 315 OFFCURVE",
"241 332 OFFCURVE",
"192 332 CURVE SMOOTH",
"88 332 OFFCURVE",
"23 266 OFFCURVE",
"23 161 CURVE SMOOTH",
"23 57 OFFCURVE",
"88 -9 OFFCURVE",
"192 -9 CURVE SMOOTH",
"241 -9 OFFCURVE",
"281 7 OFFCURVE",
"309 37 CURVE",
"337 8 OFFCURVE",
"377 -9 OFFCURVE",
"422 -9 CURVE SMOOTH",
"478 -9 OFFCURVE",
"527 17 OFFCURVE",
"558 61 CURVE",
"546 70 LINE",
"518 37 OFFCURVE",
"490 24 OFFCURVE",
"452 24 CURVE SMOOTH"
);
},
{
closed = 1;
nodes = (
"148 13 OFFCURVE",
"122 70 OFFCURVE",
"122 161 CURVE SMOOTH",
"122 250 OFFCURVE",
"151 311 OFFCURVE",
"194 311 CURVE SMOOTH",
"233 311 OFFCURVE",
"261 248 OFFCURVE",
"261 159 CURVE SMOOTH",
"261 73 OFFCURVE",
"232 13 OFFCURVE",
"190 13 CURVE SMOOTH"
);
},
{
closed = 1;
nodes = (
"452 308 OFFCURVE",
"472 279 OFFCURVE",
"472 239 CURVE SMOOTH",
"472 190 OFFCURVE",
"441 159 OFFCURVE",
"385 152 CURVE SMOOTH",
"377 151 OFFCURVE",
"368 150 OFFCURVE",
"358 150 CURVE",
"358 166 LINE SMOOTH",
"358 255 OFFCURVE",
"383 308 OFFCURVE",
"424 308 CURVE SMOOTH"
);
}
);
width = 583;
}
);
leftMetricsKey = o;
rightMetricsKey = e;
unicode = 0153;
},
{
glyphname = p;
lastChange = "2016-01-13 12:08:33 +0000";
layers = (
{
hints = (
{
horizontal = 1;
origin = "{0, 6}";
target = "{0, 49}";
},
{
horizontal = 1;
origin = "{0, 12}";
target = "{0, 43}";
},
{
horizontal = 1;
origin = "{0, 23}";
target = "{0, 19}";
},
{
origin = "{0, 28}";
target = "{0, 39}";
},
{
origin = "{0, 46}";
target = "{0, 9}";
}
);
layerId = "0A9CB6F6-DACD-44D2-9CB9-B84AA124B162";
paths = (
{
closed = 1;
nodes = (
"177 23 OFFCURVE",
"158 28 OFFCURVE",
"145 38 CURVE",
"140 31 LINE",
"160 8 OFFCURVE",
"194 -6 OFFCURVE",
"230 -6 CURVE SMOOTH",
"315 -6 OFFCURVE",
"376 68 OFFCURVE",
"376 171 CURVE SMOOTH",
"376 267 OFFCURVE",
"330 332 OFFCURVE",
"262 332 CURVE SMOOTH",
"217 332 OFFCURVE",
"182 311 OFFCURVE",
"148 263 CURVE",
"148 307 LINE SMOOTH",
"148 320 OFFCURVE",
"137 329 OFFCURVE",
"120 329 CURVE SMOOTH",
"81 329 OFFCURVE",
"36 313 OFFCURVE",
"11 290 CURVE",
"14 279 LINE",
"45 279 LINE SMOOTH",
"53 279 OFFCURVE",
"58 273 OFFCURVE",
"58 261 CURVE SMOOTH",
"58 -53 LINE",
"58 -94 OFFCURVE",
"53 -115 OFFCURVE",
"37 -137 CURVE SMOOTH",
"29 -147 LINE",
"37 -157 LINE",
"192 -157 LINE",
"198 -140 LINE",
"185 -137 LINE SMOOTH",
"153 -130 OFFCURVE",
"148 -123 OFFCURVE",
"148 -91 CURVE SMOOTH",
"148 230 LINE",
"165 265 OFFCURVE",
"187 283 OFFCURVE",
"214 283 CURVE SMOOTH",
"254 283 OFFCURVE",
"276 240 OFFCURVE",
"276 161 CURVE SMOOTH",
"276 71 OFFCURVE",
"247 23 OFFCURVE",
"192 23 CURVE SMOOTH"
);
}
);
width = 399;
}
);
unicode = 0070;
},
{
glyphname = thorn;
lastChange = "2016-01-13 12:08:33 +0000";
layers = (
{
hints = (
{
horizontal = 1;
origin = "{0, 43}";
target = "{0, 36}";
},
{
horizontal = 1;
origin = "{0, 49}";
target = "{0, 30}";
},
{
horizontal = 1;
origin = "{0, 10}";
target = "{0, 6}";
},
{
origin = "{0, 15}";
target = "{0, 26}";
},
{
origin = "{0, 33}";
target = "{0, 46}";
}
);
layerId = "0A9CB6F6-DACD-44D2-9CB9-B84AA124B162";
paths = (
{
closed = 1;
nodes = (
"217 332 OFFCURVE",
"182 311 OFFCURVE",
"148 263 CURVE",
"148 469 LINE SMOOTH",
"148 482 OFFCURVE",
"137 490 OFFCURVE",
"120 490 CURVE SMOOTH",
"81 490 OFFCURVE",
"36 475 OFFCURVE",
"11 451 CURVE",
"14 441 LINE",
"45 441 LINE SMOOTH",
"53 441 OFFCURVE",
"58 434 OFFCURVE",
"58 423 CURVE SMOOTH",
"58 -53 LINE SMOOTH",
"58 -94 OFFCURVE",
"53 -115 OFFCURVE",
"37 -137 CURVE SMOOTH",
"29 -147 LINE",
"37 -157 LINE",
"192 -157 LINE",
"198 -140 LINE",
"185 -137 LINE SMOOTH",
"153 -130 OFFCURVE",
"148 -123 OFFCURVE",
"148 -91 CURVE SMOOTH",
"148 230 LINE",
"165 265 OFFCURVE",
"187 283 OFFCURVE",
"214 283 CURVE SMOOTH",
"254 283 OFFCURVE",
"276 240 OFFCURVE",
"276 161 CURVE SMOOTH",
"276 71 OFFCURVE",
"247 23 OFFCURVE",
"192 23 CURVE SMOOTH",
"177 23 OFFCURVE",
"158 28 OFFCURVE",
"145 38 CURVE",
"140 31 LINE",
"159 7 OFFCURVE",
"193 -6 OFFCURVE",
"230 -6 CURVE SMOOTH",
"315 -6 OFFCURVE",
"376 68 OFFCURVE",
"376 171 CURVE SMOOTH",
"376 267 OFFCURVE",
"330 332 OFFCURVE",
"262 332 CURVE SMOOTH"
);
}
);
width = 399;
}
);
rightMetricsKey = p;
unicode = 00FE;
},
{
glyphname = q;
lastChange = "2016-01-13 12:08:33 +0000";
layers = (
{
hints = (
{
horizontal = 1;
origin = "{1, 26}";
target = "{0, 9}";
},
{
horizontal = 1;
origin = "{1, 20}";
target = "{0, 2}";
},
{
origin = "{1, 23}";
target = "{0, 12}";
},
{
origin = "{1, 0}";
target = "{1, 11}";
}
);
layerId = "0A9CB6F6-DACD-44D2-9CB9-B84AA124B162";
paths = (
{
closed = 1;
nodes = (
"123 259 OFFCURVE",
"152 309 OFFCURVE",
"206 309 CURVE SMOOTH",
"222 309 OFFCURVE",
"237 305 OFFCURVE",
"250 300 CURVE",
"250 81 LINE",
"235 54 OFFCURVE",
"213 39 OFFCURVE",
"188 39 CURVE SMOOTH",
"146 39 OFFCURVE",
"123 82 OFFCURVE",
"123 161 CURVE SMOOTH"
);
},
{
closed = 1;
nodes = (
"251 -91 LINE SMOOTH",
"251 -123 OFFCURVE",
"245 -130 OFFCURVE",
"212 -137 CURVE SMOOTH",
"198 -140 LINE",
"205 -157 LINE",
"361 -157 LINE",
"369 -147 LINE",
"361 -137 LINE SMOOTH",
"346 -115 OFFCURVE",
"341 -94 OFFCURVE",
"341 -53 CURVE SMOOTH",
"341 270 LINE SMOOTH",
"341 280 OFFCURVE",
"342 286 OFFCURVE",
"349 295 CURVE SMOOTH",
"357 307 LINE",
"350 315 LINE",
"303 319 OFFCURVE",
"254 332 OFFCURVE",
"210 332 CURVE SMOOTH",
"95 332 OFFCURVE",
"23 261 OFFCURVE",
"23 149 CURVE SMOOTH",
"23 55 OFFCURVE",
"69 -9 OFFCURVE",
"136 -9 CURVE SMOOTH",
"181 -9 OFFCURVE",
"217 9 OFFCURVE",
"251 49 CURVE"
);
}
);
width = 405;
}
);
unicode = 0071;
},
{
color = 4;
glyphname = r;
lastChange = "2016-01-13 17:51:37 +0000";
layers = (
{
anchors = (
{
name = bottom;
position = "{113, 0}";
},
{
name = top;
position = "{172, 325}";
}
);
hints = (
{
horizontal = 1;
origin = "{0, 45}";
target = "{0, 30}";
},
{
horizontal = 1;
origin = "{0, 11}";
target = "{0, 7}";
},
{
origin = "{0, 16}";
target = "{0, 27}";
},
{
origin = "{0, 33}";
target = "{0, 42}";
}
);
layerId = "0A9CB6F6-DACD-44D2-9CB9-B84AA124B162";
paths = (
{
closed = 1;
nodes = (
"198 332 OFFCURVE",
"169 299 OFFCURVE",
"155 235 CURVE",
"152 235 LINE",
"152 308 LINE SMOOTH",
"152 321 OFFCURVE",
"140 330 OFFCURVE",
"123 330 CURVE SMOOTH",
"86 330 OFFCURVE",
"44 314 OFFCURVE",
"19 291 CURVE",
"23 280 LINE",
"54 280 LINE SMOOTH",
"62 280 OFFCURVE",
"67 273 OFFCURVE",
"67 261 CURVE SMOOTH",
"67 66 LINE SMOOTH",
"67 33 OFFCURVE",
"63 25 OFFCURVE",
"41 20 CURVE SMOOTH",
"27 17 LINE",
"33 0 LINE",
"178 0 LINE",
"186 10 LINE",
"178 20 LINE",
"163 46 OFFCURVE",
"158 71 OFFCURVE",
"158 120 CURVE SMOOTH",
"158 215 OFFCURVE",
"182 289 OFFCURVE",
"214 289 CURVE SMOOTH",
"228 289 OFFCURVE",
"236 278 OFFCURVE",
"236 259 CURVE SMOOTH",
"236 231 OFFCURVE",
"225 220 OFFCURVE",
"218 214 CURVE",
"231 208 OFFCURVE",
"244 206 OFFCURVE",
"255 206 CURVE SMOOTH",
"289 206 OFFCURVE",
"313 229 OFFCURVE",
"313 266 CURVE SMOOTH",
"313 305 OFFCURVE",
"283 332 OFFCURVE",
"241 332 CURVE SMOOTH"
);
}
);
width = 317;
}
);
unicode = 0072;
},
{
color = 4;
glyphname = s;
lastChange = "2016-01-13 17:58:12 +0000";
layers = (
{
anchors = (
{
name = bottom;
position = "{163, 0}";
},
{
name = top;
position = "{163, 325}";
}
);
background = {
paths = (
{
closed = 1;
nodes = (
"31 21 OFFCURVE",
"83 -9 OFFCURVE",
"153 -9 CURVE SMOOTH",
"240 -9 OFFCURVE",
"297 29 OFFCURVE",
"297 88 CURVE SMOOTH",
"297 198 OFFCURVE",
"122 184 OFFCURVE",
"122 264 CURVE SMOOTH",
"122 288 OFFCURVE",
"139 309 OFFCURVE",
"171 309 CURVE SMOOTH",
"200 309 OFFCURVE",
"218 292 OFFCURVE",
"218 268 CURVE SMOOTH",
"218 249 OFFCURVE",
"212 230 OFFCURVE",
"196 219 CURVE",
"198 212 LINE",
"211 208 OFFCURVE",
"224 208 OFFCURVE",
"233 210 CURVE SMOOTH",
"266 213 OFFCURVE",
"287 232 OFFCURVE",
"287 259 CURVE SMOOTH",
"287 303 OFFCURVE",
"236 332 OFFCURVE",
"167 332 CURVE SMOOTH",
"94 332 OFFCURVE",
"37 295 OFFCURVE",
"37 233 CURVE SMOOTH",
"37 113 OFFCURVE",
"204 129 OFFCURVE",
"204 60 CURVE SMOOTH",
"204 29 OFFCURVE",
"177 14 OFFCURVE",
"150 14 CURVE SMOOTH",
"125 14 OFFCURVE",
"100 28 OFFCURVE",
"100 59 CURVE SMOOTH",
"100 78 OFFCURVE",
"107 97 OFFCURVE",
"122 108 CURVE",
"120 116 LINE",
"107 119 OFFCURVE",
"95 119 OFFCURVE",
"85 117 CURVE SMOOTH",
"52 114 OFFCURVE",
"31 95 OFFCURVE",
"31 68 CURVE SMOOTH"
);
}
);
};
hints = (
{
horizontal = 1;
origin = "{0, 41}";
target = "{0, 26}";
},
{
horizontal = 1;
origin = "{0, 17}";
target = "{0, 2}";
},
{
origin = "{0, 20}";
target = "{0, 47}";
},
{
origin = "{0, 23}";
target = "{0, 44}";
},
{
origin = "{0, 5}";
target = "{0, 14}";
},
{
origin = "{0, 38}";
target = "{0, 29}";
}
);
layerId = "0A9CB6F6-DACD-44D2-9CB9-B84AA124B162";
paths = (
{
closed = 1;
nodes = (
"122 288 OFFCURVE",
"139 309 OFFCURVE",
"171 309 CURVE SMOOTH",
"200 309 OFFCURVE",
"218 293 OFFCURVE",
"218 271 CURVE SMOOTH",
"218 255 OFFCURVE",
"214 241 OFFCURVE",
"200 228 CURVE",
"211 222 OFFCURVE",
"225 219 OFFCURVE",
"237 219 CURVE SMOOTH",
"263 219 OFFCURVE",
"287 231 OFFCURVE",
"287 264 CURVE SMOOTH",
"287 305 OFFCURVE",
"238 332 OFFCURVE",
"171 332 CURVE SMOOTH",
"96 332 OFFCURVE",
"37 296 OFFCURVE",
"37 235 CURVE SMOOTH",
"37 119 OFFCURVE",
"204 130 OFFCURVE",
"204 60 CURVE SMOOTH",
"204 29 OFFCURVE",
"176 14 OFFCURVE",
"148 14 CURVE SMOOTH",
"124 14 OFFCURVE",
"100 27 OFFCURVE",
"100 56 CURVE SMOOTH",
"100 72 OFFCURVE",
"105 89 OFFCURVE",
"117 98 CURVE",
"105 103 OFFCURVE",
"94 105 OFFCURVE",
"83 105 CURVE SMOOTH",
"54 105 OFFCURVE",
"31 85 OFFCURVE",
"31 58 CURVE SMOOTH",
"31 17 OFFCURVE",
"81 -9 OFFCURVE",
"148 -9 CURVE SMOOTH",
"238 -9 OFFCURVE",
"297 28 OFFCURVE",
"297 86 CURVE SMOOTH",
"297 192 OFFCURVE",
"122 183 OFFCURVE",
"122 264 CURVE SMOOTH"
);
}
);
width = 327;
}
);
unicode = 0073;
},
{
glyphname = germandbls;
lastChange = "2016-01-13 12:08:33 +0000";
layers = (
{
hints = (
{
horizontal = 1;
origin = "{0, 34}";
target = "{0, 15}";
},
{
origin = "{0, 19}";
target = "{0, 30}";
},
{
origin = "{0, 40}";
target = "{0, 43}";
},
{
origin = "{0, 37}";
target = "{0, 12}";
},
{
origin = "{0, 47}";
target = "{0, 2}";
}
);
layerId = "0A9CB6F6-DACD-44D2-9CB9-B84AA124B162";
paths = (
{
closed = 1;
nodes = (
"370 -9 OFFCURVE",
"416 34 OFFCURVE",
"416 94 CURVE SMOOTH",
"416 137 OFFCURVE",
"395 171 OFFCURVE",
"345 205 CURVE SMOOTH",
"294 241 LINE SMOOTH",
"270 257 OFFCURVE",
"261 269 OFFCURVE",
"261 283 CURVE SMOOTH",
"261 333 OFFCURVE",
"348 352 OFFCURVE",
"348 412 CURVE SMOOTH",
"348 460 OFFCURVE",
"304 490 OFFCURVE",
"234 490 CURVE SMOOTH",
"127 490 OFFCURVE",
"61 418 OFFCURVE",
"61 300 CURVE SMOOTH",
"61 76 LINE",
"61 39 OFFCURVE",
"54 27 OFFCURVE",
"30 21 CURVE SMOOTH",
"16 17 LINE",
"22 0 LINE",
"177 0 LINE",
"185 10 LINE",
"177 21 LINE SMOOTH",
"159 45 OFFCURVE",
"153 68 OFFCURVE",
"153 113 CURVE SMOOTH",
"153 334 LINE SMOOTH",
"153 418 OFFCURVE",
"177 466 OFFCURVE",
"217 466 CURVE SMOOTH",
"245 466 OFFCURVE",
"261 445 OFFCURVE",
"261 407 CURVE SMOOTH",
"261 337 OFFCURVE",
"186 303 OFFCURVE",
"186 252 CURVE SMOOTH",
"186 221 OFFCURVE",
"196 204 OFFCURVE",
"235 176 CURVE SMOOTH",
"281 144 LINE SMOOTH",
"311 124 OFFCURVE",
"325 102 OFFCURVE",
"325 77 CURVE SMOOTH",
"325 45 OFFCURVE",
"302 25 OFFCURVE",
"265 25 CURVE SMOOTH",
"245 25 OFFCURVE",
"223 31 OFFCURVE",
"208 41 CURVE",
"200 30 LINE",
"228 2 OFFCURVE",
"267 -9 OFFCURVE",
"303 -9 CURVE SMOOTH"
);
}
);
width = 426;
}
);
unicode = 00DF;
},
{
glyphname = t;
lastChange = "2016-01-13 12:08:33 +0000";
layers = (
{
anchors = (
{
name = bottom;
position = "{118, 0}";
},
{
name = center;
position = "{108, 163}";
},
{
name = top;
position = "{118, 325}";
},
{
name = topright;
position = "{171, 325}";
}
);
hints = (
{
horizontal = 1;
origin = "{0, 30}";
target = "{0, 6}";
},
{
horizontal = 1;
origin = "{0, 25}";
target = "{0, 15}";
},
{
origin = "{0, 27}";
target = "{0, 9}";
}
);
layerId = "0A9CB6F6-DACD-44D2-9CB9-B84AA124B162";
paths = (
{
closed = 1;
nodes = (
"169 -9 OFFCURVE",
"202 9 OFFCURVE",
"230 43 CURVE",
"222 53 LINE",
"207 37 OFFCURVE",
"188 27 OFFCURVE",
"173 27 CURVE SMOOTH",
"157 27 OFFCURVE",
"148 37 OFFCURVE",
"148 57 CURVE SMOOTH",
"148 282 LINE",
"215 282 LINE",
"224 289 OFFCURVE",
"230 304 OFFCURVE",
"230 321 CURVE",
"148 321 LINE",
"148 411 LINE",
"113 411 OFFCURVE",
"108 410 OFFCURVE",
"104 395 CURVE SMOOTH",
"88 346 OFFCURVE",
"65 324 OFFCURVE",
"21 312 CURVE SMOOTH",
"8 308 OFFCURVE",
"7 305 OFFCURVE",
"7 282 CURVE",
"57 282 LINE",
"57 70 LINE SMOOTH",
"57 14 OFFCURVE",
"80 -9 OFFCURVE",
"134 -9 CURVE SMOOTH"
);
}
);
width = 237;
}
);
unicode = 0074;
},
{
glyphname = u;
lastChange = "2016-01-13 12:08:33 +0000";
layers = (
{
anchors = (
{
name = bottom;
position = "{214, 0}";
},
{
name = ogonek;
position = "{393, 7}";
},
{
name = top;
position = "{214, 325}";
},
{
name = topright;
position = "{416, 325}";
}
);
hints = (
{
horizontal = 1;
origin = "{0, 41}";
target = "{0, 22}";
},
{
horizontal = 1;
origin = "{0, 41}";
target = "{0, 9}";
},
{
horizontal = 1;
origin = "{0, 29}";
target = "{0, 33}";
},
{
origin = "{0, 38}";
target = "{0, 25}";
},
{
origin = "{0, 19}";
target = "{0, 12}";
}
);
layerId = "0A9CB6F6-DACD-44D2-9CB9-B84AA124B162";
paths = (
{
closed = 1;
nodes = (
"268 16 OFFCURVE",
"285 -9 OFFCURVE",
"335 -9 CURVE SMOOTH",
"370 -9 OFFCURVE",
"398 4 OFFCURVE",
"422 32 CURVE",
"414 42 LINE",
"403 33 OFFCURVE",
"390 27 OFFCURVE",
"377 27 CURVE SMOOTH",
"365 27 OFFCURVE",
"359 37 OFFCURVE",
"359 57 CURVE SMOOTH",
"359 330 LINE",
"244 321 LINE",
"236 312 LINE",
"245 301 LINE SMOOTH",
"264 279 OFFCURVE",
"270 254 OFFCURVE",
"270 203 CURVE SMOOTH",
"270 105 OFFCURVE",
"237 39 OFFCURVE",
"188 39 CURVE SMOOTH",
"164 39 OFFCURVE",
"150 64 OFFCURVE",
"150 110 CURVE SMOOTH",
"150 310 LINE SMOOTH",
"150 323 OFFCURVE",
"139 332 OFFCURVE",
"122 332 CURVE SMOOTH",
"83 332 OFFCURVE",
"39 316 OFFCURVE",
"13 293 CURVE",
"16 282 LINE",
"47 282 LINE SMOOTH",
"56 282 OFFCURVE",
"60 278 OFFCURVE",
"60 268 CURVE SMOOTH",
"60 105 LINE SMOOTH",
"60 28 OFFCURVE",
"88 -9 OFFCURVE",
"146 -9 CURVE SMOOTH",
"198 -9 OFFCURVE",
"249 32 OFFCURVE",
"268 91 CURVE"
);
}
);
width = 429;
}
);
unicode = 0075;
},
{
glyphname = v;
lastChange = "2016-01-13 12:08:33 +0000";
layers = (
{
hints = (
{
horizontal = 1;
origin = "{0, 19}";
target = "{0, 0}";
},
{
horizontal = 1;
origin = "{0, 25}";
target = down;
type = TopGhost;
}
);
layerId = "0A9CB6F6-DACD-44D2-9CB9-B84AA124B162";
paths = (
{
closed = 1;
nodes = (
"180 23 OFFCURVE",
"170 43 OFFCURVE",
"161 108 CURVE SMOOTH",
"135 287 LINE SMOOTH",
"130 323 OFFCURVE",
"123 332 OFFCURVE",
"103 332 CURVE SMOOTH",
"66 332 OFFCURVE",
"26 316 OFFCURVE",
"0 293 CURVE",
"3 282 LINE",
"30 282 LINE SMOOTH",
"38 282 OFFCURVE",
"41 279 OFFCURVE",
"43 268 CURVE SMOOTH",
"64 124 LINE SMOOTH",
"78 31 OFFCURVE",
"110 -9 OFFCURVE",
"180 -9 CURVE SMOOTH",
"266 -9 OFFCURVE",
"324 89 OFFCURVE",
"324 263 CURVE SMOOTH",
"324 281 OFFCURVE",
"323 303 OFFCURVE",
"321 332 CURVE",
"237 322 LINE",
"229 314 LINE",
"238 303 LINE SMOOTH",
"263 269 OFFCURVE",
"274 227 OFFCURVE",
"274 169 CURVE SMOOTH",
"274 88 OFFCURVE",
"249 23 OFFCURVE",
"205 23 CURVE SMOOTH"
);
}
);
width = 364;
}
);
unicode = 0076;
},
{
glyphname = w;
lastChange = "2016-01-13 12:08:33 +0000";
layers = (
{
anchors = (
{
name = bottom;
position = "{279, 0}";
},
{
name = top;
position = "{284, 325}";
}
);
hints = (
{
horizontal = 1;
origin = "{0, 0}";
target = "{0, 42}";
},
{
horizontal = 1;
origin = "{0, 12}";
target = down;
type = TopGhost;
}
);
layerId = "0A9CB6F6-DACD-44D2-9CB9-B84AA124B162";
paths = (
{
closed = 1;
nodes = (
"229 -9 OFFCURVE",
"266 19 OFFCURVE",
"280 89 CURVE",
"299 16 OFFCURVE",
"321 -9 OFFCURVE",
"377 -9 CURVE SMOOTH",
"469 -9 OFFCURVE",
"518 95 OFFCURVE",
"518 263 CURVE SMOOTH",
"518 284 OFFCURVE",
"517 306 OFFCURVE",
"515 332 CURVE",
"431 322 LINE",
"424 314 LINE",
"432 303 LINE SMOOTH",
"457 270 OFFCURVE",
"468 228 OFFCURVE",
"468 169 CURVE SMOOTH",
"468 83 OFFCURVE",
"444 23 OFFCURVE",
"408 23 CURVE SMOOTH",
"392 23 OFFCURVE",
"378 35 OFFCURVE",
"367 113 CURVE SMOOTH",
"342 288 LINE SMOOTH",
"338 322 OFFCURVE",
"330 332 OFFCURVE",
"311 332 CURVE SMOOTH",
"273 332 OFFCURVE",
"233 316 OFFCURVE",
"208 293 CURVE",
"211 282 LINE",
"237 282 LINE SMOOTH",
"246 282 OFFCURVE",
"248 279 OFFCURVE",
"250 268 CURVE SMOOTH",
"260 227 OFFCURVE",
"265 185 OFFCURVE",
"265 149 CURVE SMOOTH",
"265 74 OFFCURVE",
"242 23 OFFCURVE",
"204 23 CURVE SMOOTH",
"180 23 OFFCURVE",
"170 42 OFFCURVE",
"161 108 CURVE SMOOTH",
"135 288 LINE SMOOTH",
"130 322 OFFCURVE",
"123 332 OFFCURVE",
"103 332 CURVE SMOOTH",
"66 332 OFFCURVE",
"26 316 OFFCURVE",
"0 293 CURVE",
"3 282 LINE",
"30 282 LINE SMOOTH",
"38 282 OFFCURVE",
"41 279 OFFCURVE",
"43 268 CURVE SMOOTH",
"64 124 LINE SMOOTH",
"78 30 OFFCURVE",
"111 -9 OFFCURVE",
"175 -9 CURVE SMOOTH"
);
}
);
width = 557;
}
);
unicode = 0077;
},
{
glyphname = x;
lastChange = "2016-01-13 12:08:33 +0000";
layers = (
{
hints = (
{
horizontal = 1;
origin = "{0, 20}";
target = "{0, 27}";
},
{
horizontal = 1;
origin = "{1, 4}";
target = "{1, 3}";
},
{
horizontal = 1;
origin = "{2, 2}";
target = "{2, 4}";
},
{
horizontal = 1;
origin = "{0, 6}";
target = "{0, 13}";
}
);
layerId = "0A9CB6F6-DACD-44D2-9CB9-B84AA124B162";
paths = (
{
closed = 1;
nodes = (
"315 25 OFFCURVE",
"306 32 OFFCURVE",
"298 47 CURVE SMOOTH",
"180 264 LINE SMOOTH",
"156 315 OFFCURVE",
"133 332 OFFCURVE",
"91 332 CURVE SMOOTH",
"57 332 OFFCURVE",
"30 322 OFFCURVE",
"6 295 CURVE",
"13 284 LINE",
"24 292 OFFCURVE",
"35 297 OFFCURVE",
"45 297 CURVE SMOOTH",
"57 297 OFFCURVE",
"66 290 OFFCURVE",
"74 275 CURVE SMOOTH",
"192 59 LINE SMOOTH",
"219 8 OFFCURVE",
"241 -9 OFFCURVE",
"282 -9 CURVE SMOOTH",
"317 -9 OFFCURVE",
"344 1 OFFCURVE",
"368 30 CURVE",
"359 40 LINE",
"349 31 OFFCURVE",
"337 25 OFFCURVE",
"327 25 CURVE SMOOTH"
);
},
{
closed = 1;
nodes = (
"198 151 LINE",
"354 307 LINE",
"348 323 LINE",
"242 323 LINE",
"234 313 LINE",
"242 304 LINE SMOOTH",
"249 292 OFFCURVE",
"252 282 OFFCURVE",
"252 272 CURVE SMOOTH",
"252 251 OFFCURVE",
"227 213 OFFCURVE",
"174 153 CURVE"
);
},
{
closed = 1;
nodes = (
"166 171 LINE",
"12 16 LINE",
"18 0 LINE",
"123 0 LINE",
"131 10 LINE",
"124 20 LINE SMOOTH",
"117 31 OFFCURVE",
"113 41 OFFCURVE",
"113 51 CURVE SMOOTH",
"113 71 OFFCURVE",
"137 107 OFFCURVE",
"190 169 CURVE"
);
}
);
width = 366;
}
);
unicode = 0078;
},
{
color = 4;
glyphname = y;
lastChange = "2016-01-13 17:50:18 +0000";
layers = (
{
anchors = (
{
name = bottom;
position = "{203, 0}";
},
{
name = top;
position = "{203, 325}";
}
);
background = {
paths = (
{
closed = 0;
nodes = (
"252 -30 LINE SMOOTH"
);
},
{
closed = 0;
nodes = (
"341 0 LINE SMOOTH"
);
}
);
};
hints = (
{
horizontal = 1;
origin = "{0, 48}";
target = "{0, 33}";
},
{
horizontal = 1;
origin = "{0, 26}";
target = "{0, 7}";
},
{
horizontal = 1;
origin = "{0, 14}";
target = "{0, 0}";
},
{
horizontal = 1;
origin = "{0, 14}";
target = "{0, 18}";
},
{
origin = "{0, 23}";
target = "{0, 10}";
},
{
origin = "{0, 30}";
target = "{0, 51}";
},
{
origin = "{0, 45}";
target = "{0, 36}";
}
);
layerId = "0A9CB6F6-DACD-44D2-9CB9-B84AA124B162";
paths = (
{
closed = 1;
nodes = (
"228 312 LINE",
"236 301 LINE",
"254 278 OFFCURVE",
"261 249 OFFCURVE",
"261 202 CURVE SMOOTH",
"261 112 OFFCURVE",
"231 52 OFFCURVE",
"185 52 CURVE SMOOTH",
"162 52 OFFCURVE",
"150 71 OFFCURVE",
"150 108 CURVE SMOOTH",
"150 310 LINE SMOOTH",
"150 323 OFFCURVE",
"139 332 OFFCURVE",
"122 332 CURVE SMOOTH",
"84 332 OFFCURVE",
"38 315 OFFCURVE",
"13 293 CURVE",
"16 282 LINE",
"47 282 LINE SMOOTH",
"56 282 OFFCURVE",
"60 278 OFFCURVE",
"60 268 CURVE SMOOTH",
"60 119 LINE SMOOTH",
"60 45 OFFCURVE",
"88 10 OFFCURVE",
"146 10 CURVE SMOOTH",
"195 10 OFFCURVE",
"243 46 OFFCURVE",
"261 97 CURVE",
"261 -30 LINE SMOOTH",
"261 -106 OFFCURVE",
"238 -144 OFFCURVE",
"191 -144 CURVE SMOOTH",
"163 -144 OFFCURVE",
"143 -123 OFFCURVE",
"143 -94 CURVE SMOOTH",
"143 -73 OFFCURVE",
"149 -57 OFFCURVE",
"161 -45 CURVE",
"150 -40 OFFCURVE",
"137 -37 OFFCURVE",
"124 -37 CURVE SMOOTH",
"89 -37 OFFCURVE",
"66 -61 OFFCURVE",
"66 -97 CURVE SMOOTH",
"66 -138 OFFCURVE",
"112 -166 OFFCURVE",
"178 -166 CURVE SMOOTH",
"286 -166 OFFCURVE",
"350 -105 OFFCURVE",
"350 0 CURVE SMOOTH",
"350 330 LINE",
"235 321 LINE"
);
}
);
width = 406;
}
);
unicode = 0079;
},
{
glyphname = z;
lastChange = "2016-01-13 12:08:33 +0000";
layers = (
{
anchors = (
{
name = bottom;
position = "{161, 0}";
},
{
name = top;
position = "{168, 325}";
}
);
hints = (
{
horizontal = 1;
origin = "{0, 18}";
target = "{0, 30}";
},
{
horizontal = 1;
origin = "{0, 15}";
target = "{0, 5}";
},
{
origin = "{0, 10}";
target = "{0, 8}";
},
{
origin = "{0, 22}";
target = "{0, 23}";
}
);
layerId = "0A9CB6F6-DACD-44D2-9CB9-B84AA124B162";
paths = (
{
closed = 1;
nodes = (
"289 287 LINE",
"307 297 LINE",
"307 309 OFFCURVE",
"303 317 OFFCURVE",
"294 325 CURVE",
"110 325 LINE SMOOTH",
"69 325 OFFCURVE",
"50 329 OFFCURVE",
"32 341 CURVE",
"24 333 LINE",
"24 228 LINE",
"45 221 LINE",
"52 258 LINE SMOOTH",
"58 284 OFFCURVE",
"73 295 OFFCURVE",
"101 295 CURVE SMOOTH",
"193 295 LINE",
"16 20 LINE",
"23 0 LINE",
"212 0 LINE SMOOTH",
"252 0 OFFCURVE",
"271 -4 OFFCURVE",
"289 -16 CURVE",
"297 -8 LINE",
"297 97 LINE",
"277 104 LINE",
"269 67 LINE SMOOTH",
"263 41 OFFCURVE",
"249 30 OFFCURVE",
"220 30 CURVE SMOOTH",
"124 30 LINE"
);
}
);
width = 322;
}
);
unicode = 007A;
},
{
color = 4;
glyphname = fi;
lastChange = "2016-01-13 17:52:52 +0000";
layers = (
{
hints = (
{
horizontal = 1;
origin = "{0, 60}";
target = "{0, 2}";
},
{
horizontal = 1;
origin = "{0, 9}";
target = down;
type = TopGhost;
},
{
horizontal = 1;
origin = "{0, 16}";
target = "{0, 31}";
},
{
horizontal = 1;
origin = "{0, 45}";
target = "{0, 44}";
},
{
horizontal = 1;
origin = "{0, 38}";
target = "{0, 34}";
},
{
origin = "{0, 40}";
target = "{0, 51}";
},
{
origin = "{0, 57}";
target = "{0, 5}";
},
{
origin = "{0, 19}";
target = "{0, 28}";
}
);
layerId = "0A9CB6F6-DACD-44D2-9CB9-B84AA124B162";
paths = (
{
closed = 1;
nodes = (
"402 33 OFFCURVE",
"389 27 OFFCURVE",
"378 27 CURVE SMOOTH",
"365 27 OFFCURVE",
"359 37 OFFCURVE",
"359 57 CURVE SMOOTH",
"359 307 LINE SMOOTH",
"359 320 OFFCURVE",
"351 332 OFFCURVE",
"334 332 CURVE SMOOTH",
"311 332 OFFCURVE",
"299 321 OFFCURVE",
"255 321 CURVE SMOOTH",
"151 321 LINE",
"151 416 OFFCURVE",
"176 475 OFFCURVE",
"231 475 CURVE SMOOTH",
"268 475 OFFCURVE",
"286 450 OFFCURVE",
"286 420 CURVE SMOOTH",
"286 392 OFFCURVE",
"275 381 OFFCURVE",
"268 375 CURVE",
"281 369 OFFCURVE",
"294 367 OFFCURVE",
"305 367 CURVE SMOOTH",
"339 367 OFFCURVE",
"363 390 OFFCURVE",
"363 427 CURVE SMOOTH",
"363 475 OFFCURVE",
"306 499 OFFCURVE",
"241 499 CURVE SMOOTH",
"132 499 OFFCURVE",
"71 430 OFFCURVE",
"61 321 CURVE",
"23 312 LINE",
"10 308 OFFCURVE",
"9 305 OFFCURVE",
"9 282 CURVE",
"60 282 LINE",
"60 105 LINE SMOOTH",
"60 63 OFFCURVE",
"55 41 OFFCURVE",
"39 20 CURVE SMOOTH",
"31 10 LINE",
"39 0 LINE",
"195 0 LINE",
"201 17 LINE",
"188 20 LINE SMOOTH",
"157 27 OFFCURVE",
"151 33 OFFCURVE",
"151 66 CURVE SMOOTH",
"151 282 LINE",
"255 282 LINE SMOOTH",
"264 282 OFFCURVE",
"268 278 OFFCURVE",
"268 268 CURVE SMOOTH",
"268 79 LINE SMOOTH",
"268 10 OFFCURVE",
"289 -9 OFFCURVE",
"335 -9 CURVE SMOOTH",
"373 -9 OFFCURVE",
"400 7 OFFCURVE",
"423 32 CURVE",
"415 42 LINE"
);
}
);
width = 421;
}
);
unicode = FB01;
},
{
glyphname = fl;
lastChange = "2016-01-13 12:08:33 +0000";
layers = (
{
hints = (
{
place = "{72.150000, 29.250000}";
},
{
origin = "{0, 26}";
target = "{0, 49}";
},
{
horizontal = 1;
origin = "{0, 31}";
target = "{0, 26}";
},
{
horizontal = 1;
origin = "{0, 52}";
target = "{0, 23}";
},
{
horizontal = 1;
origin = "{0, 37}";
target = up;
type = BottomGhost;
}
);
layerId = "0A9CB6F6-DACD-44D2-9CB9-B84AA124B162";
paths = (
{
closed = 1;
nodes = (
"276 60 LINE SMOOTH",
"276 10 OFFCURVE",
"299 -9 OFFCURVE",
"343 -9 CURVE SMOOTH",
"380 -9 OFFCURVE",
"407 7 OFFCURVE",
"430 32 CURVE",
"422 42 LINE",
"411 33 OFFCURVE",
"397 27 OFFCURVE",
"385 27 CURVE SMOOTH",
"373 27 OFFCURVE",
"367 37 OFFCURVE",
"367 57 CURVE SMOOTH",
"367 469 LINE SMOOTH",
"367 483 OFFCURVE",
"356 490 OFFCURVE",
"340 490 CURVE SMOOTH",
"321 490 OFFCURVE",
"300 485 OFFCURVE",
"280 477 CURVE",
"260 492 OFFCURVE",
"233 499 OFFCURVE",
"207 499 CURVE SMOOTH",
"115 499 OFFCURVE",
"64 432 OFFCURVE",
"61 321 CURVE",
"23 312 LINE SMOOTH",
"10 308 OFFCURVE",
"9 305 OFFCURVE",
"9 282 CURVE",
"60 282 LINE",
"60 105 LINE SMOOTH",
"60 63 OFFCURVE",
"55 41 OFFCURVE",
"39 20 CURVE SMOOTH",
"31 10 LINE",
"39 0 LINE",
"195 0 LINE",
"201 17 LINE",
"188 20 LINE SMOOTH",
"157 27 OFFCURVE",
"151 33 OFFCURVE",
"151 66 CURVE SMOOTH",
"151 282 LINE",
"209 282 LINE",
"218 289 OFFCURVE",
"224 304 OFFCURVE",
"224 321 CURVE",
"151 321 LINE",
"151 421 OFFCURVE",
"163 475 OFFCURVE",
"215 475 CURVE SMOOTH",
"258 475 OFFCURVE",
"276 440 OFFCURVE",
"276 389 CURVE SMOOTH"
);
}
);
width = 429;
}
);
unicode = FB02;
},
{
glyphname = ordfeminine;
lastChange = "2016-01-13 12:08:33 +0000";
layers = (
{
hints = (
{
place = "{9.425000, 18.200000}";
},
{
horizontal = 1;
origin = "{0, 3}";
target = "{0, 10}";
},
{
horizontal = 1;
origin = "{1, 6}";
target = "{0, 37}";
},
{
horizontal = 1;
origin = "{0, 30}";
target = "{0, 17}";
}
);
layerId = "0A9CB6F6-DACD-44D2-9CB9-B84AA124B162";
paths = (
{
closed = 1;
nodes = (
"151 281 LINE",
"155 252 OFFCURVE",
"171 235 OFFCURVE",
"207 235 CURVE SMOOTH",
"231 235 OFFCURVE",
"252 246 OFFCURVE",
"269 265 CURVE",
"261 276 LINE",
"251 267 OFFCURVE",
"241 263 OFFCURVE",
"234 263 CURVE SMOOTH",
"228 263 OFFCURVE",
"224 269 OFFCURVE",
"224 283 CURVE SMOOTH",
"224 402 LINE SMOOTH",
"224 450 OFFCURVE",
"180 476 OFFCURVE",
"120 476 CURVE SMOOTH",
"67 476 OFFCURVE",
"29 454 OFFCURVE",
"29 422 CURVE SMOOTH",
"29 395 OFFCURVE",
"55 382 OFFCURVE",
"108 382 CURVE",
"109 389 LINE",
"97 396 OFFCURVE",
"92 409 OFFCURVE",
"92 421 CURVE SMOOTH",
"92 439 OFFCURVE",
"100 457 OFFCURVE",
"120 457 CURVE SMOOTH",
"138 457 OFFCURVE",
"148 437 OFFCURVE",
"148 395 CURVE SMOOTH",
"148 365 LINE",
"139 367 OFFCURVE",
"124 368 OFFCURVE",
"112 368 CURVE SMOOTH",
"64 368 OFFCURVE",
"14 350 OFFCURVE",
"14 295 CURVE SMOOTH",
"14 255 OFFCURVE",
"43 235 OFFCURVE",
"76 235 CURVE SMOOTH",
"98 235 OFFCURVE",
"126 245 OFFCURVE",
"147 281 CURVE"
);
},
{
closed = 1;
nodes = (
"96 275 OFFCURVE",
"89 292 OFFCURVE",
"89 311 CURVE SMOOTH",
"89 341 OFFCURVE",
"106 352 OFFCURVE",
"124 352 CURVE SMOOTH",
"132 352 OFFCURVE",
"142 350 OFFCURVE",
"149 347 CURVE",
"148 296 OFFCURVE",
"128 275 OFFCURVE",
"111 275 CURVE SMOOTH"
);
}
);
width = 270;
}
);
unicode = 00AA;
},
{
glyphname = ordmasculine;
lastChange = "2016-01-13 12:08:33 +0000";
layers = (
{
hints = (
{
place = "{8.450000, 16.900000}";
},
{
horizontal = 1;
origin = "{1, 3}";
target = "{0, 3}";
},
{
horizontal = 1;
origin = "{0, 9}";
target = "{1, 9}";
}
);
layerId = "0A9CB6F6-DACD-44D2-9CB9-B84AA124B162";
paths = (
{
closed = 1;
nodes = (
"184 294 OFFCURVE",
"165 253 OFFCURVE",
"140 253 CURVE SMOOTH",
"114 253 OFFCURVE",
"98 293 OFFCURVE",
"98 355 CURVE SMOOTH",
"98 417 OFFCURVE",
"116 459 OFFCURVE",
"142 459 CURVE SMOOTH",
"174 459 OFFCURVE",
"184 395 OFFCURVE",
"184 354 CURVE SMOOTH"
);
},
{
closed = 1;
nodes = (
"18 282 OFFCURVE",
"66 235 OFFCURVE",
"141 235 CURVE SMOOTH",
"216 235 OFFCURVE",
"264 282 OFFCURVE",
"264 356 CURVE SMOOTH",
"264 430 OFFCURVE",
"216 476 OFFCURVE",
"141 476 CURVE SMOOTH",
"66 476 OFFCURVE",
"18 430 OFFCURVE",
"18 356 CURVE SMOOTH"
);
}
);
width = 281;
}
);
unicode = 00BA;
},
{
glyphname = pi;
lastChange = "2016-01-13 12:08:33 +0000";
layers = (
{
hints = (
{
origin = "{0, 11}";
target = "{0, 20}";
},
{
horizontal = 1;
origin = "{0, 23}";
target = "{0, 30}";
},
{
horizontal = 1;
origin = "{0, 5}";
target = up;
type = BottomGhost;
},
{
horizontal = 1;
origin = "{0, 39}";
target = down;
type = TopGhost;
}
);
layerId = "0A9CB6F6-DACD-44D2-9CB9-B84AA124B162";
paths = (
{
closed = 1;
nodes = (
"76 66 LINE SMOOTH",
"70 33 OFFCURVE",
"65 25 OFFCURVE",
"42 20 CURVE SMOOTH",
"27 17 LINE",
"31 0 LINE",
"141 0 LINE",
"150 10 LINE",
"144 20 LINE SMOOTH",
"137 33 OFFCURVE",
"134 46 OFFCURVE",
"134 62 CURVE SMOOTH",
"134 74 OFFCURVE",
"135 87 OFFCURVE",
"138 104 CURVE SMOOTH",
"168 275 LINE",
"281 275 LINE",
"244 60 LINE SMOOTH",
"242 49 OFFCURVE",
"241 39 OFFCURVE",
"241 31 CURVE SMOOTH",
"241 3 OFFCURVE",
"253 -9 OFFCURVE",
"279 -9 CURVE SMOOTH",
"300 -9 OFFCURVE",
"331 7 OFFCURVE",
"358 32 CURVE",
"352 42 LINE",
"338 33 OFFCURVE",
"323 27 OFFCURVE",
"312 27 CURVE SMOOTH",
"302 27 OFFCURVE",
"297 33 OFFCURVE",
"297 46 CURVE SMOOTH",
"297 49 OFFCURVE",
"298 53 OFFCURVE",
"298 57 CURVE SMOOTH",
"337 275 LINE",
"404 305 LINE",
"407 323 LINE",
"120 323 LINE SMOOTH",
"72 323 OFFCURVE",
"54 315 OFFCURVE",
"12 226 CURVE",
"23 220 LINE",
"57 260 OFFCURVE",
"85 275 OFFCURVE",
"113 275 CURVE"
);
}
);
width = 413;
}
);
unicode = 03C0;
},
{
glyphname = zero;
lastChange = "2016-01-13 12:08:33 +0000";
layers = (
{
hints = (
{
origin = "{0, 0}";
target = "{1, 0}";
},
{
origin = "{1, 6}";
target = "{0, 6}";
},
{
horizontal = 1;
origin = "{0, 3}";
target = "{1, 9}";
},
{
horizontal = 1;
origin = "{1, 3}";
target = "{0, 9}";
}
);
layerId = "0A9CB6F6-DACD-44D2-9CB9-B84AA124B162";
paths = (
{
closed = 1;
nodes = (
"32 97 OFFCURVE",
"98 -9 OFFCURVE",
"221 -9 CURVE SMOOTH",
"345 -9 OFFCURVE",
"426 100 OFFCURVE",
"426 247 CURVE SMOOTH",
"426 383 OFFCURVE",
"356 476 OFFCURVE",
"238 476 CURVE SMOOTH",
"114 476 OFFCURVE",
"32 373 OFFCURVE",
"32 234 CURVE SMOOTH"
);
},
{
closed = 1;
nodes = (
"133 364 OFFCURVE",
"167 454 OFFCURVE",
"229 454 CURVE SMOOTH",
"290 454 OFFCURVE",
"325 362 OFFCURVE",
"325 233 CURVE SMOOTH",
"325 103 OFFCURVE",
"290 13 OFFCURVE",
"229 13 CURVE SMOOTH",
"167 13 OFFCURVE",
"133 101 OFFCURVE",
"133 233 CURVE SMOOTH"
);
}
);
width = 459;
}
);
unicode = 0030;
},
{
glyphname = one;
lastChange = "2016-01-13 12:08:33 +0000";
layers = (
{
hints = (
{
horizontal = 1;
origin = "{0, 6}";
target = "{0, 8}";
},
{
origin = "{0, 1}";
target = "{0, 12}";
}
);
layerId = "0A9CB6F6-DACD-44D2-9CB9-B84AA124B162";
paths = (
{
closed = 1;
nodes = (
"137 407 LINE",
"137 83 LINE SMOOTH",
"137 44 OFFCURVE",
"130 33 OFFCURVE",
"95 25 CURVE SMOOTH",
"66 18 LINE",
"72 0 LINE",
"262 0 LINE",
"271 10 LINE",
"262 22 LINE SMOOTH",
"240 51 OFFCURVE",
"233 78 OFFCURVE",
"233 131 CURVE SMOOTH",
"233 451 LINE",
"241 463 LINE",
"224 477 LINE",
"9 393 LINE",
"18 367 OFFCURVE",
"32 344 OFFCURVE",
"43 337 CURVE",
"146 403 LINE"
);
}
);
width = 314;
}
);
unicode = 0031;
},
{
color = 4;
glyphname = two;
lastChange = "2016-01-13 18:49:49 +0000";
layers = (
{
hints = (
{
horizontal = 1;
origin = "{0, 9}";
target = "{0, 14}";
},
{
horizontal = 1;
origin = "{0, 26}";
},
{
horizontal = 1;
origin = "{0, 2}";
target = "{0, 20}";
},
{
origin = "{0, 23}";
target = "{0, 29}";
},
{
origin = "{0, 5}";
target = "{0, 17}";
}
);
layerId = "0A9CB6F6-DACD-44D2-9CB9-B84AA124B162";
paths = (
{
closed = 1;
nodes = (
"123 414 OFFCURVE",
"155 455 OFFCURVE",
"194 455 CURVE SMOOTH",
"231 455 OFFCURVE",
"258 413 OFFCURVE",
"258 355 CURVE SMOOTH",
"258 265 OFFCURVE",
"201 189 OFFCURVE",
"17 33 CURVE",
"36 0 LINE",
"354 0 LINE",
"367 12 OFFCURVE",
"376 43 OFFCURVE",
"376 74 CURVE",
"113 74 LINE",
"286 188 OFFCURVE",
"364 275 OFFCURVE",
"364 354 CURVE SMOOTH",
"364 430 OFFCURVE",
"300 476 OFFCURVE",
"194 476 CURVE SMOOTH",
"99 476 OFFCURVE",
"33 430 OFFCURVE",
"33 365 CURVE SMOOTH",
"33 315 OFFCURVE",
"81 281 OFFCURVE",
"155 280 CURVE",
"137 298 OFFCURVE",
"123 335 OFFCURVE",
"123 363 CURVE SMOOTH"
);
}
);
width = 396;
}
);
unicode = 0032;
},
{
color = 4;
glyphname = three;
lastChange = "2016-01-13 18:51:13 +0000";
layers = (
{
hints = (
{
horizontal = 1;
origin = "{0, 8}";
target = "{0, 48}";
},
{
horizontal = 1;
place = "{170.000000, 8.000000}";
},
{
horizontal = 1;
origin = "{0, 32}";
target = "{0, 20}";
},
{
horizontal = 1;
origin = "{0, 26}";
},
{
origin = "{0, 5}";
target = "{0, 51}";
},
{
origin = "{0, 45}";
target = "{0, 11}";
},
{
origin = "{0, 23}";
target = "{0, 29}";
},
{
origin = "{0, 35}";
target = "{0, 17}";
}
);
layerId = "0A9CB6F6-DACD-44D2-9CB9-B84AA124B162";
paths = (
{
closed = 1;
nodes = (
"121 138 OFFCURVE",
"137 161 OFFCURVE",
"153 178 CURVE",
"68 178 OFFCURVE",
"30 141 OFFCURVE",
"30 93 CURVE SMOOTH",
"30 33 OFFCURVE",
"97 -9 OFFCURVE",
"192 -9 CURVE SMOOTH",
"304 -9 OFFCURVE",
"371 39 OFFCURVE",
"371 120 CURVE SMOOTH",
"371 183 OFFCURVE",
"318 229 OFFCURVE",
"230 244 CURVE",
"315 268 OFFCURVE",
"357 309 OFFCURVE",
"357 363 CURVE SMOOTH",
"357 429 OFFCURVE",
"287 476 OFFCURVE",
"191 476 CURVE SMOOTH",
"103 476 OFFCURVE",
"43 436 OFFCURVE",
"43 378 CURVE SMOOTH",
"43 333 OFFCURVE",
"77 299 OFFCURVE",
"151 299 CURVE",
"141 316 OFFCURVE",
"133 343 OFFCURVE",
"133 374 CURVE SMOOTH",
"133 421 OFFCURVE",
"160 453 OFFCURVE",
"193 453 CURVE SMOOTH",
"233 453 OFFCURVE",
"255 417 OFFCURVE",
"255 369 CURVE SMOOTH",
"255 295 OFFCURVE",
"209 263 OFFCURVE",
"110 239 CURVE",
"113 220 LINE",
"131 224 OFFCURVE",
"150 226 OFFCURVE",
"162 226 CURVE SMOOTH",
"228 226 OFFCURVE",
"268 183 OFFCURVE",
"268 114 CURVE SMOOTH",
"268 57 OFFCURVE",
"236 19 OFFCURVE",
"189 19 CURVE SMOOTH",
"152 19 OFFCURVE",
"121 51 OFFCURVE",
"121 95 CURVE SMOOTH"
);
}
);
width = 396;
}
);
unicode = 0033;
},
{
glyphname = four;
lastChange = "2016-01-13 12:08:33 +0000";
layers = (
{
hints = (
{
horizontal = 1;
origin = "{1, 11}";
target = "{1, 13}";
},
{
horizontal = 1;
origin = "{0, 9}";
target = "{0, 4}";
},
{
horizontal = 1;
origin = "{0, 5}";
target = "{0, 7}";
},
{
origin = "{1, 6}";
target = "{1, 17}";
}
);
layerId = "0A9CB6F6-DACD-44D2-9CB9-B84AA124B162";
paths = (
{
closed = 1;
nodes = (
"377 105 LINE",
"388 112 OFFCURVE",
"391 120 OFFCURVE",
"391 133 CURVE",
"77 133 LINE",
"278 457 LINE",
"266 467 LINE",
"175 467 LINE",
"12 123 LINE",
"23 105 LINE"
);
},
{
closed = 1;
nodes = (
"331 311 LINE",
"228 293 LINE",
"221 283 LINE",
"232 266 OFFCURVE",
"235 252 OFFCURVE",
"235 224 CURVE SMOOTH",
"235 83 LINE SMOOTH",
"235 44 OFFCURVE",
"228 33 OFFCURVE",
"193 25 CURVE SMOOTH",
"163 18 LINE",
"170 0 LINE",
"360 0 LINE",
"369 10 LINE",
"360 22 LINE SMOOTH",
"338 52 OFFCURVE",
"331 72 OFFCURVE",
"331 105 CURVE SMOOTH"
);
}
);
width = 404;
}
);
unicode = 0034;
},
{
color = 4;
glyphname = five;
lastChange = "2016-01-13 18:07:56 +0000";
layers = (
{
hints = (
{
horizontal = 1;
origin = "{0, 29}";
target = "{0, 16}";
},
{
horizontal = 1;
origin = "{0, 10}";
target = "{0, 35}";
},
{
horizontal = 1;
origin = "{0, 0}";
target = "{0, 5}";
},
{
horizontal = 1;
origin = "{0, 22}";
target = "{0, 23}";
},
{
place = "{22.750000, 9.425000}";
},
{
origin = "{0, 13}";
target = "{0, 32}";
},
{
origin = "{0, 26}";
target = "{0, 19}";
}
);
layerId = "0A9CB6F6-DACD-44D2-9CB9-B84AA124B162";
paths = (
{
closed = 1;
nodes = (
"86 393 LINE",
"319 393 LINE",
"334 407 OFFCURVE",
"343 435 OFFCURVE",
"343 467 CURVE",
"73 467 LINE",
"61 256 LINE",
"73 233 LINE",
"99 239 OFFCURVE",
"118 241 OFFCURVE",
"134 241 CURVE SMOOTH",
"215 241 OFFCURVE",
"264 198 OFFCURVE",
"264 125 CURVE SMOOTH",
"264 61 OFFCURVE",
"235 19 OFFCURVE",
"191 19 CURVE SMOOTH",
"154 19 OFFCURVE",
"121 51 OFFCURVE",
"121 95 CURVE SMOOTH",
"121 128 OFFCURVE",
"133 156 OFFCURVE",
"155 170 CURVE",
"153 178 LINE",
"79 175 OFFCURVE",
"30 141 OFFCURVE",
"30 93 CURVE SMOOTH",
"30 33 OFFCURVE",
"97 -9 OFFCURVE",
"192 -9 CURVE SMOOTH",
"299 -9 OFFCURVE",
"367 43 OFFCURVE",
"367 125 CURVE SMOOTH",
"367 213 OFFCURVE",
"293 270 OFFCURVE",
"179 270 CURVE SMOOTH",
"150 270 OFFCURVE",
"121 267 OFFCURVE",
"91 261 CURVE",
"99 406 LINE"
);
}
);
width = 396;
}
);
unicode = 0035;
},
{
color = 4;
glyphname = six;
lastChange = "2016-01-13 18:51:42 +0000";
layers = (
{
hints = (
{
horizontal = 1;
origin = "{1, 14}";
target = "{0, 5}";
},
{
horizontal = 1;
origin = "{0, 11}";
target = "{1, 20}";
},
{
horizontal = 1;
origin = "{1, 30}";
target = "{1, 8}";
},
{
origin = "{1, 11}";
target = "{1, 27}";
},
{
origin = "{1, 33}";
target = "{1, 5}";
},
{
origin = "{0, 2}";
target = "{1, 17}";
}
);
layerId = "0A9CB6F6-DACD-44D2-9CB9-B84AA124B162";
paths = (
{
closed = 1;
nodes = (
"260 231 OFFCURVE",
"283 194 OFFCURVE",
"283 132 CURVE SMOOTH",
"283 62 OFFCURVE",
"258 19 OFFCURVE",
"217 19 CURVE SMOOTH",
"180 19 OFFCURVE",
"158 59 OFFCURVE",
"158 127 CURVE SMOOTH",
"158 189 OFFCURVE",
"185 231 OFFCURVE",
"224 231 CURVE SMOOTH"
);
},
{
closed = 1;
nodes = (
"289 362 OFFCURVE",
"283 333 OFFCURVE",
"268 312 CURVE",
"347 312 OFFCURVE",
"380 345 OFFCURVE",
"380 388 CURVE SMOOTH",
"380 439 OFFCURVE",
"323 476 OFFCURVE",
"243 476 CURVE SMOOTH",
"113 476 OFFCURVE",
"31 373 OFFCURVE",
"31 213 CURVE SMOOTH",
"31 79 OFFCURVE",
"107 -9 OFFCURVE",
"223 -9 CURVE SMOOTH",
"323 -9 OFFCURVE",
"388 50 OFFCURVE",
"388 142 CURVE SMOOTH",
"388 216 OFFCURVE",
"337 262 OFFCURVE",
"257 262 CURVE SMOOTH",
"191 262 OFFCURVE",
"154 234 OFFCURVE",
"141 174 CURVE",
"137 174 LINE",
"134 185 OFFCURVE",
"133 198 OFFCURVE",
"133 212 CURVE SMOOTH",
"133 354 OFFCURVE",
"173 452 OFFCURVE",
"232 452 CURVE SMOOTH",
"264 452 OFFCURVE",
"289 424 OFFCURVE",
"289 380 CURVE SMOOTH"
);
}
);
width = 429;
}
);
unicode = 0036;
},
{
glyphname = seven;
lastChange = "2016-01-13 12:08:33 +0000";
layers = (
{
hints = (
{
horizontal = 1;
origin = "{0, 2}";
target = "{0, 5}";
},
{
horizontal = 1;
origin = "{0, 17}";
target = "{0, 16}";
}
);
layerId = "0A9CB6F6-DACD-44D2-9CB9-B84AA124B162";
paths = (
{
closed = 1;
nodes = (
"273 404 LINE",
"280 393 LINE",
"32 393 LINE",
"19 407 OFFCURVE",
"10 436 OFFCURVE",
"10 467 CURVE",
"316 467 LINE",
"328 450 LINE",
"209 123 LINE SMOOTH",
"199 96 OFFCURVE",
"195 80 OFFCURVE",
"195 61 CURVE SMOOTH",
"195 46 OFFCURVE",
"199 33 OFFCURVE",
"204 22 CURVE SMOOTH",
"211 10 LINE",
"203 0 LINE",
"37 0 LINE",
"31 18 LINE",
"45 22 LINE SMOOTH",
"78 31 OFFCURVE",
"93 44 OFFCURVE",
"112 83 CURVE SMOOTH"
);
}
);
width = 331;
}
);
unicode = 0037;
},
{
color = 4;
glyphname = eight;
lastChange = "2016-01-13 18:07:56 +0000";
layers = (
{
hints = (
{
horizontal = 1;
origin = "{0, 6}";
target = "{0, 37}";
},
{
horizontal = 1;
origin = "{0, 15}";
target = "{0, 28}";
},
{
origin = "{0, 31}";
target = "{0, 12}";
},
{
origin = "{0, 34}";
target = "{0, 9}";
},
{
origin = "{0, 18}";
target = "{0, 25}";
},
{
origin = "{0, 3}";
target = "{0, 40}";
}
);
layerId = "0A9CB6F6-DACD-44D2-9CB9-B84AA124B162";
paths = (
{
closed = 1;
nodes = (
"179 228 LINE",
"90 216 OFFCURVE",
"33 166 OFFCURVE",
"33 99 CURVE SMOOTH",
"33 32 OFFCURVE",
"94 -10 OFFCURVE",
"193 -10 CURVE SMOOTH",
"307 -10 OFFCURVE",
"380 42 OFFCURVE",
"380 123 CURVE SMOOTH",
"380 267 OFFCURVE",
"138 262 OFFCURVE",
"138 389 CURVE SMOOTH",
"138 425 OFFCURVE",
"170 453 OFFCURVE",
"210 453 CURVE SMOOTH",
"251 453 OFFCURVE",
"282 421 OFFCURVE",
"282 374 CURVE SMOOTH",
"282 325 OFFCURVE",
"260 284 OFFCURVE",
"224 258 CURVE",
"232 250 LINE",
"313 261 OFFCURVE",
"370 305 OFFCURVE",
"370 367 CURVE SMOOTH",
"370 434 OFFCURVE",
"312 477 OFFCURVE",
"217 477 CURVE SMOOTH",
"111 477 OFFCURVE",
"40 424 OFFCURVE",
"40 346 CURVE SMOOTH",
"40 194 OFFCURVE",
"280 195 OFFCURVE",
"280 84 CURVE SMOOTH",
"280 42 OFFCURVE",
"247 13 OFFCURVE",
"199 13 CURVE SMOOTH",
"154 13 OFFCURVE",
"120 47 OFFCURVE",
"120 98 CURVE SMOOTH",
"120 148 OFFCURVE",
"145 195 OFFCURVE",
"185 222 CURVE"
);
}
);
width = 409;
}
);
unicode = 0038;
},
{
color = 4;
glyphname = nine;
lastChange = "2016-01-13 18:51:59 +0000";
layers = (
{
hints = (
{
horizontal = 1;
origin = "{1, 8}";
target = "{1, 30}";
},
{
horizontal = 1;
place = "{137.000000, 8.000000}";
},
{
horizontal = 1;
origin = "{1, 20}";
target = "{0, 11}";
},
{
horizontal = 1;
origin = "{1, 14}";
target = "{0, 5}";
},
{
origin = "{1, 5}";
target = "{1, 33}";
},
{
origin = "{1, 27}";
target = "{1, 11}";
},
{
origin = "{1, 17}";
target = "{0, 2}";
}
);
layerId = "0A9CB6F6-DACD-44D2-9CB9-B84AA124B162";
paths = (
{
closed = 1;
nodes = (
"174 228 OFFCURVE",
"149 273 OFFCURVE",
"149 337 CURVE SMOOTH",
"149 401 OFFCURVE",
"176 447 OFFCURVE",
"215 447 CURVE SMOOTH",
"251 447 OFFCURVE",
"276 400 OFFCURVE",
"276 336 CURVE SMOOTH",
"276 273 OFFCURVE",
"249 228 OFFCURVE",
"210 228 CURVE SMOOTH"
);
},
{
closed = 1;
nodes = (
"141 96 OFFCURVE",
"145 125 OFFCURVE",
"161 145 CURVE",
"93 144 OFFCURVE",
"53 118 OFFCURVE",
"53 77 CURVE SMOOTH",
"53 27 OFFCURVE",
"107 -9 OFFCURVE",
"182 -9 CURVE SMOOTH",
"310 -9 OFFCURVE",
"388 83 OFFCURVE",
"388 233 CURVE SMOOTH",
"388 382 OFFCURVE",
"321 476 OFFCURVE",
"213 476 CURVE SMOOTH",
"115 476 OFFCURVE",
"43 410 OFFCURVE",
"43 320 CURVE SMOOTH",
"43 244 OFFCURVE",
"93 189 OFFCURVE",
"165 189 CURVE SMOOTH",
"217 189 OFFCURVE",
"258 212 OFFCURVE",
"280 254 CURVE",
"284 253 LINE",
"285 233 OFFCURVE",
"286 211 OFFCURVE",
"286 197 CURVE SMOOTH",
"286 85 OFFCURVE",
"254 15 OFFCURVE",
"193 15 CURVE SMOOTH",
"162 15 OFFCURVE",
"141 38 OFFCURVE",
"141 74 CURVE SMOOTH"
);
}
);
width = 429;
}
);
unicode = 0039;
},
{
glyphname = zero.osf;
lastChange = "2016-01-13 12:19:32 +0000";
layers = (
{
hints = (
{
origin = "{1, 0}";
target = "{0, 0}";
},
{
origin = "{0, 6}";
target = "{1, 6}";
},
{
horizontal = 1;
origin = "{1, 3}";
target = "{0, 9}";
},
{
horizontal = 1;
origin = "{0, 3}";
target = "{1, 9}";
}
);
layerId = "0A9CB6F6-DACD-44D2-9CB9-B84AA124B162";
paths = (
{
closed = 1;
nodes = (
"123 260 OFFCURVE",
"142 308 OFFCURVE",
"185 308 CURVE SMOOTH",
"239 308 OFFCURVE",
"272 224 OFFCURVE",
"272 129 CURVE SMOOTH",
"272 64 OFFCURVE",
"253 15 OFFCURVE",
"210 15 CURVE SMOOTH",
"142 15 OFFCURVE",
"123 136 OFFCURVE",
"123 196 CURVE SMOOTH"
);
},
{
closed = 1;
nodes = (
"25 81 OFFCURVE",
"67 -9 OFFCURVE",
"191 -9 CURVE SMOOTH",
"308 -9 OFFCURVE",
"374 73 OFFCURVE",
"374 171 CURVE SMOOTH",
"374 261 OFFCURVE",
"316 332 OFFCURVE",
"207 332 CURVE SMOOTH",
"93 332 OFFCURVE",
"25 255 OFFCURVE",
"25 162 CURVE SMOOTH"
);
}
);
width = 398;
}
);
},
{
glyphname = one.osf;
lastChange = "2016-01-13 12:20:02 +0000";
layers = (
{
hints = (
{
origin = "{0, 5}";
target = "{0, 0}";
},
{
horizontal = 1;
origin = "{0, 0}";
target = down;
type = TopGhost;
},
{
horizontal = 1;
origin = "{0, 11}";
target = up;
type = BottomGhost;
}
);
layerId = "0A9CB6F6-DACD-44D2-9CB9-B84AA124B162";
paths = (
{
closed = 1;
nodes = (
"204 332 LINE",
"1 303 LINE",
"1 275 OFFCURVE",
"11 248 OFFCURVE",
"27 240 CURVE",
"113 273 LINE",
"113 83 LINE SMOOTH",
"113 42 OFFCURVE",
"99 32 OFFCURVE",
"66 25 CURVE SMOOTH",
"30 18 LINE",
"36 0 LINE",
"253 0 LINE",
"255 10 LINE",
"240 22 LINE SMOOTH",
"212 44 OFFCURVE",
"204 69 OFFCURVE",
"204 131 CURVE SMOOTH"
);
}
);
width = 286;
}
);
},
{
glyphname = two.osf;
lastChange = "2016-01-13 12:20:17 +0000";
layers = (
{
hints = (
{
origin = "{0, 24}";
target = "{0, 0}";
},
{
origin = "{0, 6}";
target = "{0, 18}";
},
{
horizontal = 1;
origin = "{0, 3}";
target = "{0, 21}";
},
{
horizontal = 1;
origin = "{0, 10}";
target = up;
type = BottomGhost;
}
);
layerId = "0A9CB6F6-DACD-44D2-9CB9-B84AA124B162";
paths = (
{
closed = 1;
nodes = (
"121 288 OFFCURVE",
"147 310 OFFCURVE",
"176 310 CURVE SMOOTH",
"203 310 OFFCURVE",
"228 288 OFFCURVE",
"228 242 CURVE SMOOTH",
"228 190 OFFCURVE",
"209 136 OFFCURVE",
"18 30 CURVE",
"35 0 LINE",
"324 0 LINE",
"341 14 OFFCURVE",
"346 51 OFFCURVE",
"346 70 CURVE",
"135 70 LINE",
"269 123 OFFCURVE",
"329 180 OFFCURVE",
"329 234 CURVE SMOOTH",
"329 296 OFFCURVE",
"267 332 OFFCURVE",
"176 332 CURVE SMOOTH",
"97 332 OFFCURVE",
"28 301 OFFCURVE",
"28 244 CURVE SMOOTH",
"28 194 OFFCURVE",
"77 168 OFFCURVE",
"142 167 CURVE",
"144 175 LINE",
"128 191 OFFCURVE",
"121 217 OFFCURVE",
"121 244 CURVE SMOOTH"
);
}
);
width = 360;
}
);
},
{
glyphname = three.osf;
lastChange = "2016-01-13 12:22:49 +0000";
layers = (
{
hints = (
{
origin = "{0, 16}";
target = "{0, 6}";
},
{
origin = "{0, 34}";
target = "{0, 41}";
},
{
origin = "{0, 50}";
target = "{0, 28}";
},
{
origin = "{0, 0}";
target = "{0, 22}";
},
{
horizontal = 1;
origin = "{0, 19}";
target = "{0, 3}";
},
{
horizontal = 1;
origin = "{0, 44}";
target = "{0, 31}";
}
);
layerId = "0A9CB6F6-DACD-44D2-9CB9-B84AA124B162";
paths = (
{
closed = 1;
nodes = (
"250 -69 OFFCURVE",
"217 -100 OFFCURVE",
"179 -100 CURVE SMOOTH",
"148 -100 OFFCURVE",
"119 -78 OFFCURVE",
"115 -38 CURVE SMOOTH",
"113 -28 OFFCURVE",
"114 -18 OFFCURVE",
"115 -8 CURVE SMOOTH",
"118 13 OFFCURVE",
"128 32 OFFCURVE",
"145 44 CURVE",
"143 51 LINE",
"80 49 OFFCURVE",
"20 23 OFFCURVE",
"20 -30 CURVE SMOOTH",
"20 -92 OFFCURVE",
"92 -126 OFFCURVE",
"177 -126 CURVE SMOOTH",
"282 -126 OFFCURVE",
"351 -82 OFFCURVE",
"351 -3 CURVE SMOOTH",
"351 53 OFFCURVE",
"304 100 OFFCURVE",
"210 115 CURVE",
"289 137 OFFCURVE",
"338 173 OFFCURVE",
"338 228 CURVE SMOOTH",
"338 297 OFFCURVE",
"256 332 OFFCURVE",
"178 332 CURVE SMOOTH",
"99 332 OFFCURVE",
"31 299 OFFCURVE",
"31 241 CURVE SMOOTH",
"31 190 OFFCURVE",
"79 165 OFFCURVE",
"144 164 CURVE",
"146 171 LINE",
"130 187 OFFCURVE",
"124 214 OFFCURVE",
"124 240 CURVE SMOOTH",
"124 281 OFFCURVE",
"145 303 OFFCURVE",
"169 306 CURVE SMOOTH",
"178 308 OFFCURVE",
"187 307 OFFCURVE",
"196 304 CURVE SMOOTH",
"217 296 OFFCURVE",
"236 272 OFFCURVE",
"236 231 CURVE SMOOTH",
"236 193 OFFCURVE",
"224 139 OFFCURVE",
"119 114 CURVE SMOOTH",
"91 108 LINE",
"94 89 LINE",
"103 91 OFFCURVE",
"126 96 OFFCURVE",
"144 96 CURVE SMOOTH",
"237 96 OFFCURVE",
"250 32 OFFCURVE",
"250 -3 CURVE SMOOTH"
);
}
);
width = 380;
}
);
},
{
glyphname = four.osf;
lastChange = "2016-01-13 12:22:56 +0000";
layers = (
{
hints = (
{
origin = "{1, 5}";
target = "{1, 0}";
},
{
horizontal = 1;
origin = "{0, 5}";
target = "{0, 0}";
},
{
horizontal = 1;
origin = "{0, 2}";
target = down;
type = TopGhost;
},
{
horizontal = 1;
origin = "{1, 11}";
target = up;
type = BottomGhost;
}
);
layerId = "0A9CB6F6-DACD-44D2-9CB9-B84AA124B162";
paths = (
{
closed = 1;
nodes = (
"66 34 LINE",
"254 313 LINE",
"241 323 LINE",
"163 323 LINE",
"10 16 LINE",
"21 0 LINE",
"350 0 LINE",
"364 8 OFFCURVE",
"368 22 OFFCURVE",
"368 34 CURVE"
);
},
{
closed = 1;
nodes = (
"311 192 LINE",
"210 173 LINE",
"203 164 LINE",
"214 145 OFFCURVE",
"217 132 OFFCURVE",
"217 104 CURVE SMOOTH",
"217 -34 LINE SMOOTH",
"217 -75 OFFCURVE",
"208 -84 OFFCURVE",
"175 -92 CURVE SMOOTH",
"145 -99 LINE",
"152 -117 LINE",
"340 -117 LINE",
"349 -107 LINE",
"338 -95 LINE SMOOTH",
"320 -74 OFFCURVE",
"311 -57 OFFCURVE",
"311 -16 CURVE SMOOTH"
);
}
);
width = 372;
}
);
},
{
glyphname = five.osf;
lastChange = "2016-01-13 12:23:03 +0000";
layers = (
{
hints = (
{
origin = "{0, 7}";
target = "{0, 0}";
},
{
origin = "{0, 34}";
target = "{0, 13}";
},
{
horizontal = 1;
origin = "{0, 10}";
target = "{0, 37}";
},
{
horizontal = 1;
origin = "{0, 31}";
target = "{0, 16}";
},
{
horizontal = 1;
origin = "{0, 25}";
target = down;
type = TopGhost;
}
);
layerId = "0A9CB6F6-DACD-44D2-9CB9-B84AA124B162";
paths = (
{
closed = 1;
nodes = (
"119 7 OFFCURVE",
"130 38 OFFCURVE",
"156 56 CURVE",
"154 64 LINE",
"88 61 OFFCURVE",
"26 32 OFFCURVE",
"26 -25 CURVE SMOOTH",
"26 -90 OFFCURVE",
"99 -125 OFFCURVE",
"182 -125 CURVE SMOOTH",
"286 -125 OFFCURVE",
"354 -76 OFFCURVE",
"354 6 CURVE SMOOTH",
"354 88 OFFCURVE",
"294 151 OFFCURVE",
"167 151 CURVE SMOOTH",
"143 151 OFFCURVE",
"117 148 OFFCURVE",
"88 143 CURVE",
"98 273 LINE",
"87 253 LINE",
"310 253 LINE",
"329 269 OFFCURVE",
"334 300 OFFCURVE",
"334 323 CURVE",
"70 323 LINE",
"56 136 LINE",
"69 112 LINE",
"92 118 OFFCURVE",
"112 121 OFFCURVE",
"129 121 CURVE SMOOTH",
"232 121 OFFCURVE",
"253 54 OFFCURVE",
"253 6 CURVE SMOOTH",
"253 -66 OFFCURVE",
"222 -99 OFFCURVE",
"183 -99 CURVE SMOOTH",
"148 -99 OFFCURVE",
"119 -71 OFFCURVE",
"119 -23 CURVE SMOOTH"
);
}
);
width = 368;
}
);
},
{
glyphname = six.osf;
lastChange = "2016-01-13 12:23:09 +0000";
layers = (
{
hints = (
{
origin = "{1, 6}";
target = "{1, 22}";
},
{
origin = "{0, 3}";
target = "{1, 0}";
},
{
origin = "{0, 3}";
target = "{1, 12}";
},
{
horizontal = 1;
origin = "{1, 9}";
target = "{0, 6}";
},
{
horizontal = 1;
origin = "{0, 0}";
target = "{1, 15}";
},
{
horizontal = 1;
origin = "{1, 25}";
target = "{1, 3}";
}
);
layerId = "0A9CB6F6-DACD-44D2-9CB9-B84AA124B162";
paths = (
{
closed = 1;
nodes = (
"264 241 OFFCURVE",
"282 192 OFFCURVE",
"282 132 CURVE SMOOTH",
"282 68 OFFCURVE",
"258 19 OFFCURVE",
"214 19 CURVE SMOOTH",
"170 19 OFFCURVE",
"153 67 OFFCURVE",
"153 126 CURVE SMOOTH",
"153 187 OFFCURVE",
"177 241 OFFCURVE",
"222 241 CURVE SMOOTH"
);
},
{
closed = 1;
nodes = (
"373 427 OFFCURVE",
"317 463 OFFCURVE",
"237 463 CURVE SMOOTH",
"98 463 OFFCURVE",
"29 344 OFFCURVE",
"29 203 CURVE SMOOTH",
"29 88 OFFCURVE",
"92 -9 OFFCURVE",
"219 -9 CURVE SMOOTH",
"329 -9 OFFCURVE",
"385 59 OFFCURVE",
"385 142 CURVE SMOOTH",
"385 215 OFFCURVE",
"342 272 OFFCURVE",
"254 272 CURVE SMOOTH",
"188 272 OFFCURVE",
"149 236 OFFCURVE",
"137 174 CURVE",
"133 174 LINE",
"130 185 OFFCURVE",
"130 199 OFFCURVE",
"130 211 CURVE SMOOTH",
"130 314 OFFCURVE",
"156 439 OFFCURVE",
"226 439 CURVE SMOOTH",
"259 439 OFFCURVE",
"280 413 OFFCURVE",
"280 372 CURVE SMOOTH",
"280 348 OFFCURVE",
"273 325 OFFCURVE",
"255 312 CURVE",
"257 304 LINE",
"318 304 OFFCURVE",
"373 330 OFFCURVE",
"373 378 CURVE SMOOTH"
);
}
);
width = 417;
}
);
},
{
glyphname = seven.osf;
lastChange = "2016-01-13 12:23:15 +0000";
layers = (
{
hints = (
{
horizontal = 1;
origin = "{0, 0}";
target = down;
type = TopGhost;
},
{
horizontal = 1;
origin = "{0, 10}";
target = up;
type = BottomGhost;
}
);
layerId = "0A9CB6F6-DACD-44D2-9CB9-B84AA124B162";
paths = (
{
closed = 1;
nodes = (
"267 323 LINE",
"278 307 LINE",
"155 13 LINE SMOOTH",
"143 -15 OFFCURVE",
"140 -36 OFFCURVE",
"140 -54 CURVE SMOOTH",
"140 -69 OFFCURVE",
"142 -83 OFFCURVE",
"148 -95 CURVE SMOOTH",
"155 -107 LINE",
"146 -117 LINE",
"-6 -117 LINE",
"-12 -99 LINE",
"3 -95 LINE SMOOTH",
"37 -86 OFFCURVE",
"51 -68 OFFCURVE",
"71 -31 CURVE SMOOTH",
"224 263 LINE",
"231 253 LINE",
"-1 253 LINE",
"-18 269 OFFCURVE",
"-23 300 OFFCURVE",
"-23 323 CURVE"
);
}
);
width = 288;
}
);
},
{
glyphname = eight.osf;
lastChange = "2016-01-13 12:23:21 +0000";
layers = (
{
hints = (
{
origin = "{0, 31}";
target = "{0, 40}";
},
{
origin = "{0, 34}";
target = "{0, 25}";
},
{
origin = "{0, 34}";
target = "{0, 9}";
},
{
origin = "{0, 31}";
target = "{0, 12}";
},
{
horizontal = 1;
origin = "{0, 6}";
target = "{0, 37}";
},
{
horizontal = 1;
origin = "{0, 15}";
target = "{0, 28}";
}
);
layerId = "0A9CB6F6-DACD-44D2-9CB9-B84AA124B162";
paths = (
{
closed = 1;
nodes = (
"186 234 LINE",
"104 223 OFFCURVE",
"30 176 OFFCURVE",
"30 97 CURVE SMOOTH",
"30 25 OFFCURVE",
"96 -11 OFFCURVE",
"187 -11 CURVE SMOOTH",
"295 -11 OFFCURVE",
"370 37 OFFCURVE",
"370 119 CURVE SMOOTH",
"370 259 OFFCURVE",
"135 254 OFFCURVE",
"135 377 CURVE SMOOTH",
"135 407 OFFCURVE",
"160 439 OFFCURVE",
"204 439 CURVE SMOOTH",
"248 439 OFFCURVE",
"269 402 OFFCURVE",
"269 360 CURVE SMOOTH",
"269 315 OFFCURVE",
"246 266 OFFCURVE",
"206 238 CURVE",
"214 230 LINE",
"302 239 OFFCURVE",
"361 293 OFFCURVE",
"361 353 CURVE SMOOTH",
"361 426 OFFCURVE",
"297 463 OFFCURVE",
"211 463 CURVE SMOOTH",
"106 463 OFFCURVE",
"37 410 OFFCURVE",
"37 335 CURVE SMOOTH",
"37 187 OFFCURVE",
"271 189 OFFCURVE",
"271 81 CURVE SMOOTH",
"271 43 OFFCURVE",
"242 12 OFFCURVE",
"193 12 CURVE SMOOTH",
"146 12 OFFCURVE",
"122 51 OFFCURVE",
"122 97 CURVE SMOOTH",
"122 144 OFFCURVE",
"145 197 OFFCURVE",
"192 227 CURVE"
);
}
);
width = 401;
}
);
},
{
glyphname = nine.osf;
lastChange = "2016-01-13 12:23:29 +0000";
layers = (
{
hints = (
{
horizontal = 1;
place = "{16.900000, 13.000000}";
},
{
origin = "{1, 19}";
target = "{0, 3}";
},
{
origin = "{1, 7}";
target = "{0, 3}";
},
{
origin = "{0, 9}";
target = "{1, 13}";
},
{
origin = "{1, 29}";
target = "{1, 13}";
},
{
horizontal = 1;
origin = "{1, 10}";
target = "{1, 32}";
},
{
horizontal = 1;
origin = "{0, 6}";
target = "{1, 16}";
}
);
layerId = "0A9CB6F6-DACD-44D2-9CB9-B84AA124B162";
paths = (
{
closed = 1;
nodes = (
"153 97 OFFCURVE",
"132 149 OFFCURVE",
"132 201 CURVE SMOOTH",
"132 253 OFFCURVE",
"154 306 OFFCURVE",
"198 306 CURVE SMOOTH",
"238 306 OFFCURVE",
"259 253 OFFCURVE",
"259 201 CURVE SMOOTH",
"259 149 OFFCURVE",
"237 97 OFFCURVE",
"192 97 CURVE SMOOTH"
);
},
{
closed = 1;
nodes = (
"130 -18 OFFCURVE",
"138 6 OFFCURVE",
"155 18 CURVE",
"153 25 LINE",
"79 25 OFFCURVE",
"39 -2 OFFCURVE",
"39 -43 CURVE SMOOTH",
"39 -92 OFFCURVE",
"97 -126 OFFCURVE",
"175 -126 CURVE SMOOTH",
"308 -126 OFFCURVE",
"370 -23 OFFCURVE",
"370 107 CURVE SMOOTH",
"370 230 OFFCURVE",
"315 332 OFFCURVE",
"197 332 CURVE SMOOTH",
"84 332 OFFCURVE",
"29 256 OFFCURVE",
"29 183 CURVE SMOOTH",
"29 119 OFFCURVE",
"69 55 OFFCURVE",
"148 55 CURVE SMOOTH",
"203 55 OFFCURVE",
"242 84 OFFCURVE",
"262 127 CURVE",
"267 126 LINE",
"267 119 OFFCURVE",
"269 103 OFFCURVE",
"269 91 CURVE SMOOTH",
"269 -4 OFFCURVE",
"247 -103 OFFCURVE",
"181 -103 CURVE SMOOTH",
"150 -103 OFFCURVE",
"130 -79 OFFCURVE",
"130 -41 CURVE SMOOTH"
);
}
);
width = 405;
}
);
},
{
glyphname = fraction;
lastChange = "2016-01-13 12:08:33 +0000";
layers = (
{
hints = (
{
horizontal = 1;
origin = "{0, 0}";
target = up;
type = BottomGhost;
},
{
horizontal = 1;
origin = "{0, 1}";
target = down;
type = TopGhost;
}
);
layerId = "0A9CB6F6-DACD-44D2-9CB9-B84AA124B162";
paths = (
{
closed = 1;
nodes = (
"-17 -20 LINE",
"178 486 LINE",
"144 486 LINE",
"-50 -20 LINE"
);
}
);
width = 128;
}
);
unicode = 2044;
},
{
glyphname = zero.dnom;
lastChange = "2016-01-13 12:08:33 +0000";
layers = (
{
hints = (
{
origin = "{0, 0}";
target = "{1, 0}";
},
{
origin = "{1, 6}";
target = "{0, 6}";
},
{
horizontal = 1;
origin = "{0, 3}";
target = "{1, 9}";
},
{
horizontal = 1;
origin = "{1, 3}";
target = "{0, 9}";
}
);
layerId = "0A9CB6F6-DACD-44D2-9CB9-B84AA124B162";
paths = (
{
closed = 1;
nodes = (
"23 48 OFFCURVE",
"70 -9 OFFCURVE",
"144 -9 CURVE SMOOTH",
"222 -9 OFFCURVE",
"275 54 OFFCURVE",
"275 146 CURVE SMOOTH",
"275 232 OFFCURVE",
"228 285 OFFCURVE",
"154 285 CURVE SMOOTH",
"77 285 OFFCURVE",
"23 224 OFFCURVE",
"23 138 CURVE SMOOTH"
);
},
{
closed = 1;
nodes = (
"101 214 OFFCURVE",
"119 263 OFFCURVE",
"148 263 CURVE SMOOTH",
"178 263 OFFCURVE",
"196 215 OFFCURVE",
"196 137 CURVE SMOOTH",
"196 60 OFFCURVE",
"178 14 OFFCURVE",
"148 14 CURVE SMOOTH",
"119 14 OFFCURVE",
"101 61 OFFCURVE",
"101 137 CURVE SMOOTH"
);
}
);
width = 299;
}
);
},
{
glyphname = one.dnom;
lastChange = "2016-01-13 12:08:33 +0000";
layers = (
{
hints = (
{
origin = "{0, 9}";
target = "{0, 0}";
},
{
horizontal = 1;
origin = "{0, 4}";
target = down;
type = TopGhost;
},
{
horizontal = 1;
origin = "{0, 15}";
target = up;
type = BottomGhost;
}
);
layerId = "0A9CB6F6-DACD-44D2-9CB9-B84AA124B162";
paths = (
{
closed = 1;
nodes = (
"156 262 LINE",
"166 269 LINE",
"161 278 OFFCURVE",
"155 283 OFFCURVE",
"147 286 CURVE",
"4 233 LINE",
"6 216 OFFCURVE",
"22 195 OFFCURVE",
"37 192 CURVE",
"80 220 LINE",
"80 53 LINE SMOOTH",
"80 30 OFFCURVE",
"76 24 OFFCURVE",
"58 20 CURVE SMOOTH",
"37 16 LINE",
"43 0 LINE",
"172 0 LINE",
"178 8 LINE",
"173 16 LINE SMOOTH",
"160 37 OFFCURVE",
"156 53 OFFCURVE",
"156 80 CURVE SMOOTH"
);
}
);
width = 225;
}
);
},
{
glyphname = two.dnom;
lastChange = "2016-01-13 12:08:33 +0000";
layers = (
{
hints = (
{
origin = "{0, 0}";
target = "{0, 7}";
},
{
origin = "{0, 13}";
target = "{0, 25}";
},
{
horizontal = 1;
origin = "{0, 10}";
target = "{0, 28}";
},
{
horizontal = 1;
origin = "{0, 17}";
target = up;
type = BottomGhost;
}
);
layerId = "0A9CB6F6-DACD-44D2-9CB9-B84AA124B162";
paths = (
{
closed = 1;
nodes = (
"22 181 OFFCURVE",
"53 162 OFFCURVE",
"108 161 CURVE",
"110 168 LINE",
"100 176 OFFCURVE",
"93 195 OFFCURVE",
"93 215 CURVE SMOOTH",
"93 243 OFFCURVE",
"107 263 OFFCURVE",
"126 263 CURVE SMOOTH",
"145 263 OFFCURVE",
"158 242 OFFCURVE",
"158 211 CURVE SMOOTH",
"158 156 OFFCURVE",
"123 110 OFFCURVE",
"12 22 CURVE",
"24 0 LINE",
"226 0 LINE",
"238 9 OFFCURVE",
"244 25 OFFCURVE",
"244 47 CURVE",
"80 47 LINE",
"186 104 OFFCURVE",
"237 156 OFFCURVE",
"237 206 CURVE SMOOTH",
"237 256 OFFCURVE",
"197 285 OFFCURVE",
"126 285 CURVE SMOOTH",
"65 285 OFFCURVE",
"22 256 OFFCURVE",
"22 215 CURVE SMOOTH"
);
}
);
width = 261;
}
);
},
{
glyphname = three.dnom;
lastChange = "2016-01-13 12:08:33 +0000";
layers = (
{
hints = (
{
origin = "{0, 7}";
target = "{0, 0}";
},
{
origin = "{0, 25}";
target = "{0, 32}";
},
{
origin = "{0, 38}";
target = "{0, 19}";
},
{
origin = "{0, 49}";
target = "{0, 13}";
},
{
horizontal = 1;
origin = "{0, 10}";
target = "{0, 52}";
},
{
horizontal = 1;
origin = "{0, 35}";
target = "{0, 22}";
}
);
layerId = "0A9CB6F6-DACD-44D2-9CB9-B84AA124B162";
paths = (
{
closed = 1;
nodes = (
"91 75 OFFCURVE",
"96 89 OFFCURVE",
"105 98 CURVE",
"103 105 LINE",
"51 104 OFFCURVE",
"20 86 OFFCURVE",
"20 56 CURVE SMOOTH",
"20 17 OFFCURVE",
"62 -9 OFFCURVE",
"125 -9 CURVE SMOOTH",
"196 -9 OFFCURVE",
"238 20 OFFCURVE",
"238 69 CURVE SMOOTH",
"238 107 OFFCURVE",
"214 135 OFFCURVE",
"174 144 CURVE",
"212 160 OFFCURVE",
"230 183 OFFCURVE",
"230 216 CURVE SMOOTH",
"230 256 OFFCURVE",
"188 285 OFFCURVE",
"129 285 CURVE SMOOTH",
"70 285 OFFCURVE",
"28 260 OFFCURVE",
"28 225 CURVE SMOOTH",
"28 192 OFFCURVE",
"57 173 OFFCURVE",
"109 172 CURVE",
"111 179 LINE",
"104 187 OFFCURVE",
"99 206 OFFCURVE",
"99 225 CURVE SMOOTH",
"99 246 OFFCURVE",
"110 263 OFFCURVE",
"124 263 CURVE SMOOTH",
"142 263 OFFCURVE",
"155 242 OFFCURVE",
"155 214 CURVE SMOOTH",
"155 178 OFFCURVE",
"132 153 OFFCURVE",
"88 142 CURVE SMOOTH",
"72 138 LINE",
"75 124 LINE",
"83 126 OFFCURVE",
"90 128 OFFCURVE",
"106 128 CURVE SMOOTH",
"141 128 OFFCURVE",
"162 107 OFFCURVE",
"162 72 CURVE SMOOTH",
"162 37 OFFCURVE",
"146 14 OFFCURVE",
"123 14 CURVE SMOOTH",
"102 14 OFFCURVE",
"91 29 OFFCURVE",
"91 58 CURVE SMOOTH"
);
}
);
width = 261;
}
);
},
{
glyphname = four.dnom;
lastChange = "2016-01-13 12:08:33 +0000";
layers = (
{
hints = (
{
origin = "{1, 5}";
target = "{1, 0}";
},
{
horizontal = 1;
origin = "{0, 0}";
target = "{0, 5}";
},
{
horizontal = 1;
origin = "{0, 7}";
target = down;
type = TopGhost;
},
{
horizontal = 1;
origin = "{1, 11}";
target = up;
type = BottomGhost;
}
);
layerId = "0A9CB6F6-DACD-44D2-9CB9-B84AA124B162";
paths = (
{
closed = 1;
nodes = (
"19 63 LINE",
"236 63 LINE",
"243 68 OFFCURVE",
"247 77 OFFCURVE",
"247 90 CURVE",
"59 90 LINE",
"176 272 LINE",
"168 280 LINE",
"99 280 LINE",
"11 74 LINE"
);
},
{
closed = 1;
nodes = (
"214 181 LINE",
"139 176 LINE",
"134 168 LINE",
"141 158 OFFCURVE",
"143 150 OFFCURVE",
"143 133 CURVE SMOOTH",
"143 53 LINE SMOOTH",
"143 32 OFFCURVE",
"138 24 OFFCURVE",
"120 20 CURVE SMOOTH",
"102 16 LINE",
"106 0 LINE",
"231 0 LINE",
"238 8 LINE",
"232 16 LINE SMOOTH",
"219 33 OFFCURVE",
"214 46 OFFCURVE",
"214 63 CURVE SMOOTH"
);
}
);
width = 260;
}
);
},
{
glyphname = five.dnom;
lastChange = "2016-01-13 12:08:33 +0000";
layers = (
{
hints = (
{
origin = "{0, 36}";
target = "{0, 29}";
},
{
origin = "{0, 23}";
target = "{0, 3}";
},
{
horizontal = 1;
origin = "{0, 0}";
target = "{0, 26}";
},
{
horizontal = 1;
origin = "{0, 20}";
target = "{0, 6}";
},
{
horizontal = 1;
origin = "{0, 14}";
target = down;
type = TopGhost;
}
);
layerId = "0A9CB6F6-DACD-44D2-9CB9-B84AA124B162";
paths = (
{
closed = 1;
nodes = (
"195 -9 OFFCURVE",
"239 23 OFFCURVE",
"239 73 CURVE SMOOTH",
"239 124 OFFCURVE",
"189 161 OFFCURVE",
"119 161 CURVE SMOOTH",
"99 161 OFFCURVE",
"85 159 OFFCURVE",
"71 154 CURVE",
"75 232 LINE",
"203 232 LINE",
"215 241 OFFCURVE",
"221 258 OFFCURVE",
"221 280 CURVE",
"48 280 LINE",
"41 149 LINE",
"51 132 LINE",
"73 136 OFFCURVE",
"82 137 OFFCURVE",
"89 137 CURVE SMOOTH",
"135 137 OFFCURVE",
"163 113 OFFCURVE",
"163 73 CURVE SMOOTH",
"163 38 OFFCURVE",
"147 14 OFFCURVE",
"123 14 CURVE SMOOTH",
"102 14 OFFCURVE",
"91 29 OFFCURVE",
"91 58 CURVE SMOOTH",
"91 75 OFFCURVE",
"96 89 OFFCURVE",
"105 98 CURVE",
"103 105 LINE",
"51 104 OFFCURVE",
"20 86 OFFCURVE",
"20 56 CURVE SMOOTH",
"20 17 OFFCURVE",
"63 -9 OFFCURVE",
"126 -9 CURVE SMOOTH"
);
}
);
width = 261;
}
);
},
{
glyphname = six.dnom;
lastChange = "2016-01-13 12:08:33 +0000";
layers = (
{
hints = (
{
horizontal = 1;
origin = "{1, 15}";
target = "{0, 5}";
},
{
horizontal = 1;
origin = "{0, 11}";
target = "{1, 21}";
},
{
horizontal = 1;
origin = "{1, 28}";
target = "{1, 9}";
},
{
origin = "{1, 12}";
target = "{1, 25}";
},
{
origin = "{1, 31}";
target = "{1, 6}";
},
{
origin = "{0, 2}";
target = "{1, 18}";
}
);
layerId = "0A9CB6F6-DACD-44D2-9CB9-B84AA124B162";
paths = (
{
closed = 1;
nodes = (
"160 140 OFFCURVE",
"171 116 OFFCURVE",
"171 78 CURVE SMOOTH",
"171 39 OFFCURVE",
"159 14 OFFCURVE",
"139 14 CURVE SMOOTH",
"121 14 OFFCURVE",
"111 36 OFFCURVE",
"111 74 CURVE SMOOTH",
"111 113 OFFCURVE",
"124 140 OFFCURVE",
"142 140 CURVE SMOOTH"
);
},
{
closed = 1;
nodes = (
"174 211 OFFCURVE",
"167 195 OFFCURVE",
"158 189 CURVE",
"160 182 LINE",
"212 182 OFFCURVE",
"245 201 OFFCURVE",
"245 231 CURVE SMOOTH",
"245 263 OFFCURVE",
"209 285 OFFCURVE",
"156 285 CURVE SMOOTH",
"73 285 OFFCURVE",
"20 223 OFFCURVE",
"20 125 CURVE SMOOTH",
"20 44 OFFCURVE",
"69 -9 OFFCURVE",
"143 -9 CURVE SMOOTH",
"208 -9 OFFCURVE",
"250 27 OFFCURVE",
"250 83 CURVE SMOOTH",
"250 132 OFFCURVE",
"219 163 OFFCURVE",
"169 163 CURVE SMOOTH",
"135 163 OFFCURVE",
"112 150 OFFCURVE",
"99 125 CURVE",
"95 125 LINE",
"95 206 OFFCURVE",
"117 263 OFFCURVE",
"148 263 CURVE SMOOTH",
"164 263 OFFCURVE",
"174 248 OFFCURVE",
"174 224 CURVE SMOOTH"
);
}
);
width = 281;
}
);
},
{
glyphname = seven.dnom;
lastChange = "2016-01-13 12:08:33 +0000";
layers = (
{
hints = (
{
horizontal = 1;
origin = "{0, 4}";
target = "{0, 1}";
}
);
layerId = "0A9CB6F6-DACD-44D2-9CB9-B84AA124B162";
paths = (
{
closed = 1;
nodes = (
"201 280 LINE",
"-5 280 LINE",
"-5 258 OFFCURVE",
"1 241 OFFCURVE",
"13 232 CURVE",
"149 232 LINE",
"52 45 LINE SMOOTH",
"42 28 OFFCURVE",
"33 20 OFFCURVE",
"16 17 CURVE SMOOTH",
"9 16 LINE",
"13 0 LINE",
"127 0 LINE",
"135 8 LINE",
"133 12 LINE SMOOTH",
"128 22 OFFCURVE",
"126 29 OFFCURVE",
"126 38 CURVE SMOOTH",
"126 48 OFFCURVE",
"129 62 OFFCURVE",
"135 79 CURVE SMOOTH",
"208 269 LINE"
);
}
);
width = 208;
}
);
},
{
glyphname = eight.dnom;
lastChange = "2016-01-13 12:08:33 +0000";
layers = (
{
hints = (
{
horizontal = 1;
origin = "{0, 21}";
target = "{0, 8}";
},
{
horizontal = 1;
origin = "{0, 30}";
target = "{0, 43}";
},
{
origin = "{0, 18}";
target = "{0, 11}";
},
{
origin = "{0, 33}";
target = "{0, 40}";
},
{
origin = "{0, 2}";
target = "{0, 27}";
},
{
origin = "{0, 5}";
target = "{0, 24}";
}
);
layerId = "0A9CB6F6-DACD-44D2-9CB9-B84AA124B162";
paths = (
{
closed = 1;
nodes = (
"72 288 OFFCURVE",
"27 255 OFFCURVE",
"27 204 CURVE SMOOTH",
"27 107 OFFCURVE",
"176 111 OFFCURVE",
"176 52 CURVE SMOOTH",
"176 30 OFFCURVE",
"159 14 OFFCURVE",
"134 14 CURVE SMOOTH",
"108 14 OFFCURVE",
"93 31 OFFCURVE",
"93 61 CURVE SMOOTH",
"93 97 OFFCURVE",
"111 125 OFFCURVE",
"142 138 CURVE",
"133 143 LINE",
"65 140 OFFCURVE",
"21 107 OFFCURVE",
"21 60 CURVE SMOOTH",
"21 17 OFFCURVE",
"61 -9 OFFCURVE",
"126 -9 CURVE SMOOTH",
"200 -9 OFFCURVE",
"247 23 OFFCURVE",
"247 73 CURVE SMOOTH",
"247 167 OFFCURVE",
"97 164 OFFCURVE",
"97 229 CURVE SMOOTH",
"97 250 OFFCURVE",
"113 265 OFFCURVE",
"133 265 CURVE SMOOTH",
"156 265 OFFCURVE",
"170 249 OFFCURVE",
"170 222 CURVE SMOOTH",
"170 191 OFFCURVE",
"154 164 OFFCURVE",
"127 152 CURVE",
"128 146 LINE",
"194 148 OFFCURVE",
"241 179 OFFCURVE",
"241 221 CURVE SMOOTH",
"241 262 OFFCURVE",
"203 288 OFFCURVE",
"141 288 CURVE SMOOTH"
);
}
);
width = 268;
}
);
},
{
glyphname = nine.dnom;
lastChange = "2016-01-13 12:08:33 +0000";
layers = (
{
hints = (
{
horizontal = 1;
origin = "{0, 2}";
target = "{0, 21}";
},
{
horizontal = 1;
origin = "{0, 27}";
target = "{0, 28}";
},
{
horizontal = 1;
origin = "{0, 14}";
target = "{1, 11}";
},
{
horizontal = 1;
origin = "{1, 5}";
target = "{0, 8}";
},
{
origin = "{0, 31}";
target = "{0, 24}";
},
{
origin = "{0, 18}";
target = "{0, 5}";
},
{
origin = "{0, 11}";
target = "{1, 2}";
}
);
layerId = "0A9CB6F6-DACD-44D2-9CB9-B84AA124B162";
paths = (
{
closed = 1;
nodes = (
"36 12 OFFCURVE",
"73 -9 OFFCURVE",
"127 -9 CURVE SMOOTH",
"205 -9 OFFCURVE",
"253 44 OFFCURVE",
"253 131 CURVE SMOOTH",
"253 229 OFFCURVE",
"211 285 OFFCURVE",
"138 285 CURVE SMOOTH",
"76 285 OFFCURVE",
"30 243 OFFCURVE",
"30 187 CURVE SMOOTH",
"30 145 OFFCURVE",
"63 114 OFFCURVE",
"107 114 CURVE SMOOTH",
"136 114 OFFCURVE",
"159 124 OFFCURVE",
"174 143 CURVE",
"178 143 LINE",
"178 54 OFFCURVE",
"164 16 OFFCURVE",
"132 16 CURVE SMOOTH",
"117 16 OFFCURVE",
"107 29 OFFCURVE",
"107 49 CURVE SMOOTH",
"107 63 OFFCURVE",
"113 81 OFFCURVE",
"119 88 CURVE",
"118 95 LINE",
"67 95 OFFCURVE",
"36 75 OFFCURVE",
"36 43 CURVE SMOOTH"
);
},
{
closed = 1;
nodes = (
"122 139 OFFCURVE",
"110 163 OFFCURVE",
"110 200 CURVE SMOOTH",
"110 237 OFFCURVE",
"123 263 OFFCURVE",
"142 263 CURVE SMOOTH",
"160 263 OFFCURVE",
"174 236 OFFCURVE",
"174 199 CURVE SMOOTH",
"174 164 OFFCURVE",
"160 139 OFFCURVE",
"140 139 CURVE SMOOTH"
);
}
);
width = 281;
}
);
},
{
glyphname = zero.numr;
lastChange = "2016-01-13 12:08:33 +0000";
layers = (
{
hints = (
{
origin = "{0, 0}";
target = "{1, 0}";
},
{
origin = "{1, 6}";
target = "{0, 6}";
},
{
horizontal = 1;
origin = "{0, 3}";
target = "{1, 9}";
},
{
horizontal = 1;
origin = "{1, 3}";
target = "{0, 9}";
}
);
layerId = "0A9CB6F6-DACD-44D2-9CB9-B84AA124B162";
paths = (
{
closed = 1;
nodes = (
"23 238 OFFCURVE",
"70 181 OFFCURVE",
"144 181 CURVE SMOOTH",
"222 181 OFFCURVE",
"275 244 OFFCURVE",
"275 336 CURVE SMOOTH",
"275 422 OFFCURVE",
"228 475 OFFCURVE",
"154 475 CURVE SMOOTH",
"77 475 OFFCURVE",
"23 414 OFFCURVE",
"23 328 CURVE SMOOTH"
);
},
{
closed = 1;
nodes = (
"101 404 OFFCURVE",
"119 453 OFFCURVE",
"148 453 CURVE SMOOTH",
"178 453 OFFCURVE",
"196 405 OFFCURVE",
"196 327 CURVE SMOOTH",
"196 250 OFFCURVE",
"178 204 OFFCURVE",
"148 204 CURVE SMOOTH",
"119 204 OFFCURVE",
"101 251 OFFCURVE",
"101 327 CURVE SMOOTH"
);
}
);
width = 299;
}
);
},
{
glyphname = one.numr;
lastChange = "2016-01-13 12:08:33 +0000";
layers = (
{
hints = (
{
place = "{10.000000, 10.000000}";
},
{
horizontal = 1;
place = "{10.000000, -20.000000}";
target = down;
type = TopGhost;
},
{
horizontal = 1;
place = "{10.000000, 21.000000}";
target = up;
type = BottomGhost;
}
);
layerId = "0A9CB6F6-DACD-44D2-9CB9-B84AA124B162";
paths = (
{
closed = 1;
nodes = (
"156 452 LINE",
"166 459 LINE",
"161 468 OFFCURVE",
"155 473 OFFCURVE",
"147 476 CURVE",
"4 423 LINE",
"6 406 OFFCURVE",
"22 385 OFFCURVE",
"37 382 CURVE",
"80 410 LINE",
"80 243 LINE SMOOTH",
"80 220 OFFCURVE",
"76 214 OFFCURVE",
"58 210 CURVE SMOOTH",
"37 206 LINE",
"43 190 LINE",
"172 190 LINE",
"178 198 LINE",
"173 206 LINE SMOOTH",
"160 227 OFFCURVE",
"156 243 OFFCURVE",
"156 270 CURVE SMOOTH"
);
}
);
width = 225;
}
);
},
{
glyphname = two.numr;
lastChange = "2016-01-13 12:08:33 +0000";
layers = (
{
hints = (
{
place = "{10.000000, 10.000000}";
},
{
place = "{10.000000, 10.000000}";
},
{
horizontal = 1;
place = "{10.000000, 10.000000}";
},
{
horizontal = 1;
place = "{10.000000, 21.000000}";
target = up;
type = BottomGhost;
}
);
layerId = "0A9CB6F6-DACD-44D2-9CB9-B84AA124B162";
paths = (
{
closed = 1;
nodes = (
"22 371 OFFCURVE",
"53 352 OFFCURVE",
"108 351 CURVE",
"110 358 LINE",
"100 366 OFFCURVE",
"93 385 OFFCURVE",
"93 405 CURVE SMOOTH",
"93 433 OFFCURVE",
"107 453 OFFCURVE",
"126 453 CURVE SMOOTH",
"145 453 OFFCURVE",
"158 432 OFFCURVE",
"158 401 CURVE SMOOTH",
"158 346 OFFCURVE",
"123 300 OFFCURVE",
"12 212 CURVE",
"24 190 LINE",
"226 190 LINE",
"238 199 OFFCURVE",
"244 215 OFFCURVE",
"244 237 CURVE",
"80 237 LINE",
"186 294 OFFCURVE",
"237 346 OFFCURVE",
"237 396 CURVE SMOOTH",
"237 446 OFFCURVE",
"197 475 OFFCURVE",
"126 475 CURVE SMOOTH",
"65 475 OFFCURVE",
"22 446 OFFCURVE",
"22 405 CURVE SMOOTH"
);
}
);
width = 261;
}
);
},
{
glyphname = three.numr;
lastChange = "2016-01-13 12:08:33 +0000";
layers = (
{
hints = (
{
place = "{10.000000, 10.000000}";
},
{
place = "{10.000000, 10.000000}";
},
{
place = "{10.000000, 10.000000}";
},
{
place = "{10.000000, 10.000000}";
},
{
horizontal = 1;
place = "{10.000000, 10.000000}";
},
{
horizontal = 1;
place = "{10.000000, 10.000000}";
}
);
layerId = "0A9CB6F6-DACD-44D2-9CB9-B84AA124B162";
paths = (
{
closed = 1;
nodes = (
"91 265 OFFCURVE",
"96 279 OFFCURVE",
"105 288 CURVE",
"103 295 LINE",
"51 294 OFFCURVE",
"20 276 OFFCURVE",
"20 246 CURVE SMOOTH",
"20 207 OFFCURVE",
"62 181 OFFCURVE",
"125 181 CURVE SMOOTH",
"196 181 OFFCURVE",
"238 210 OFFCURVE",
"238 259 CURVE SMOOTH",
"238 297 OFFCURVE",
"214 325 OFFCURVE",
"174 334 CURVE",
"212 350 OFFCURVE",
"230 373 OFFCURVE",
"230 406 CURVE SMOOTH",
"230 446 OFFCURVE",
"188 475 OFFCURVE",
"129 475 CURVE SMOOTH",
"70 475 OFFCURVE",
"28 450 OFFCURVE",
"28 415 CURVE SMOOTH",
"28 382 OFFCURVE",
"57 363 OFFCURVE",
"109 362 CURVE",
"111 369 LINE",
"104 377 OFFCURVE",
"99 396 OFFCURVE",
"99 415 CURVE SMOOTH",
"99 436 OFFCURVE",
"110 453 OFFCURVE",
"124 453 CURVE SMOOTH",
"142 453 OFFCURVE",
"155 432 OFFCURVE",
"155 404 CURVE SMOOTH",
"155 368 OFFCURVE",
"132 343 OFFCURVE",
"88 332 CURVE SMOOTH",
"72 328 LINE",
"75 314 LINE",
"83 316 OFFCURVE",
"90 318 OFFCURVE",
"106 318 CURVE SMOOTH",
"141 318 OFFCURVE",
"162 297 OFFCURVE",
"162 262 CURVE SMOOTH",
"162 227 OFFCURVE",
"146 204 OFFCURVE",
"123 204 CURVE SMOOTH",
"102 204 OFFCURVE",
"91 219 OFFCURVE",
"91 248 CURVE SMOOTH"
);
}
);
width = 261;
}
);
},
{
glyphname = four.numr;
lastChange = "2016-01-13 12:08:33 +0000";
layers = (
{
hints = (
{
place = "{10.000000, 10.000000}";
},
{
horizontal = 1;
place = "{10.000000, 10.000000}";
},
{
horizontal = 1;
place = "{10.000000, -20.000000}";
target = down;
type = TopGhost;
},
{
horizontal = 1;
place = "{10.000000, 21.000000}";
target = up;
type = BottomGhost;
}
);
layerId = "0A9CB6F6-DACD-44D2-9CB9-B84AA124B162";
paths = (
{
closed = 1;
nodes = (
"19 253 LINE",
"236 253 LINE",
"243 258 OFFCURVE",
"247 267 OFFCURVE",
"247 280 CURVE",
"59 280 LINE",
"176 462 LINE",
"168 470 LINE",
"99 470 LINE",
"11 264 LINE"
);
},
{
closed = 1;
nodes = (
"214 371 LINE",
"139 366 LINE",
"134 358 LINE",
"141 348 OFFCURVE",
"143 340 OFFCURVE",
"143 323 CURVE SMOOTH",
"143 243 LINE SMOOTH",
"143 222 OFFCURVE",
"138 214 OFFCURVE",
"120 210 CURVE SMOOTH",
"102 206 LINE",
"106 190 LINE",
"231 190 LINE",
"238 198 LINE",
"232 206 LINE SMOOTH",
"219 223 OFFCURVE",
"214 236 OFFCURVE",
"214 253 CURVE SMOOTH"
);
}
);
width = 260;
}
);
},
{
glyphname = five.numr;
lastChange = "2016-01-13 12:08:33 +0000";
layers = (
{
hints = (
{
place = "{10.000000, 10.000000}";
},
{
place = "{10.000000, 10.000000}";
},
{
horizontal = 1;
place = "{10.000000, 10.000000}";
},
{
horizontal = 1;
place = "{10.000000, 10.000000}";
},
{
horizontal = 1;
place = "{10.000000, -20.000000}";
target = down;
type = TopGhost;
}
);
layerId = "0A9CB6F6-DACD-44D2-9CB9-B84AA124B162";
paths = (
{
closed = 1;
nodes = (
"195 181 OFFCURVE",
"239 213 OFFCURVE",
"239 263 CURVE SMOOTH",
"239 314 OFFCURVE",
"189 351 OFFCURVE",
"119 351 CURVE SMOOTH",
"99 351 OFFCURVE",
"85 349 OFFCURVE",
"71 344 CURVE",
"75 422 LINE",
"203 422 LINE",
"215 431 OFFCURVE",
"221 448 OFFCURVE",
"221 470 CURVE",
"48 470 LINE",
"41 339 LINE",
"51 322 LINE",
"73 326 OFFCURVE",
"82 327 OFFCURVE",
"89 327 CURVE SMOOTH",
"135 327 OFFCURVE",
"163 303 OFFCURVE",
"163 263 CURVE SMOOTH",
"163 228 OFFCURVE",
"147 204 OFFCURVE",
"123 204 CURVE SMOOTH",
"102 204 OFFCURVE",
"91 219 OFFCURVE",
"91 248 CURVE SMOOTH",
"91 265 OFFCURVE",
"96 279 OFFCURVE",
"105 288 CURVE",
"103 295 LINE",
"51 294 OFFCURVE",
"20 276 OFFCURVE",
"20 246 CURVE SMOOTH",
"20 207 OFFCURVE",
"63 181 OFFCURVE",
"126 181 CURVE SMOOTH"
);
}
);
width = 261;
}
);
},
{
glyphname = six.numr;
lastChange = "2016-01-13 12:08:33 +0000";
layers = (
{
hints = (
{
horizontal = 1;
place = "{10.000000, 10.000000}";
},
{
horizontal = 1;
place = "{10.000000, 10.000000}";
},
{
horizontal = 1;
place = "{10.000000, 10.000000}";
},
{
place = "{10.000000, 10.000000}";
},
{
place = "{10.000000, 10.000000}";
},
{
place = "{10.000000, 10.000000}";
}
);
layerId = "0A9CB6F6-DACD-44D2-9CB9-B84AA124B162";
paths = (
{
closed = 1;
nodes = (
"160 330 OFFCURVE",
"171 306 OFFCURVE",
"171 268 CURVE SMOOTH",
"171 229 OFFCURVE",
"159 204 OFFCURVE",
"139 204 CURVE SMOOTH",
"121 204 OFFCURVE",
"111 226 OFFCURVE",
"111 264 CURVE SMOOTH",
"111 303 OFFCURVE",
"124 330 OFFCURVE",
"142 330 CURVE SMOOTH"
);
},
{
closed = 1;
nodes = (
"174 401 OFFCURVE",
"167 385 OFFCURVE",
"158 379 CURVE",
"160 372 LINE",
"212 372 OFFCURVE",
"245 391 OFFCURVE",
"245 421 CURVE SMOOTH",
"245 453 OFFCURVE",
"209 475 OFFCURVE",
"156 475 CURVE SMOOTH",
"73 475 OFFCURVE",
"20 413 OFFCURVE",
"20 315 CURVE SMOOTH",
"20 234 OFFCURVE",
"69 181 OFFCURVE",
"143 181 CURVE SMOOTH",
"208 181 OFFCURVE",
"250 217 OFFCURVE",
"250 273 CURVE SMOOTH",
"250 322 OFFCURVE",
"219 353 OFFCURVE",
"169 353 CURVE SMOOTH",
"135 353 OFFCURVE",
"112 340 OFFCURVE",
"99 315 CURVE",
"95 315 LINE",
"95 396 OFFCURVE",
"117 453 OFFCURVE",
"148 453 CURVE SMOOTH",
"164 453 OFFCURVE",
"174 438 OFFCURVE",
"174 414 CURVE SMOOTH"
);
}
);
width = 281;
}
);
},
{
glyphname = seven.numr;
lastChange = "2016-01-13 12:08:33 +0000";
layers = (
{
hints = (
{
horizontal = 1;
place = "{10.000000, 10.000000}";
}
);
layerId = "0A9CB6F6-DACD-44D2-9CB9-B84AA124B162";
paths = (
{
closed = 1;
nodes = (
"201 470 LINE",
"-5 470 LINE",
"-5 448 OFFCURVE",
"1 431 OFFCURVE",
"13 422 CURVE",
"149 422 LINE",
"52 235 LINE SMOOTH",
"42 218 OFFCURVE",
"33 210 OFFCURVE",
"16 207 CURVE SMOOTH",
"9 206 LINE",
"13 190 LINE",
"127 190 LINE",
"135 198 LINE",
"133 202 LINE SMOOTH",
"128 212 OFFCURVE",
"126 219 OFFCURVE",
"126 228 CURVE SMOOTH",
"126 238 OFFCURVE",
"129 252 OFFCURVE",
"135 269 CURVE SMOOTH",
"208 459 LINE"
);
}
);
width = 208;
}
);
},
{
glyphname = eight.numr;
lastChange = "2016-01-13 12:08:33 +0000";
layers = (
{
hints = (
{
horizontal = 1;
place = "{10.000000, 10.000000}";
},
{
horizontal = 1;
place = "{10.000000, 10.000000}";
},
{
place = "{10.000000, 10.000000}";
},
{
place = "{10.000000, 10.000000}";
},
{
place = "{10.000000, 10.000000}";
},
{
place = "{10.000000, 10.000000}";
}
);
layerId = "0A9CB6F6-DACD-44D2-9CB9-B84AA124B162";
paths = (
{
closed = 1;
nodes = (
"72 478 OFFCURVE",
"27 445 OFFCURVE",
"27 394 CURVE SMOOTH",
"27 297 OFFCURVE",
"176 301 OFFCURVE",
"176 242 CURVE SMOOTH",
"176 220 OFFCURVE",
"159 204 OFFCURVE",
"134 204 CURVE SMOOTH",
"108 204 OFFCURVE",
"93 221 OFFCURVE",
"93 251 CURVE SMOOTH",
"93 287 OFFCURVE",
"111 315 OFFCURVE",
"142 328 CURVE",
"133 333 LINE",
"65 330 OFFCURVE",
"21 297 OFFCURVE",
"21 250 CURVE SMOOTH",
"21 207 OFFCURVE",
"61 181 OFFCURVE",
"126 181 CURVE SMOOTH",
"200 181 OFFCURVE",
"247 213 OFFCURVE",
"247 263 CURVE SMOOTH",
"247 357 OFFCURVE",
"97 354 OFFCURVE",
"97 419 CURVE SMOOTH",
"97 440 OFFCURVE",
"113 455 OFFCURVE",
"133 455 CURVE SMOOTH",
"156 455 OFFCURVE",
"170 439 OFFCURVE",
"170 412 CURVE SMOOTH",
"170 381 OFFCURVE",
"154 354 OFFCURVE",
"127 342 CURVE",
"128 336 LINE",
"194 338 OFFCURVE",
"241 369 OFFCURVE",
"241 411 CURVE SMOOTH",
"241 452 OFFCURVE",
"203 478 OFFCURVE",
"141 478 CURVE SMOOTH"
);
}
);
width = 268;
}
);
},
{
glyphname = nine.numr;
lastChange = "2016-01-13 12:08:33 +0000";
layers = (
{
hints = (
{
horizontal = 1;
place = "{10.000000, 10.000000}";
},
{
horizontal = 1;
place = "{10.000000, 10.000000}";
},
{
horizontal = 1;
place = "{10.000000, 10.000000}";
},
{
horizontal = 1;
place = "{10.000000, 10.000000}";
},
{
place = "{10.000000, 10.000000}";
},
{
place = "{10.000000, 10.000000}";
},
{
place = "{10.000000, 10.000000}";
}
);
layerId = "0A9CB6F6-DACD-44D2-9CB9-B84AA124B162";
paths = (
{
closed = 1;
nodes = (
"36 202 OFFCURVE",
"73 181 OFFCURVE",
"127 181 CURVE SMOOTH",
"205 181 OFFCURVE",
"253 234 OFFCURVE",
"253 321 CURVE SMOOTH",
"253 419 OFFCURVE",
"211 475 OFFCURVE",
"138 475 CURVE SMOOTH",
"76 475 OFFCURVE",
"30 433 OFFCURVE",
"30 377 CURVE SMOOTH",
"30 335 OFFCURVE",
"63 304 OFFCURVE",
"107 304 CURVE SMOOTH",
"136 304 OFFCURVE",
"159 314 OFFCURVE",
"174 333 CURVE",
"178 333 LINE",
"178 244 OFFCURVE",
"164 206 OFFCURVE",
"132 206 CURVE SMOOTH",
"117 206 OFFCURVE",
"107 219 OFFCURVE",
"107 239 CURVE SMOOTH",
"107 253 OFFCURVE",
"113 271 OFFCURVE",
"119 278 CURVE",
"118 285 LINE",
"67 285 OFFCURVE",
"36 265 OFFCURVE",
"36 233 CURVE SMOOTH"
);
},
{
closed = 1;
nodes = (
"122 329 OFFCURVE",
"110 353 OFFCURVE",
"110 390 CURVE SMOOTH",
"110 427 OFFCURVE",
"123 453 OFFCURVE",
"142 453 CURVE SMOOTH",
"160 453 OFFCURVE",
"174 426 OFFCURVE",
"174 389 CURVE SMOOTH",
"174 354 OFFCURVE",
"160 329 OFFCURVE",
"140 329 CURVE SMOOTH"
);
}
);
width = 281;
}
);
},
{
glyphname = asterisk;
lastChange = "2016-01-13 12:08:33 +0000";
layers = (
{
hints = (
{
horizontal = 1;
origin = "{0, 3}";
target = down;
type = TopGhost;
},
{
horizontal = 1;
origin = "{2, 3}";
target = up;
type = BottomGhost;
}
);
layerId = "0A9CB6F6-DACD-44D2-9CB9-B84AA124B162";
paths = (
{
closed = 1;
nodes = (
"235 527 LINE",
"219 533 OFFCURVE",
"202 537 OFFCURVE",
"183 537 CURVE SMOOTH",
"164 537 OFFCURVE",
"147 533 OFFCURVE",
"131 527 CURVE",
"178 394 LINE",
"188 394 LINE"
);
},
{
closed = 1;
nodes = (
"72 485 LINE",
"54 462 OFFCURVE",
"42 434 OFFCURVE",
"41 403 CURVE SMOOTH",
"40 397 OFFCURVE",
"40 391 OFFCURVE",
"40 385 CURVE",
"181 388 LINE",
"185 398 LINE"
);
},
{
closed = 1;
nodes = (
"63 317 LINE",
"84 286 OFFCURVE",
"112 265 OFFCURVE",
"148 255 CURVE",
"188 390 LINE",
"179 397 LINE"
);
},
{
closed = 1;
nodes = (
"219 255 LINE",
"254 266 OFFCURVE",
"284 287 OFFCURVE",
"304 317 CURVE",
"187 397 LINE",
"178 390 LINE"
);
},
{
closed = 1;
nodes = (
"326 385 LINE",
"327 391 OFFCURVE",
"326 397 OFFCURVE",
"326 403 CURVE SMOOTH",
"324 434 OFFCURVE",
"312 462 OFFCURVE",
"294 485 CURVE",
"182 398 LINE",
"185 388 LINE"
);
}
);
width = 373;
}
);
unicode = 002A;
},
{
glyphname = backslash;
lastChange = "2016-01-13 12:08:33 +0000";
layers = (
{
hints = (
{
horizontal = 1;
origin = "{0, 0}";
target = up;
type = BottomGhost;
},
{
horizontal = 1;
origin = "{0, 1}";
target = down;
type = TopGhost;
}
);
layerId = "0A9CB6F6-DACD-44D2-9CB9-B84AA124B162";
paths = (
{
closed = 1;
nodes = (
"235 -41 LINE",
"40 508 LINE",
"7 508 LINE",
"202 -41 LINE"
);
}
);
width = 241;
}
);
unicode = 005C;
},
{
glyphname = comma;
lastChange = "2016-01-13 12:08:33 +0000";
layers = (
{
hints = (
{
place = "{20.800000, 19.500000}";
},
{
horizontal = 1;
place = "{-26.000000, 21.000000}";
target = up;
type = BottomGhost;
},
{
horizontal = 1;
origin = "{0, 1}";
target = down;
type = TopGhost;
}
);
layerId = "0A9CB6F6-DACD-44D2-9CB9-B84AA124B162";
paths = (
{
closed = 1;
nodes = (
"16 87 LINE",
"19 68 LINE",
"31 60 LINE SMOOTH",
"43 50 OFFCURVE",
"48 38 OFFCURVE",
"48 26 CURVE SMOOTH",
"48 14 OFFCURVE",
"44 2 OFFCURVE",
"39 -8 CURVE SMOOTH",
"10 -73 LINE",
"37 -91 LINE",
"68 -57 LINE SMOOTH",
"102 -17 OFFCURVE",
"127 14 OFFCURVE",
"127 50 CURVE SMOOTH",
"127 88 OFFCURVE",
"104 102 OFFCURVE",
"74 102 CURVE SMOOTH",
"58 102 OFFCURVE",
"41 100 OFFCURVE",
"24 91 CURVE SMOOTH"
);
}
);
width = 144;
}
);
unicode = 002C;
},
{
glyphname = ellipsis;
lastChange = "2016-01-13 12:08:33 +0000";
layers = (
{
hints = (
{
horizontal = 1;
place = "{24.700000, -20.000000}";
target = down;
type = TopGhost;
},
{
horizontal = 1;
place = "{24.700000, -20.000000}";
target = down;
type = TopGhost;
},
{
horizontal = 1;
place = "{24.700000, -20.000000}";
target = down;
type = TopGhost;
},
{
horizontal = 1;
origin = "{0, 3}";
target = up;
type = BottomGhost;
}
);
layerId = "0A9CB6F6-DACD-44D2-9CB9-B84AA124B162";
paths = (
{
closed = 1;
nodes = (
"22 25 OFFCURVE",
"55 -9 OFFCURVE",
"76 -9 CURVE SMOOTH",
"97 -9 OFFCURVE",
"131 25 OFFCURVE",
"131 48 CURVE SMOOTH",
"131 71 OFFCURVE",
"97 106 OFFCURVE",
"76 106 CURVE SMOOTH",
"54 106 OFFCURVE",
"22 71 OFFCURVE",
"22 48 CURVE SMOOTH"
);
},
{
closed = 1;
nodes = (
"176 25 OFFCURVE",
"209 -9 OFFCURVE",
"229 -9 CURVE SMOOTH",
"252 -9 OFFCURVE",
"285 25 OFFCURVE",
"285 48 CURVE SMOOTH",
"285 71 OFFCURVE",
"252 106 OFFCURVE",
"229 106 CURVE SMOOTH",
"209 106 OFFCURVE",
"176 71 OFFCURVE",
"176 48 CURVE SMOOTH"
);
},
{
closed = 1;
nodes = (
"329 25 OFFCURVE",
"362 -9 OFFCURVE",
"382 -9 CURVE SMOOTH",
"405 -9 OFFCURVE",
"437 25 OFFCURVE",
"437 48 CURVE SMOOTH",
"437 71 OFFCURVE",
"405 106 OFFCURVE",
"382 106 CURVE SMOOTH",
"362 106 OFFCURVE",
"329 71 OFFCURVE",
"329 48 CURVE SMOOTH"
);
}
);
width = 460;
}
);
unicode = 2026;
},
{
glyphname = exclam;
lastChange = "2016-01-13 12:08:33 +0000";
layers = (
{
hints = (
{
horizontal = 1;
origin = "{0, 2}";
target = "{0, 8}";
},
{
origin = "{1, 2}";
target = "{0, 5}";
}
);
layerId = "0A9CB6F6-DACD-44D2-9CB9-B84AA124B162";
paths = (
{
closed = 1;
nodes = (
"33 25 OFFCURVE",
"64 -9 OFFCURVE",
"84 -9 CURVE SMOOTH",
"105 -9 OFFCURVE",
"138 23 OFFCURVE",
"138 46 CURVE SMOOTH",
"138 68 OFFCURVE",
"105 101 OFFCURVE",
"84 101 CURVE SMOOTH",
"64 101 OFFCURVE",
"33 67 OFFCURVE",
"33 46 CURVE SMOOTH"
);
},
{
closed = 1;
nodes = (
"61 495 OFFCURVE",
"37 488 OFFCURVE",
"26 477 CURVE",
"26 428 OFFCURVE",
"57 221 OFFCURVE",
"76 138 CURVE",
"93 138 LINE",
"112 221 OFFCURVE",
"142 429 OFFCURVE",
"142 477 CURVE",
"131 488 OFFCURVE",
"107 495 OFFCURVE",
"84 495 CURVE SMOOTH"
);
}
);
width = 169;
}
);
unicode = 0021;
},
{
glyphname = numbersign;
lastChange = "2016-01-13 12:08:33 +0000";
layers = (
{
hints = (
{
horizontal = 1;
origin = "{0, 6}";
target = up;
type = BottomGhost;
},
{
horizontal = 1;
origin = "{0, 20}";
target = down;
type = TopGhost;
}
);
layerId = "0A9CB6F6-DACD-44D2-9CB9-B84AA124B162";
paths = (
{
closed = 1;
nodes = (
"69 276 LINE",
"133 276 LINE",
"109 189 LINE",
"44 189 LINE",
"33 146 LINE",
"98 146 LINE",
"57 0 LINE",
"103 0 LINE",
"144 146 LINE",
"260 146 LINE",
"220 0 LINE",
"266 0 LINE",
"306 146 LINE",
"371 146 LINE",
"384 189 LINE",
"319 189 LINE",
"343 276 LINE",
"408 276 LINE",
"420 319 LINE",
"355 319 LINE",
"396 467 LINE",
"349 467 LINE",
"308 319 LINE",
"192 319 LINE",
"233 467 LINE",
"187 467 LINE",
"146 319 LINE",
"81 319 LINE"
);
},
{
closed = 1;
nodes = (
"180 276 LINE",
"296 276 LINE",
"272 189 LINE",
"156 189 LINE"
);
}
);
width = 452;
}
);
unicode = 0023;
},
{
glyphname = period;
lastChange = "2016-01-13 12:08:33 +0000";
layers = (
{
hints = (
{
horizontal = 1;
place = "{24.700000, -20.000000}";
target = down;
type = TopGhost;
},
{
horizontal = 1;
origin = "{0, 3}";
target = up;
type = BottomGhost;
}
);
layerId = "0A9CB6F6-DACD-44D2-9CB9-B84AA124B162";
paths = (
{
closed = 1;
nodes = (
"22 25 OFFCURVE",
"55 -9 OFFCURVE",
"76 -9 CURVE SMOOTH",
"97 -9 OFFCURVE",
"131 25 OFFCURVE",
"131 48 CURVE SMOOTH",
"131 71 OFFCURVE",
"97 106 OFFCURVE",
"76 106 CURVE SMOOTH",
"54 106 OFFCURVE",
"22 71 OFFCURVE",
"22 48 CURVE SMOOTH"
);
}
);
width = 154;
}
);
unicode = 002E;
},
{
glyphname = question;
lastChange = "2016-01-13 12:08:33 +0000";
layers = (
{
hints = (
{
horizontal = 1;
origin = "{0, 2}";
target = "{0, 8}";
},
{
horizontal = 1;
origin = "{1, 5}";
target = "{1, 6}";
},
{
horizontal = 1;
origin = "{1, 12}";
target = "{1, 27}";
},
{
origin = "{1, 2}";
target = "{1, 9}";
},
{
origin = "{0, 11}";
target = "{0, 5}";
},
{
origin = "{1, 15}";
target = "{1, 24}";
}
);
layerId = "0A9CB6F6-DACD-44D2-9CB9-B84AA124B162";
paths = (
{
closed = 1;
nodes = (
"91 25 OFFCURVE",
"122 -9 OFFCURVE",
"142 -9 CURVE SMOOTH",
"163 -9 OFFCURVE",
"195 23 OFFCURVE",
"195 46 CURVE SMOOTH",
"195 68 OFFCURVE",
"163 101 OFFCURVE",
"142 101 CURVE SMOOTH",
"122 101 OFFCURVE",
"91 67 OFFCURVE",
"91 46 CURVE SMOOTH"
);
},
{
closed = 1;
nodes = (
"73 493 OFFCURVE",
"15 456 OFFCURVE",
"15 404 CURVE SMOOTH",
"15 358 OFFCURVE",
"63 324 OFFCURVE",
"137 321 CURVE",
"139 328 LINE",
"118 343 OFFCURVE",
"106 370 OFFCURVE",
"106 402 CURVE SMOOTH",
"106 444 OFFCURVE",
"126 473 OFFCURVE",
"156 473 CURVE SMOOTH",
"192 473 OFFCURVE",
"213 436 OFFCURVE",
"213 375 CURVE SMOOTH",
"213 307 OFFCURVE",
"179 240 OFFCURVE",
"106 165 CURVE",
"136 134 LINE",
"149 134 LINE",
"152 146 LINE SMOOTH",
"173 225 OFFCURVE",
"312 273 OFFCURVE",
"312 380 CURVE SMOOTH",
"312 447 OFFCURVE",
"248 493 OFFCURVE",
"155 493 CURVE SMOOTH"
);
}
);
width = 330;
}
);
unicode = 003F;
},
{
glyphname = quotedbl;
lastChange = "2016-01-13 12:08:33 +0000";
layers = (
{
hints = (
{
horizontal = 1;
place = "{176.150000, -20.000000}";
target = down;
type = TopGhost;
},
{
horizontal = 1;
place = "{120.900000, 21.000000}";
target = up;
type = BottomGhost;
}
);
layerId = "0A9CB6F6-DACD-44D2-9CB9-B84AA124B162";
paths = (
{
closed = 1;
nodes = (
"43 522 OFFCURVE",
"28 516 OFFCURVE",
"17 503 CURVE",
"17 468 OFFCURVE",
"36 373 OFFCURVE",
"55 336 CURVE",
"71 336 LINE",
"89 373 OFFCURVE",
"109 468 OFFCURVE",
"109 503 CURVE",
"99 516 OFFCURVE",
"82 522 OFFCURVE",
"64 522 CURVE SMOOTH"
);
},
{
closed = 1;
nodes = (
"174 522 OFFCURVE",
"159 516 OFFCURVE",
"148 503 CURVE",
"148 468 OFFCURVE",
"167 373 OFFCURVE",
"185 336 CURVE",
"202 336 LINE",
"221 373 OFFCURVE",
"240 468 OFFCURVE",
"240 503 CURVE",
"230 516 OFFCURVE",
"213 522 OFFCURVE",
"194 522 CURVE SMOOTH"
);
}
);
width = 257;
}
);
unicode = 0022;
},
{
glyphname = quotesingle;
lastChange = "2016-01-13 12:08:33 +0000";
layers = (
{
hints = (
{
horizontal = 1;
place = "{176.150000, -20.000000}";
target = down;
type = TopGhost;
},
{
horizontal = 1;
place = "{120.900000, 21.000000}";
target = up;
type = BottomGhost;
}
);
layerId = "0A9CB6F6-DACD-44D2-9CB9-B84AA124B162";
paths = (
{
closed = 1;
nodes = (
"43 522 OFFCURVE",
"28 516 OFFCURVE",
"17 503 CURVE",
"17 468 OFFCURVE",
"36 373 OFFCURVE",
"55 336 CURVE",
"71 336 LINE",
"89 373 OFFCURVE",
"109 468 OFFCURVE",
"109 503 CURVE",
"99 516 OFFCURVE",
"82 522 OFFCURVE",
"64 522 CURVE SMOOTH"
);
}
);
width = 126;
}
);
unicode = 0027;
},
{
glyphname = slash;
lastChange = "2016-01-13 12:08:33 +0000";
layers = (
{
hints = (
{
horizontal = 1;
origin = "{0, 0}";
target = up;
type = BottomGhost;
},
{
horizontal = 1;
origin = "{0, 1}";
target = down;
type = TopGhost;
}
);
layerId = "0A9CB6F6-DACD-44D2-9CB9-B84AA124B162";
paths = (
{
closed = 1;
nodes = (
"40 -41 LINE",
"235 508 LINE",
"201 508 LINE",
"7 -41 LINE"
);
}
);
width = 241;
}
);
unicode = 002F;
},
{
glyphname = underscore;
lastChange = "2016-01-13 12:08:33 +0000";
layers = (
{
hints = (
{
horizontal = 1;
origin = "{0, 0}";
target = up;
type = BottomGhost;
},
{
horizontal = 1;
origin = "{0, 3}";
target = down;
type = TopGhost;
}
);
layerId = "0A9CB6F6-DACD-44D2-9CB9-B84AA124B162";
paths = (
{
closed = 1;
nodes = (
"231 -55 LINE",
"244 -45 OFFCURVE",
"248 -25 OFFCURVE",
"248 -9 CURVE",
"0 -9 LINE",
"-12 -19 OFFCURVE",
"-17 -39 OFFCURVE",
"-17 -55 CURVE"
);
}
);
width = 231;
}
);
unicode = 005F;
},
{
glyphname = braceleft;
lastChange = "2016-01-13 12:08:33 +0000";
layers = (
{
hints = (
{
origin = "{0, 19}";
target = "{0, 26}";
}
);
layerId = "0A9CB6F6-DACD-44D2-9CB9-B84AA124B162";
paths = (
{
closed = 1;
nodes = (
"149 169 OFFCURVE",
"125 207 OFFCURVE",
"77 217 CURVE",
"125 228 OFFCURVE",
"149 265 OFFCURVE",
"149 332 CURVE SMOOTH",
"149 429 OFFCURVE",
"164 473 OFFCURVE",
"204 485 CURVE",
"199 503 LINE",
"98 493 OFFCURVE",
"40 429 OFFCURVE",
"40 325 CURVE SMOOTH",
"40 252 OFFCURVE",
"30 229 OFFCURVE",
"-9 222 CURVE",
"-9 208 LINE",
"30 201 OFFCURVE",
"40 178 OFFCURVE",
"40 105 CURVE SMOOTH",
"40 1 OFFCURVE",
"98 -62 OFFCURVE",
"199 -73 CURVE",
"204 -54 LINE",
"164 -43 OFFCURVE",
"149 2 OFFCURVE",
"149 102 CURVE SMOOTH"
);
}
);
width = 214;
}
);
unicode = 007B;
},
{
glyphname = bracketleft;
lastChange = "2016-01-13 12:08:33 +0000";
layers = (
{
hints = (
{
horizontal = 1;
origin = "{0, 0}";
target = "{0, 2}";
},
{
horizontal = 1;
origin = "{0, 11}";
target = "{0, 13}";
},
{
origin = "{0, 0}";
target = "{0, 6}";
}
);
layerId = "0A9CB6F6-DACD-44D2-9CB9-B84AA124B162";
paths = (
{
closed = 1;
nodes = (
"68 -73 LINE",
"256 -73 LINE",
"256 -46 LINE",
"204 -38 LINE SMOOTH",
"176 -34 OFFCURVE",
"168 -25 OFFCURVE",
"168 -4 CURVE SMOOTH",
"168 434 LINE SMOOTH",
"168 456 OFFCURVE",
"176 464 OFFCURVE",
"204 469 CURVE SMOOTH",
"256 476 LINE",
"256 503 LINE",
"68 503 LINE"
);
}
);
width = 261;
}
);
unicode = 005B;
},
{
glyphname = parenleft;
lastChange = "2016-01-13 12:08:33 +0000";
layers = (
{
hints = (
{
origin = "{0, 6}";
target = "{0, 13}";
}
);
layerId = "0A9CB6F6-DACD-44D2-9CB9-B84AA124B162";
paths = (
{
closed = 1;
nodes = (
"129 338 OFFCURVE",
"163 437 OFFCURVE",
"221 483 CURVE",
"209 498 LINE",
"86 448 OFFCURVE",
"24 353 OFFCURVE",
"24 215 CURVE SMOOTH",
"24 77 OFFCURVE",
"86 -17 OFFCURVE",
"209 -68 CURVE",
"221 -52 LINE",
"163 -6 OFFCURVE",
"129 92 OFFCURVE",
"129 215 CURVE SMOOTH"
);
}
);
width = 238;
}
);
unicode = 0028;
},
{
glyphname = emdash;
lastChange = "2016-01-13 12:08:33 +0000";
layers = (
{
hints = (
{
horizontal = 1;
origin = "{0, 3}";
target = down;
type = TopGhost;
},
{
horizontal = 1;
origin = "{0, 7}";
target = up;
type = BottomGhost;
}
);
layerId = "0A9CB6F6-DACD-44D2-9CB9-B84AA124B162";
paths = (
{
closed = 1;
nodes = (
"541 170 LINE",
"554 180 OFFCURVE",
"558 200 OFFCURVE",
"558 216 CURVE",
"49 209 LINE",
"37 200 OFFCURVE",
"33 179 OFFCURVE",
"33 164 CURVE"
);
}
);
width = 592;
}
);
unicode = 2014;
},
{
glyphname = endash;
lastChange = "2016-01-13 12:08:33 +0000";
layers = (
{
hints = (
{
horizontal = 1;
origin = "{0, 3}";
target = down;
type = TopGhost;
},
{
horizontal = 1;
origin = "{0, 7}";
target = up;
type = BottomGhost;
}
);
layerId = "0A9CB6F6-DACD-44D2-9CB9-B84AA124B162";
paths = (
{
closed = 1;
nodes = (
"458 170 LINE",
"471 180 OFFCURVE",
"475 200 OFFCURVE",
"475 216 CURVE",
"49 209 LINE",
"37 200 OFFCURVE",
"33 179 OFFCURVE",
"33 164 CURVE"
);
}
);
width = 506;
}
);
unicode = 2013;
},
{
glyphname = hyphen;
lastChange = "2016-01-13 12:08:33 +0000";
layers = (
{
hints = (
{
horizontal = 1;
origin = "{0, 3}";
target = down;
type = TopGhost;
},
{
horizontal = 1;
origin = "{0, 7}";
target = up;
type = BottomGhost;
}
);
layerId = "0A9CB6F6-DACD-44D2-9CB9-B84AA124B162";
paths = (
{
closed = 1;
nodes = (
"192 170 LINE",
"205 180 OFFCURVE",
"209 200 OFFCURVE",
"209 216 CURVE",
"38 209 LINE",
"26 200 OFFCURVE",
"21 179 OFFCURVE",
"21 164 CURVE"
);
}
);
width = 231;
}
);
unicode = 002D;
},
{
glyphname = guillemotleft;
lastChange = "2016-01-13 12:08:33 +0000";
layers = (
{
hints = (
{
horizontal = 1;
place = "{102.700000, -20.000000}";
target = down;
type = TopGhost;
},
{
horizontal = 1;
place = "{15.275000, 21.000000}";
target = up;
type = BottomGhost;
}
);
layerId = "0A9CB6F6-DACD-44D2-9CB9-B84AA124B162";
paths = (
{
closed = 1;
nodes = (
"158 109 OFFCURVE",
"115 149 OFFCURVE",
"81 181 CURVE",
"115 214 OFFCURVE",
"158 253 OFFCURVE",
"172 275 CURVE",
"151 310 OFFCURVE",
"122 320 OFFCURVE",
"100 323 CURVE",
"42 230 OFFCURVE",
"24 198 OFFCURVE",
"24 181 CURVE SMOOTH",
"24 163 OFFCURVE",
"45 129 OFFCURVE",
"100 40 CURVE",
"122 43 OFFCURVE",
"151 51 OFFCURVE",
"172 88 CURVE"
);
},
{
closed = 1;
nodes = (
"302 109 OFFCURVE",
"260 149 OFFCURVE",
"225 181 CURVE",
"260 214 OFFCURVE",
"302 253 OFFCURVE",
"316 275 CURVE",
"296 310 OFFCURVE",
"266 320 OFFCURVE",
"245 323 CURVE",
"187 230 OFFCURVE",
"168 198 OFFCURVE",
"168 181 CURVE SMOOTH",
"168 163 OFFCURVE",
"190 129 OFFCURVE",
"245 40 CURVE",
"266 43 OFFCURVE",
"296 51 OFFCURVE",
"316 88 CURVE"
);
}
);
width = 336;
}
);
unicode = 00AB;
},
{
glyphname = guillemotright;
lastChange = "2016-01-13 12:08:33 +0000";
layers = (
{
hints = (
{
horizontal = 1;
place = "{15.275000, 21.000000}";
target = up;
type = BottomGhost;
},
{
horizontal = 1;
place = "{102.700000, -20.000000}";
target = down;
type = TopGhost;
}
);
layerId = "0A9CB6F6-DACD-44D2-9CB9-B84AA124B162";
paths = (
{
closed = 1;
nodes = (
"185 52 OFFCURVE",
"214 43 OFFCURVE",
"236 40 CURVE",
"292 131 OFFCURVE",
"312 164 OFFCURVE",
"312 181 CURVE SMOOTH",
"312 199 OFFCURVE",
"291 233 OFFCURVE",
"236 323 CURVE",
"214 320 OFFCURVE",
"185 311 OFFCURVE",
"164 275 CURVE",
"178 254 OFFCURVE",
"220 214 OFFCURVE",
"255 181 CURVE",
"220 149 OFFCURVE",
"178 110 OFFCURVE",
"164 88 CURVE"
);
},
{
closed = 1;
nodes = (
"39 52 OFFCURVE",
"69 43 OFFCURVE",
"90 40 CURVE",
"147 131 OFFCURVE",
"167 164 OFFCURVE",
"167 181 CURVE SMOOTH",
"167 199 OFFCURVE",
"146 233 OFFCURVE",
"90 323 CURVE",
"69 320 OFFCURVE",
"39 311 OFFCURVE",
"19 275 CURVE",
"33 254 OFFCURVE",
"75 214 OFFCURVE",
"110 181 CURVE",
"75 149 OFFCURVE",
"33 110 OFFCURVE",
"19 88 CURVE"
);
}
);
width = 336;
}
);
unicode = 00BB;
},
{
glyphname = guilsinglleft;
lastChange = "2016-01-13 12:08:33 +0000";
layers = (
{
hints = (
{
horizontal = 1;
place = "{102.700000, -20.000000}";
target = down;
type = TopGhost;
},
{
horizontal = 1;
place = "{15.275000, 21.000000}";
target = up;
type = BottomGhost;
}
);
layerId = "0A9CB6F6-DACD-44D2-9CB9-B84AA124B162";
paths = (
{
closed = 1;
nodes = (
"158 109 OFFCURVE",
"115 149 OFFCURVE",
"81 181 CURVE",
"115 214 OFFCURVE",
"158 253 OFFCURVE",
"172 275 CURVE",
"151 310 OFFCURVE",
"122 320 OFFCURVE",
"100 323 CURVE",
"42 230 OFFCURVE",
"24 198 OFFCURVE",
"24 181 CURVE SMOOTH",
"24 163 OFFCURVE",
"45 129 OFFCURVE",
"100 40 CURVE",
"122 43 OFFCURVE",
"151 51 OFFCURVE",
"172 88 CURVE"
);
}
);
width = 191;
}
);
unicode = 2039;
},
{
glyphname = guilsinglright;
lastChange = "2016-01-13 12:08:33 +0000";
layers = (
{
hints = (
{
horizontal = 1;
place = "{15.275000, 21.000000}";
target = up;
type = BottomGhost;
},
{
horizontal = 1;
place = "{102.700000, -20.000000}";
target = down;
type = TopGhost;
}
);
layerId = "0A9CB6F6-DACD-44D2-9CB9-B84AA124B162";
paths = (
{
closed = 1;
nodes = (
"39 52 OFFCURVE",
"69 43 OFFCURVE",
"90 40 CURVE",
"147 131 OFFCURVE",
"167 164 OFFCURVE",
"167 181 CURVE SMOOTH",
"167 199 OFFCURVE",
"146 233 OFFCURVE",
"90 323 CURVE",
"69 320 OFFCURVE",
"39 311 OFFCURVE",
"19 275 CURVE",
"33 254 OFFCURVE",
"75 214 OFFCURVE",
"110 181 CURVE",
"75 149 OFFCURVE",
"33 110 OFFCURVE",
"19 88 CURVE"
);
}
);
width = 191;
}
);
unicode = 203A;
},
{
color = 4;
glyphname = cent;
lastChange = "2016-01-13 18:57:26 +0000";
layers = (
{
components = (
{
name = c;
transform = "{1, 0, 0, 1, 0, 73}";
}
);
hints = (
{
origin = "{1, 1}";
target = "{1, 4}";
}
);
layerId = "0A9CB6F6-DACD-44D2-9CB9-B84AA124B162";
paths = (
{
closed = 1;
nodes = (
"189 395 LINE",
"189 521 LINE",
"179 521 OFFCURVE",
"167 518 OFFCURVE",
"161 506 CURVE",
"161 395 LINE"
);
},
{
closed = 1;
nodes = (
"161 72 LINE",
"161 -54 LINE",
"171 -54 OFFCURVE",
"183 -51 OFFCURVE",
"189 -39 CURVE",
"189 73 LINE"
);
}
);
width = 332;
}
);
unicode = 00A2;
},
{
glyphname = currency;
lastChange = "2016-01-13 18:56:10 +0000";
layers = (
{
hints = (
{
horizontal = 1;
origin = "{0, 2}";
target = "{1, 2}";
},
{
horizontal = 1;
origin = "{3, 5}";
target = up;
type = BottomGhost;
},
{
horizontal = 1;
origin = "{1, 8}";
target = "{0, 8}";
},
{
horizontal = 1;
origin = "{5, 4}";
target = "{5, 1}";
},
{
origin = "{0, 11}";
target = "{1, 5}";
},
{
origin = "{1, 11}";
target = "{0, 5}";
}
);
layerId = "0A9CB6F6-DACD-44D2-9CB9-B84AA124B162";
paths = (
{
closed = 1;
nodes = (
"55 158 OFFCURVE",
"110 96 OFFCURVE",
"205 96 CURVE SMOOTH",
"300 96 OFFCURVE",
"356 158 OFFCURVE",
"356 235 CURVE SMOOTH",
"356 311 OFFCURVE",
"300 374 OFFCURVE",
"205 374 CURVE SMOOTH",
"110 374 OFFCURVE",
"55 311 OFFCURVE",
"55 235 CURVE SMOOTH"
);
},
{
closed = 1;
nodes = (
"261 163 OFFCURVE",
"236 119 OFFCURVE",
"203 119 CURVE SMOOTH",
"172 119 OFFCURVE",
"151 159 OFFCURVE",
"151 233 CURVE SMOOTH",
"151 308 OFFCURVE",
"175 352 OFFCURVE",
"209 352 CURVE SMOOTH",
"240 352 OFFCURVE",
"261 311 OFFCURVE",
"261 237 CURVE SMOOTH"
);
},
{
closed = 1;
nodes = (
"120 168 LINE",
"34 83 LINE",
"34 72 OFFCURVE",
"37 62 OFFCURVE",
"44 53 CURVE",
"135 144 LINE"
);
},
{
closed = 1;
nodes = (
"293 302 LINE",
"379 387 LINE",
"379 398 OFFCURVE",
"377 409 OFFCURVE",
"370 418 CURVE",
"282 330 LINE"
);
},
{
closed = 1;
nodes = (
"273 148 LINE",
"358 63 LINE",
"368 63 OFFCURVE",
"380 66 OFFCURVE",
"389 72 CURVE",
"298 163 LINE"
);
},
{
closed = 1;
nodes = (
"140 322 LINE",
"54 408 LINE",
"44 408 OFFCURVE",
"33 407 OFFCURVE",
"23 398 CURVE",
"111 311 LINE"
);
}
);
width = 413;
}
);
unicode = 00A4;
},
{
color = 4;
glyphname = dollar;
lastChange = "2016-01-13 18:53:06 +0000";
layers = (
{
anchors = (
{
name = bottom;
position = "{194, 0}";
},
{
name = top;
position = "{200, 467}";
}
);
background = {
paths = (
{
closed = 1;
nodes = (
"289 1 OFFCURVE",
"362 50 OFFCURVE",
"362 134 CURVE SMOOTH",
"362 272 OFFCURVE",
"127 260 OFFCURVE",
"127 380 CURVE SMOOTH",
"127 412 OFFCURVE",
"151 442 OFFCURVE",
"198 442 CURVE SMOOTH",
"241 442 OFFCURVE",
"265 413 OFFCURVE",
"265 379 CURVE SMOOTH",
"265 350 OFFCURVE",
"251 324 OFFCURVE",
"226 313 CURVE",
"226 306 LINE",
"243 301 OFFCURVE",
"258 299 OFFCURVE",
"270 299 CURVE SMOOTH",
"325 299 OFFCURVE",
"355 335 OFFCURVE",
"355 373 CURVE SMOOTH",
"355 430 OFFCURVE",
"293 466 OFFCURVE",
"204 466 CURVE SMOOTH",
"99 466 OFFCURVE",
"29 413 OFFCURVE",
"29 338 CURVE SMOOTH",
"29 192 OFFCURVE",
"262 196 OFFCURVE",
"262 94 CURVE SMOOTH",
"262 58 OFFCURVE",
"234 24 OFFCURVE",
"185 24 CURVE SMOOTH",
"137 24 OFFCURVE",
"113 57 OFFCURVE",
"113 96 CURVE SMOOTH",
"113 123 OFFCURVE",
"127 151 OFFCURVE",
"151 162 CURVE",
"151 169 LINE",
"135 174 OFFCURVE",
"119 176 OFFCURVE",
"107 176 CURVE SMOOTH",
"52 176 OFFCURVE",
"22 140 OFFCURVE",
"22 101 CURVE SMOOTH",
"22 39 OFFCURVE",
"86 1 OFFCURVE",
"180 1 CURVE SMOOTH"
);
}
);
};
hints = (
{
horizontal = 1;
origin = "{1, 47}";
target = "{1, 32}";
},
{
horizontal = 1;
origin = "{1, 14}";
target = down;
type = TopGhost;
},
{
horizontal = 1;
origin = "{1, 8}";
target = "{1, 23}";
},
{
origin = "{1, 26}";
target = "{1, 5}";
},
{
origin = "{0, 0}";
target = "{0, 3}";
},
{
origin = "{1, 29}";
target = "{1, 2}";
},
{
origin = "{1, 11}";
target = "{1, 20}";
},
{
origin = "{1, 44}";
target = "{1, 35}";
}
);
layerId = "0A9CB6F6-DACD-44D2-9CB9-B84AA124B162";
paths = (
{
closed = 1;
nodes = (
"180 -99 LINE",
"190 -99 OFFCURVE",
"202 -96 OFFCURVE",
"208 -84 CURVE",
"208 14 LINE",
"180 13 LINE"
);
},
{
closed = 1;
nodes = (
"289 1 OFFCURVE",
"362 50 OFFCURVE",
"362 134 CURVE SMOOTH",
"362 272 OFFCURVE",
"127 260 OFFCURVE",
"127 380 CURVE SMOOTH",
"127 412 OFFCURVE",
"152 442 OFFCURVE",
"202 442 CURVE SMOOTH",
"248 442 OFFCURVE",
"269 413 OFFCURVE",
"269 382 CURVE SMOOTH",
"269 361 OFFCURVE",
"259 340 OFFCURVE",
"242 326 CURVE",
"257 319 OFFCURVE",
"273 315 OFFCURVE",
"288 315 CURVE SMOOTH",
"329 315 OFFCURVE",
"355 337 OFFCURVE",
"355 373 CURVE SMOOTH",
"355 430 OFFCURVE",
"293 466 OFFCURVE",
"204 466 CURVE SMOOTH",
"99 466 OFFCURVE",
"29 413 OFFCURVE",
"29 338 CURVE SMOOTH",
"29 192 OFFCURVE",
"262 196 OFFCURVE",
"262 94 CURVE SMOOTH",
"262 58 OFFCURVE",
"234 24 OFFCURVE",
"185 24 CURVE SMOOTH",
"137 24 OFFCURVE",
"109 55 OFFCURVE",
"109 91 CURVE SMOOTH",
"109 117 OFFCURVE",
"117 142 OFFCURVE",
"140 154 CURVE",
"125 162 OFFCURVE",
"109 166 OFFCURVE",
"94 166 CURVE SMOOTH",
"54 166 OFFCURVE",
"22 142 OFFCURVE",
"22 101 CURVE SMOOTH",
"22 39 OFFCURVE",
"86 1 OFFCURVE",
"180 1 CURVE SMOOTH"
);
},
{
closed = 1;
nodes = (
"208 567 LINE",
"198 567 OFFCURVE",
"186 564 OFFCURVE",
"180 552 CURVE",
"180 454 LINE",
"208 455 LINE"
);
}
);
width = 389;
}
);
unicode = 0024;
},
{
color = 4;
glyphname = euro;
lastChange = "2016-01-13 18:57:26 +0000";
layers = (
{
hints = (
{
origin = "{2, 39}";
target = "{2, 18}";
},
{
origin = "{2, 12}";
target = "{2, 3}";
},
{
origin = "{2, 23}";
target = "{2, 33}";
},
{
horizontal = 1;
origin = "{2, 0}";
target = "{2, 15}";
},
{
horizontal = 1;
origin = "{0, 0}";
target = "{0, 3}";
},
{
horizontal = 1;
origin = "{1, 0}";
target = "{1, 3}";
},
{
horizontal = 1;
origin = "{2, 21}";
target = "{2, 36}";
}
);
layerId = "0A9CB6F6-DACD-44D2-9CB9-B84AA124B162";
paths = (
{
closed = 1;
nodes = (
"252 171 LINE",
"263 178 OFFCURVE",
"267 189 OFFCURVE",
"267 199 CURVE",
"14 199 LINE",
"3 193 OFFCURVE",
"-1 181 OFFCURVE",
"-1 171 CURVE"
);
},
{
closed = 1;
nodes = (
"252 259 LINE",
"263 266 OFFCURVE",
"267 277 OFFCURVE",
"267 287 CURVE",
"14 287 LINE",
"3 281 OFFCURVE",
"-1 269 OFFCURVE",
"-1 259 CURVE"
);
},
{
closed = 1;
nodes = (
"318 -9 OFFCURVE",
"373 24 OFFCURVE",
"373 77 CURVE SMOOTH",
"373 109 OFFCURVE",
"347 138 OFFCURVE",
"304 141 CURVE SMOOTH",
"291 142 OFFCURVE",
"275 142 OFFCURVE",
"257 137 CURVE",
"271 124 OFFCURVE",
"288 95 OFFCURVE",
"288 72 CURVE SMOOTH",
"288 42 OFFCURVE",
"268 14 OFFCURVE",
"234 14 CURVE SMOOTH",
"171 14 OFFCURVE",
"140 96 OFFCURVE",
"140 223 CURVE SMOOTH",
"140 358 OFFCURVE",
"177 452 OFFCURVE",
"243 452 CURVE SMOOTH",
"277 452 OFFCURVE",
"297 426 OFFCURVE",
"297 395 CURVE SMOOTH",
"297 374 OFFCURVE",
"281 343 OFFCURVE",
"266 329 CURVE",
"284 325 OFFCURVE",
"300 325 OFFCURVE",
"313 326 CURVE SMOOTH",
"356 329 OFFCURVE",
"382 358 OFFCURVE",
"382 390 CURVE SMOOTH",
"382 442 OFFCURVE",
"327 476 OFFCURVE",
"248 476 CURVE SMOOTH",
"112 476 OFFCURVE",
"41 373 OFFCURVE",
"41 224 CURVE SMOOTH",
"41 83 OFFCURVE",
"105 -9 OFFCURVE",
"239 -9 CURVE SMOOTH"
);
}
);
width = 401;
}
);
unicode = 20AC;
},
{
color = 4;
glyphname = florin;
lastChange = "2016-01-13 18:57:26 +0000";
layers = (
{
hints = (
{
horizontal = 1;
origin = "{1, 18}";
target = "{1, 6}";
},
{
horizontal = 1;
origin = "{0, 7}";
target = "{0, 4}";
},
{
horizontal = 1;
origin = "{1, 37}";
target = "{1, 25}";
},
{
origin = "{1, 15}";
target = "{1, 9}";
},
{
origin = "{1, 3}";
target = "{1, 21}";
},
{
origin = "{1, 28}";
target = "{1, 34}";
}
);
layerId = "0A9CB6F6-DACD-44D2-9CB9-B84AA124B162";
paths = (
{
closed = 1;
nodes = (
"254 203 LINE",
"265 209 OFFCURVE",
"268 221 OFFCURVE",
"268 231 CURVE",
"16 231 LINE",
"5 225 OFFCURVE",
"1 213 OFFCURVE",
"1 203 CURVE"
);
},
{
closed = 1;
nodes = (
"113 476 OFFCURVE",
"77 389 OFFCURVE",
"77 256 CURVE SMOOTH",
"77 -70 LINE SMOOTH",
"77 -115 OFFCURVE",
"63 -135 OFFCURVE",
"41 -135 CURVE SMOOTH",
"18 -135 OFFCURVE",
"9 -110 OFFCURVE",
"9 -83 CURVE SMOOTH",
"9 -65 OFFCURVE",
"15 -37 OFFCURVE",
"31 -16 CURVE",
"-9 -19 OFFCURVE",
"-60 -42 OFFCURVE",
"-60 -90 CURVE SMOOTH",
"-60 -131 OFFCURVE",
"-20 -158 OFFCURVE",
"35 -158 CURVE SMOOTH",
"125 -158 OFFCURVE",
"167 -93 OFFCURVE",
"167 8 CURVE SMOOTH",
"167 300 LINE SMOOTH",
"167 374 OFFCURVE",
"171 452 OFFCURVE",
"217 452 CURVE SMOOTH",
"242 452 OFFCURVE",
"252 426 OFFCURVE",
"252 400 CURVE SMOOTH",
"252 379 OFFCURVE",
"246 350 OFFCURVE",
"229 327 CURVE",
"273 330 OFFCURVE",
"329 355 OFFCURVE",
"329 406 CURVE SMOOTH",
"329 449 OFFCURVE",
"287 476 OFFCURVE",
"229 476 CURVE SMOOTH"
);
}
);
width = 302;
}
);
unicode = 0192;
},
{
color = 4;
glyphname = lira;
lastChange = "2016-01-13 18:57:26 +0000";
layers = (
{
hints = (
{
origin = "{2, 3}";
target = "{2, 21}";
},
{
origin = "{2, 6}";
target = "{2, 21}";
},
{
origin = "{2, 26}";
target = "{2, 33}";
},
{
origin = "{2, 6}";
target = "{2, 18}";
},
{
horizontal = 1;
origin = "{0, 0}";
target = "{0, 3}";
},
{
horizontal = 1;
origin = "{1, 0}";
target = "{1, 3}";
},
{
horizontal = 1;
origin = "{2, 24}";
target = "{2, 0}";
},
{
horizontal = 1;
origin = "{2, 10}";
target = up;
type = BottomGhost;
}
);
layerId = "0A9CB6F6-DACD-44D2-9CB9-B84AA124B162";
paths = (
{
closed = 1;
nodes = (
"283 137 LINE",
"295 143 OFFCURVE",
"298 155 OFFCURVE",
"298 164 CURVE",
"46 164 LINE",
"34 159 OFFCURVE",
"31 146 OFFCURVE",
"31 137 CURVE"
);
},
{
closed = 1;
nodes = (
"283 224 LINE",
"295 231 OFFCURVE",
"298 243 OFFCURVE",
"298 252 CURVE",
"46 252 LINE",
"34 246 OFFCURVE",
"31 234 OFFCURVE",
"31 224 CURVE"
);
},
{
closed = 1;
nodes = (
"113 476 OFFCURVE",
"64 414 OFFCURVE",
"64 332 CURVE SMOOTH",
"64 270 OFFCURVE",
"96 218 OFFCURVE",
"96 161 CURVE SMOOTH",
"96 114 OFFCURVE",
"68 60 OFFCURVE",
"20 28 CURVE",
"37 0 LINE",
"353 0 LINE",
"370 17 OFFCURVE",
"375 49 OFFCURVE",
"375 74 CURVE",
"111 74 LINE",
"168 107 OFFCURVE",
"175 155 OFFCURVE",
"175 196 CURVE SMOOTH",
"175 236 OFFCURVE",
"165 278 OFFCURVE",
"165 322 CURVE SMOOTH",
"165 434 OFFCURVE",
"200 452 OFFCURVE",
"231 452 CURVE SMOOTH",
"263 452 OFFCURVE",
"289 423 OFFCURVE",
"289 382 CURVE SMOOTH",
"289 351 OFFCURVE",
"280 319 OFFCURVE",
"260 294 CURVE",
"319 296 OFFCURVE",
"376 326 OFFCURVE",
"376 384 CURVE SMOOTH",
"376 438 OFFCURVE",
"317 476 OFFCURVE",
"233 476 CURVE SMOOTH"
);
}
);
width = 398;
}
);
unicode = 20A4;
},
{
color = 4;
glyphname = sterling;
lastChange = "2016-01-13 18:57:26 +0000";
layers = (
{
hints = (
{
origin = "{0, 3}";
target = "{0, 21}";
},
{
origin = "{0, 6}";
target = "{0, 21}";
},
{
origin = "{0, 26}";
target = "{0, 33}";
},
{
origin = "{0, 6}";
target = "{0, 18}";
},
{
horizontal = 1;
origin = "{1, 0}";
target = "{1, 3}";
},
{
horizontal = 1;
origin = "{0, 24}";
target = "{0, 0}";
},
{
horizontal = 1;
origin = "{0, 10}";
target = up;
type = BottomGhost;
}
);
layerId = "0A9CB6F6-DACD-44D2-9CB9-B84AA124B162";
paths = (
{
closed = 1;
nodes = (
"113 476 OFFCURVE",
"64 414 OFFCURVE",
"64 332 CURVE SMOOTH",
"64 270 OFFCURVE",
"96 218 OFFCURVE",
"96 161 CURVE SMOOTH",
"96 114 OFFCURVE",
"68 60 OFFCURVE",
"20 28 CURVE",
"37 0 LINE",
"353 0 LINE",
"370 17 OFFCURVE",
"375 49 OFFCURVE",
"375 74 CURVE",
"111 74 LINE",
"168 107 OFFCURVE",
"175 155 OFFCURVE",
"175 196 CURVE SMOOTH",
"175 236 OFFCURVE",
"165 278 OFFCURVE",
"165 322 CURVE SMOOTH",
"165 434 OFFCURVE",
"200 452 OFFCURVE",
"231 452 CURVE SMOOTH",
"263 452 OFFCURVE",
"289 423 OFFCURVE",
"289 382 CURVE SMOOTH",
"289 351 OFFCURVE",
"281 316 OFFCURVE",
"260 294 CURVE",
"319 296 OFFCURVE",
"376 326 OFFCURVE",
"376 384 CURVE SMOOTH",
"376 438 OFFCURVE",
"317 476 OFFCURVE",
"233 476 CURVE SMOOTH"
);
},
{
closed = 1;
nodes = (
"283 192 LINE",
"295 198 OFFCURVE",
"298 210 OFFCURVE",
"298 220 CURVE",
"46 220 LINE",
"34 214 OFFCURVE",
"31 202 OFFCURVE",
"31 192 CURVE"
);
}
);
width = 398;
}
);
unicode = 00A3;
},
{
glyphname = yen;
lastChange = "2016-01-13 12:08:33 +0000";
layers = (
{
components = (
{
name = Y;
transform = "{1, 0, 0, 1, 2, 0}";
}
);
hints = (
{
horizontal = 1;
place = "{53.300000, 9.100000}";
},
{
horizontal = 1;
origin = "{1, 4}";
target = "{1, 1}";
}
);
layerId = "0A9CB6F6-DACD-44D2-9CB9-B84AA124B162";
paths = (
{
closed = 1;
nodes = (
"354 169 LINE",
"365 175 OFFCURVE",
"369 187 OFFCURVE",
"369 197 CURVE",
"50 197 LINE",
"38 191 OFFCURVE",
"35 179 OFFCURVE",
"35 169 CURVE"
);
},
{
closed = 1;
nodes = (
"149 285 LINE",
"50 285 LINE",
"38 279 OFFCURVE",
"35 267 OFFCURVE",
"35 257 CURVE",
"161 257 LINE"
);
},
{
closed = 1;
nodes = (
"252 257 LINE",
"354 257 LINE",
"365 263 OFFCURVE",
"369 275 OFFCURVE",
"369 285 CURVE",
"268 285 LINE"
);
}
);
width = 405;
}
);
unicode = 00A5;
},
{
glyphname = Ohm;
lastChange = "2016-01-13 12:08:33 +0000";
layers = (
{
hints = (
{
place = "{12.675000, 22.750000}";
},
{
place = "{125.775000, 22.750000}";
},
{
horizontal = 1;
place = "{143.000000, 11.375000}";
},
{
horizontal = 1;
origin = "{0, 18}";
target = up;
type = BottomGhost;
}
);
layerId = "0A9CB6F6-DACD-44D2-9CB9-B84AA124B162";
paths = (
{
closed = 1;
nodes = (
"341 91 LINE",
"424 126 OFFCURVE",
"467 198 OFFCURVE",
"467 274 CURVE SMOOTH",
"467 378 OFFCURVE",
"396 475 OFFCURVE",
"248 475 CURVE SMOOTH",
"99 475 OFFCURVE",
"28 378 OFFCURVE",
"28 274 CURVE SMOOTH",
"28 198 OFFCURVE",
"71 126 OFFCURVE",
"155 91 CURVE",
"155 70 LINE SMOOTH",
"155 42 OFFCURVE",
"142 33 OFFCURVE",
"111 26 CURVE SMOOTH",
"57 14 LINE",
"57 0 LINE",
"192 0 LINE",
"192 103 LINE",
"143 138 OFFCURVE",
"126 200 OFFCURVE",
"126 265 CURVE SMOOTH",
"126 369 OFFCURVE",
"165 453 OFFCURVE",
"248 453 CURVE SMOOTH",
"330 453 OFFCURVE",
"369 369 OFFCURVE",
"369 265 CURVE SMOOTH",
"369 200 OFFCURVE",
"351 138 OFFCURVE",
"304 103 CURVE",
"304 0 LINE",
"447 0 LINE",
"447 14 LINE",
"390 26 LINE SMOOTH",
"356 34 OFFCURVE",
"341 42 OFFCURVE",
"341 70 CURVE SMOOTH"
);
}
);
width = 495;
}
);
unicode = 2126;
},
{
glyphname = approxequal;
lastChange = "2016-01-13 12:08:33 +0000";
layers = (
{
hints = (
{
horizontal = 1;
origin = "{1, 16}";
target = "{1, 3}";
},
{
horizontal = 1;
origin = "{0, 16}";
target = "{0, 3}";
},
{
horizontal = 1;
origin = "{0, 9}";
target = down;
type = TopGhost;
},
{
horizontal = 1;
origin = "{0, 13}";
target = "{0, 6}";
},
{
horizontal = 1;
origin = "{1, 13}";
target = "{1, 6}";
}
);
layerId = "0A9CB6F6-DACD-44D2-9CB9-B84AA124B162";
paths = (
{
closed = 1;
nodes = (
"340 327 LINE",
"323 342 OFFCURVE",
"300 348 OFFCURVE",
"277 348 CURVE SMOOTH",
"222 348 OFFCURVE",
"185 306 OFFCURVE",
"131 306 CURVE SMOOTH",
"108 306 OFFCURVE",
"85 313 OFFCURVE",
"65 327 CURVE",
"65 278 LINE",
"83 263 OFFCURVE",
"106 257 OFFCURVE",
"128 257 CURVE SMOOTH",
"184 257 OFFCURVE",
"221 299 OFFCURVE",
"275 299 CURVE SMOOTH",
"298 299 OFFCURVE",
"321 291 OFFCURVE",
"340 278 CURVE"
);
},
{
closed = 1;
nodes = (
"340 187 LINE",
"323 202 OFFCURVE",
"300 207 OFFCURVE",
"277 207 CURVE SMOOTH",
"222 207 OFFCURVE",
"185 166 OFFCURVE",
"131 166 CURVE SMOOTH",
"108 166 OFFCURVE",
"85 173 OFFCURVE",
"65 187 CURVE",
"65 137 LINE",
"83 123 OFFCURVE",
"106 116 OFFCURVE",
"128 116 CURVE SMOOTH",
"184 116 OFFCURVE",
"221 159 OFFCURVE",
"275 159 CURVE SMOOTH",
"298 159 OFFCURVE",
"321 151 OFFCURVE",
"340 137 CURVE"
);
}
);
width = 405;
}
);
unicode = 2248;
},
{
glyphname = asciitilde;
lastChange = "2016-01-13 12:08:33 +0000";
layers = (
{
hints = (
{
horizontal = 1;
origin = "{0, 16}";
target = "{0, 3}";
},
{
horizontal = 1;
origin = "{0, 13}";
target = "{0, 6}";
}
);
layerId = "0A9CB6F6-DACD-44D2-9CB9-B84AA124B162";
paths = (
{
closed = 1;
nodes = (
"339 259 LINE",
"322 274 OFFCURVE",
"299 280 OFFCURVE",
"276 280 CURVE SMOOTH",
"221 280 OFFCURVE",
"184 238 OFFCURVE",
"130 238 CURVE SMOOTH",
"107 238 OFFCURVE",
"84 245 OFFCURVE",
"64 259 CURVE",
"64 209 LINE",
"82 195 OFFCURVE",
"105 189 OFFCURVE",
"127 189 CURVE SMOOTH",
"183 189 OFFCURVE",
"220 231 OFFCURVE",
"274 231 CURVE SMOOTH",
"297 231 OFFCURVE",
"320 223 OFFCURVE",
"339 209 CURVE"
);
}
);
width = 404;
}
);
unicode = 007E;
},
{
glyphname = equal;
lastChange = "2016-01-13 12:08:33 +0000";
layers = (
{
hints = (
{
horizontal = 1;
origin = "{0, 0}";
target = "{0, 3}";
},
{
horizontal = 1;
origin = "{1, 3}";
target = "{1, 0}";
}
);
layerId = "0A9CB6F6-DACD-44D2-9CB9-B84AA124B162";
paths = (
{
closed = 1;
nodes = (
"65 137 LINE",
"340 137 LINE",
"340 187 LINE",
"65 187 LINE"
);
},
{
closed = 1;
nodes = (
"65 278 LINE",
"340 278 LINE",
"340 327 LINE",
"65 327 LINE"
);
}
);
width = 405;
}
);
unicode = 003D;
},
{
glyphname = greater;
lastChange = "2016-01-13 12:08:33 +0000";
layers = (
{
hints = (
{
horizontal = 1;
origin = "{0, 1}";
target = down;
type = TopGhost;
},
{
horizontal = 1;
origin = "{0, 5}";
target = up;
type = BottomGhost;
}
);
layerId = "0A9CB6F6-DACD-44D2-9CB9-B84AA124B162";
paths = (
{
closed = 1;
nodes = (
"340 257 LINE",
"65 368 LINE",
"65 319 LINE",
"285 232 LINE",
"65 146 LINE",
"65 96 LINE",
"340 207 LINE"
);
}
);
width = 405;
}
);
unicode = 003E;
},
{
glyphname = increment;
lastChange = "2016-01-13 12:08:33 +0000";
layers = (
{
hints = (
{
horizontal = 1;
origin = "{0, 0}";
target = "{1, 2}";
},
{
horizontal = 1;
origin = "{0, 2}";
target = down;
type = TopGhost;
}
);
layerId = "0A9CB6F6-DACD-44D2-9CB9-B84AA124B162";
paths = (
{
closed = 1;
nodes = (
"33 0 LINE",
"421 0 LINE",
"259 467 LINE",
"193 467 LINE"
);
},
{
closed = 1;
nodes = (
"216 399 LINE",
"339 40 LINE",
"96 40 LINE"
);
}
);
width = 454;
}
);
unicode = 2206;
},
{
glyphname = infinity;
lastChange = "2016-01-13 12:08:33 +0000";
layers = (
{
hints = (
{
origin = "{2, 18}";
target = "{0, 0}";
},
{
origin = "{1, 0}";
target = "{2, 6}";
},
{
horizontal = 1;
origin = "{2, 3}";
target = up;
type = BottomGhost;
},
{
horizontal = 1;
origin = "{2, 9}";
target = down;
type = TopGhost;
}
);
layerId = "0A9CB6F6-DACD-44D2-9CB9-B84AA124B162";
paths = (
{
closed = 1;
nodes = (
"88 270 OFFCURVE",
"114 306 OFFCURVE",
"157 306 CURVE SMOOTH",
"191 306 OFFCURVE",
"222 285 OFFCURVE",
"248 232 CURVE",
"222 179 OFFCURVE",
"191 159 OFFCURVE",
"157 159 CURVE SMOOTH",
"114 159 OFFCURVE",
"88 194 OFFCURVE",
"88 232 CURVE SMOOTH"
);
},
{
closed = 1;
nodes = (
"459 194 OFFCURVE",
"433 159 OFFCURVE",
"391 159 CURVE SMOOTH",
"356 159 OFFCURVE",
"326 179 OFFCURVE",
"300 232 CURVE",
"326 285 OFFCURVE",
"356 306 OFFCURVE",
"391 306 CURVE SMOOTH",
"433 306 OFFCURVE",
"459 270 OFFCURVE",
"459 232 CURVE SMOOTH"
);
},
{
closed = 1;
nodes = (
"303 142 OFFCURVE",
"341 112 OFFCURVE",
"391 112 CURVE SMOOTH",
"440 112 OFFCURVE",
"508 141 OFFCURVE",
"508 232 CURVE SMOOTH",
"508 323 OFFCURVE",
"440 352 OFFCURVE",
"391 352 CURVE SMOOTH",
"341 352 OFFCURVE",
"303 322 OFFCURVE",
"274 274 CURVE",
"244 322 OFFCURVE",
"206 352 OFFCURVE",
"156 352 CURVE SMOOTH",
"107 352 OFFCURVE",
"39 323 OFFCURVE",
"39 232 CURVE SMOOTH",
"39 141 OFFCURVE",
"107 112 OFFCURVE",
"156 112 CURVE SMOOTH",
"206 112 OFFCURVE",
"244 142 OFFCURVE",
"274 190 CURVE"
);
}
);
width = 547;
}
);
unicode = 221E;
},
{
glyphname = integral;
lastChange = "2016-01-13 12:08:33 +0000";
layers = (
{
hints = (
{
origin = "{0, 31}";
target = "{0, 25}";
},
{
origin = "{0, 19}";
target = "{0, 37}";
},
{
origin = "{0, 6}";
target = "{0, 12}";
},
{
horizontal = 1;
origin = "{0, 34}";
target = "{0, 22}";
},
{
horizontal = 1;
origin = "{0, 3}";
target = "{0, 15}";
}
);
layerId = "0A9CB6F6-DACD-44D2-9CB9-B84AA124B162";
paths = (
{
closed = 1;
nodes = (
"176 453 LINE SMOOTH",
"176 484 OFFCURVE",
"192 505 OFFCURVE",
"215 505 CURVE SMOOTH",
"237 505 OFFCURVE",
"255 483 OFFCURVE",
"255 453 CURVE",
"263 447 OFFCURVE",
"274 442 OFFCURVE",
"285 442 CURVE SMOOTH",
"301 442 OFFCURVE",
"311 454 OFFCURVE",
"311 472 CURVE SMOOTH",
"311 507 OFFCURVE",
"274 536 OFFCURVE",
"229 536 CURVE SMOOTH",
"160 536 OFFCURVE",
"117 482 OFFCURVE",
"117 393 CURVE SMOOTH",
"117 -39 LINE SMOOTH",
"117 -70 OFFCURVE",
"100 -91 OFFCURVE",
"77 -91 CURVE SMOOTH",
"55 -91 OFFCURVE",
"37 -69 OFFCURVE",
"37 -39 CURVE",
"29 -33 OFFCURVE",
"18 -28 OFFCURVE",
"7 -28 CURVE SMOOTH",
"-9 -28 OFFCURVE",
"-20 -40 OFFCURVE",
"-20 -58 CURVE SMOOTH",
"-20 -93 OFFCURVE",
"18 -122 OFFCURVE",
"62 -122 CURVE SMOOTH",
"132 -122 OFFCURVE",
"175 -68 OFFCURVE",
"175 21 CURVE SMOOTH"
);
}
);
width = 292;
}
);
unicode = 222B;
},
{
glyphname = less;
lastChange = "2016-01-13 12:08:33 +0000";
layers = (
{
hints = (
{
horizontal = 1;
origin = "{0, 1}";
target = up;
type = BottomGhost;
},
{
horizontal = 1;
origin = "{0, 5}";
target = down;
type = TopGhost;
}
);
layerId = "0A9CB6F6-DACD-44D2-9CB9-B84AA124B162";
paths = (
{
closed = 1;
nodes = (
"64 207 LINE",
"339 96 LINE",
"339 146 LINE",
"120 232 LINE",
"339 319 LINE",
"339 368 LINE",
"64 257 LINE"
);
}
);
width = 404;
}
);
unicode = 003C;
},
{
glyphname = logicalnot;
lastChange = "2016-01-13 12:08:33 +0000";
layers = (
{
hints = (
{
horizontal = 1;
origin = "{0, 0}";
target = "{0, 5}";
},
{
origin = "{0, 2}";
target = "{0, 3}";
}
);
layerId = "0A9CB6F6-DACD-44D2-9CB9-B84AA124B162";
paths = (
{
closed = 1;
nodes = (
"65 207 LINE",
"296 207 LINE",
"296 109 LINE",
"340 109 LINE",
"340 257 LINE",
"65 257 LINE"
);
}
);
width = 405;
}
);
unicode = 00AC;
},
{
glyphname = micro;
lastChange = "2016-01-13 12:08:33 +0000";
layers = (
{
hints = (
{
origin = "{0, 25}";
target = "{0, 14}";
},
{
origin = "{0, 7}";
target = "{0, 2}";
},
{
horizontal = 1;
origin = "{0, 20}";
target = down;
type = TopGhost;
},
{
horizontal = 1;
origin = "{0, 32}";
target = up;
type = BottomGhost;
},
{
horizontal = 1;
origin = "{0, 0}";
target = up;
type = BottomGhost;
}
);
layerId = "0A9CB6F6-DACD-44D2-9CB9-B84AA124B162";
paths = (
{
closed = 1;
nodes = (
"320 0 LINE",
"359 0 LINE",
"359 330 LINE",
"250 321 LINE",
"242 312 LINE",
"264 281 OFFCURVE",
"270 244 OFFCURVE",
"270 185 CURVE SMOOTH",
"270 92 OFFCURVE",
"237 32 OFFCURVE",
"191 32 CURVE SMOOTH",
"164 32 OFFCURVE",
"150 55 OFFCURVE",
"150 98 CURVE SMOOTH",
"150 310 LINE SMOOTH",
"150 319 OFFCURVE",
"146 325 OFFCURVE",
"139 328 CURVE SMOOTH",
"133 331 OFFCURVE",
"123 331 OFFCURVE",
"114 330 CURVE SMOOTH",
"75 328 OFFCURVE",
"35 312 OFFCURVE",
"13 293 CURVE",
"16 282 LINE",
"60 268 LINE",
"60 -33 LINE SMOOTH",
"60 -77 OFFCURVE",
"58 -97 OFFCURVE",
"51 -107 CURVE SMOOTH",
"43 -119 LINE",
"51 -127 LINE",
"147 -136 LINE",
"147 -5 LINE",
"160 -7 OFFCURVE",
"172 -6 OFFCURVE",
"185 -2 CURVE SMOOTH",
"223 7 OFFCURVE",
"252 34 OFFCURVE",
"268 72 CURVE"
);
}
);
width = 429;
}
);
unicode = 00B5;
},
{
glyphname = minus;
lastChange = "2016-01-13 12:08:33 +0000";
layers = (
{
hints = (
{
horizontal = 1;
origin = "{0, 0}";
target = up;
type = BottomGhost;
},
{
horizontal = 1;
origin = "{0, 2}";
target = down;
type = TopGhost;
}
);
layerId = "0A9CB6F6-DACD-44D2-9CB9-B84AA124B162";
paths = (
{
closed = 1;
nodes = (
"65 207 LINE",
"340 207 LINE",
"340 257 LINE",
"65 257 LINE"
);
}
);
width = 405;
}
);
unicode = 2212;
},
{
glyphname = multiply;
lastChange = "2016-01-13 12:08:33 +0000";
layers = (
{
hints = (
{
horizontal = 1;
origin = "{0, 9}";
target = down;
type = TopGhost;
}
);
layerId = "0A9CB6F6-DACD-44D2-9CB9-B84AA124B162";
paths = (
{
closed = 1;
nodes = (
"108 103 LINE",
"202 197 LINE",
"296 103 LINE",
"331 138 LINE",
"237 232 LINE",
"331 326 LINE",
"296 361 LINE",
"202 267 LINE",
"108 361 LINE",
"73 326 LINE",
"166 232 LINE",
"73 138 LINE"
);
}
);
width = 404;
}
);
unicode = 00D7;
},
{
glyphname = partialdiff;
lastChange = "2016-01-13 12:08:33 +0000";
layers = (
{
hints = (
{
origin = "{0, 0}";
target = "{1, 9}";
},
{
origin = "{1, 3}";
target = "{0, 6}";
},
{
horizontal = 1;
origin = "{0, 3}";
target = "{1, 6}";
},
{
horizontal = 1;
origin = "{1, 0}";
target = "{0, 16}";
},
{
horizontal = 1;
origin = "{0, 9}";
target = down;
type = TopGhost;
}
);
layerId = "0A9CB6F6-DACD-44D2-9CB9-B84AA124B162";
paths = (
{
closed = 1;
nodes = (
"22 41 OFFCURVE",
"72 -9 OFFCURVE",
"155 -9 CURVE SMOOTH",
"284 -9 OFFCURVE",
"336 103 OFFCURVE",
"336 209 CURVE SMOOTH",
"336 315 OFFCURVE",
"296 457 OFFCURVE",
"127 511 CURVE",
"113 481 LINE",
"200 442 OFFCURVE",
"248 379 OFFCURVE",
"266 297 CURVE",
"248 312 OFFCURVE",
"225 319 OFFCURVE",
"201 319 CURVE SMOOTH",
"88 319 OFFCURVE",
"22 220 OFFCURVE",
"22 122 CURVE SMOOTH"
);
},
{
closed = 1;
nodes = (
"239 285 OFFCURVE",
"268 242 OFFCURVE",
"268 179 CURVE SMOOTH",
"268 86 OFFCURVE",
"220 26 OFFCURVE",
"164 26 CURVE SMOOTH",
"117 26 OFFCURVE",
"87 64 OFFCURVE",
"87 125 CURVE SMOOTH",
"87 189 OFFCURVE",
"117 285 OFFCURVE",
"191 285 CURVE SMOOTH"
);
}
);
width = 361;
}
);
unicode = 2202;
},
{
glyphname = plus;
lastChange = "2016-01-13 12:08:33 +0000";
layers = (
{
hints = (
{
horizontal = 1;
origin = "{0, 0}";
target = "{0, 11}";
},
{
origin = "{0, 2}";
target = "{0, 3}";
}
);
layerId = "0A9CB6F6-DACD-44D2-9CB9-B84AA124B162";
paths = (
{
closed = 1;
nodes = (
"64 207 LINE",
"177 207 LINE",
"177 95 LINE",
"226 95 LINE",
"226 207 LINE",
"339 207 LINE",
"339 257 LINE",
"226 257 LINE",
"226 370 LINE",
"177 370 LINE",
"177 257 LINE",
"64 257 LINE"
);
}
);
width = 404;
}
);
unicode = 002B;
},
{
glyphname = product;
lastChange = "2016-01-13 12:08:33 +0000";
layers = (
{
hints = (
{
origin = "{0, 6}";
target = "{0, 9}";
},
{
origin = "{0, 10}";
target = "{0, 1}";
},
{
horizontal = 1;
origin = "{0, 2}";
target = "{0, 3}";
},
{
horizontal = 1;
origin = "{0, 0}";
target = up;
type = BottomGhost;
}
);
layerId = "0A9CB6F6-DACD-44D2-9CB9-B84AA124B162";
paths = (
{
closed = 1;
nodes = (
"376 -65 LINE",
"376 487 LINE",
"433 487 LINE",
"433 528 LINE",
"10 528 LINE",
"10 487 LINE",
"67 487 LINE",
"67 -65 LINE",
"125 -65 LINE",
"125 487 LINE",
"318 487 LINE",
"318 -65 LINE"
);
}
);
width = 442;
}
);
unicode = 220F;
},
